<svg id="Layer_2" data-name="Layer 2" xmlns="http://www.w3.org/2000/svg" viewBox="0 0 1000 1000"><defs><style>.cls-1{fill:#ffaabe;}.cls-2{fill:#ee9334;}.cls-3{fill:#fd510c;}.cls-4{fill:#3a140f;}.cls-5{fill:#edead9;}.cls-6{fill:#bc4632;}.cls-7{fill:#129277;}.cls-8{fill:#ff968e;}</style></defs><path class="cls-1" d="M814.64,246a75.3,75.3,0,0,1,10.07.48l.69.08c.9.11-.17,0-.29,0a9.78,9.78,0,0,1,1.61.24c1.12.19,2.24.4,3.35.63a70,70,0,0,1,6.92,1.86c1.18.38,2.35.8,3.51,1.24l.84.33.45.19.67.29,1.07.49c2,.93,3.93,2,5.84,3.08,2.33,1.35,4.62,2.76,6.82,4.31l1.79,1.31c.8.6-.75-.6-.22-.17l.45.36,1.15.94a53.74,53.74,0,0,1,4,3.71c.6.62,1.19,1.26,1.76,1.92.33.38.65.76,1,1.15l.42.53c.39.47-.6-.82-.06-.07a44.87,44.87,0,0,1,3.39,5.33c.46.86.88,1.74,1.29,2.64s0-.15-.07-.17a3.75,3.75,0,0,1,.28.71c.23.59.45,1.19.65,1.8a48,48,0,0,1,1.39,5.3c.16.81.3,1.62.43,2.43a4.78,4.78,0,0,0,.09.63c-.33-1-.1-.82,0-.39s.12,1.06.17,1.6a46.39,46.39,0,0,1,.2,5.65c0,.91-.08,1.81-.17,2.71a2.59,2.59,0,0,0-.07.63c-.13-.8.14-.91,0-.4s-.17,1-.27,1.52a23.39,23.39,0,0,1-.64,2.46c-.12.37-.25.74-.39,1.1s-.51.59.13-.27a3.78,3.78,0,0,0-.31.64,16.93,16.93,0,0,1-1.2,2c-.25.38-.44.24.29-.36a3.58,3.58,0,0,0-.35.41,12,12,0,0,1-.94.95c-1,.84.63-.38,0,.05-.37.23-.73.47-1.11.68l-.74.39c-.14.06-1,.44-.36.18s-.58.21-.58.21c-.33.11-.67.22-1,.31a6.39,6.39,0,0,1-1.84.43c.14,0,1.09-.09.09,0l-.83.05c-.55,0-1.1,0-1.65,0-1.12-.07.08,0,.11,0a4.44,4.44,0,0,1-1.2-.28c-.26-.08-.52-.19-.78-.26.81.23.37.18.12,0s-1.14-.51-1.15-.69c0,.27.76.65.08,0a5.44,5.44,0,0,1-.49-.47c-.16-.16-.3-.34-.46-.5s.57.86,0-.07c-.25-.38-.44-.78-.67-1.17-.35-.6.34,1.16.05.11-.06-.21-.14-.42-.19-.64,0-.07-.15-.64-.15-.64s.07,1.32,0,.35c0-.22,0-.43,0-.65s0-.33,0-.49c0-.39,0-.22-.08.52.13,0,.18-1.13.36-1.27-.31.24-.38.74,0,.21a3.21,3.21,0,0,1,.4-.64c-.44.22-.48.53-.09.14.23-.22.43-.46.66-.67s.73-.65.22-.22.29-.19.42-.28a17.1,17.1,0,0,1,1.5-.86l.7-.34c.68-.36-1.12.4,0,0a36.4,36.4,0,0,1,3.84-1.21c.59-.14,1.17-.27,1.76-.38l.89-.14c-1,.17-.2,0,0,0a34,34,0,0,1,4-.16c.68,0,1.35.05,2,.11.15,0,1.09.11.45,0s.3,0,.45.07a33.6,33.6,0,0,1,4,.92c1,.31,2,.67,3,1.06s0,0-.12-.06a3.27,3.27,0,0,1,.7.31c.56.26,1.12.54,1.67.83a39.21,39.21,0,0,1,5.08,3.17c.17.12.43.41.63.46-.08,0-.95-.75-.3-.22l.91.73c.61.52,1.22,1.05,1.81,1.59,1,1,2,1.93,3,3,.76.79,1.49,1.61,2.2,2.46.32.39.66.78,1,1.19-.63-.88-.22-.3-.09-.11s.45.61.67.91a55.88,55.88,0,0,1,3.4,5.46c.48.89.94,1.8,1.37,2.71.2.43.4.85.59,1.28a4.59,4.59,0,0,1,.28.64c-.29-1.19-.1-.24,0,.09a67.37,67.37,0,0,1,3.36,11c.36,1.63.66,3.28.91,4.94,0,.19.24,1.68.1.7s.06.48.08.68c.09.76.17,1.52.23,2.28q.32,3.57.32,7.16c0,.74,0,1.48,0,2.23a5,5,0,0,0,5,5,5.11,5.11,0,0,0,5-5c.39-14.23-2.61-29.19-10.16-41.39a56.17,56.17,0,0,0-18-18.19c-9.79-6-22.27-8-33.09-3.57-5.78,2.34-11,6.66-11.09,13.42a14.89,14.89,0,0,0,8.63,13.28,20.42,20.42,0,0,0,18.49-1.57,19,19,0,0,0,7.91-10.39c2.77-7.91,1.9-17.34-.15-25.3a48,48,0,0,0-14.5-23.38,78,78,0,0,0-48.29-19.78c-1.66-.08-3.33-.1-5-.07a5,5,0,0,0,0,10Z"/><path class="cls-1" d="M150.85,774.56l-1,.17c-.19,0-1.46.2-.47.07s-.43.05-.67.08c-.47.06-.95.11-1.42.15-1.81.18-3.62.29-5.44.33q-3.31.07-6.62-.15c-1.06-.07-2.13-.17-3.18-.3-.27,0-.55,0-.82-.09,1.07.18.32,0,.09,0-.7-.11-1.4-.21-2.1-.34a70.84,70.84,0,0,1-13.89-4.05l-1.63-.67c-1.05-.43.81.36.2.09l-1-.45c-1.3-.58-2.59-1.19-3.86-1.84q-2.28-1.17-4.45-2.52c-.68-.42-1.36-.86-2-1.32a20.25,20.25,0,0,0-2.28-1.66c.13-.07.89.72.13.09l-.51-.41c-.38-.31-.75-.63-1.12-1q-1.12-1-2.19-2.07c-.65-.65-1.27-1.32-1.88-2-.34-.39-.68-.8-1-1.21-.11-.13-.59-.74-.16-.18s-.16-.23-.25-.35a40,40,0,0,1-3.48-5.7c-.21-.43-.42-.86-.61-1.3l-.24-.52c-.34-.75.14.32.16.39-.29-.92-.72-1.81-1-2.72a54.76,54.76,0,0,1-1.6-5.49c-.2-.87-.38-1.75-.54-2.63,0-.27-.09-.55-.13-.83l0-.16h0l0,.33-.06-.5c0-.33-.08-.66-.11-1a31.47,31.47,0,0,1,0-5.66,2.66,2.66,0,0,0,.06-.62c.15.7-.15,1,0,.42s.13-.8.22-1.19c.2-.92.53-1.77.8-2.67.18-.61-.48,1-.17.41.09-.17.16-.34.24-.51.2-.38.41-.74.63-1.09.1-.16.21-.31.31-.46.29-.44.35-.06-.27.35a9.24,9.24,0,0,0,1-1l.42-.38c.62-.57-.24.21-.25.18s1.22-.82,1.35-.9c.53-.32,1.07-.62,1.62-.89.14-.07.94-.4.33-.16s.61-.2.74-.24A14.55,14.55,0,0,1,94,720c.32-.07,1.13-.38,0,0a3.71,3.71,0,0,1,.8-.07c.53,0,1.06,0,1.59,0,1.13.06-.14,0-.14,0a5.3,5.3,0,0,1,1.18.28,2.77,2.77,0,0,1,.65.22c-.09-.17-.87-.44-.24-.09l.6.34c.09.05,1.07.56.36.2s0,0,.17.15l.51.48c.12.13.57.48.58.64,0-.33-.54-.76-.06,0,.17.26.77,1,.74,1.35,0,0-.36-1.18-.14-.24,0,.21.11.44.17.65.14.48-.14.49,0-.34a3.82,3.82,0,0,0,0,.67c0-.06,0,.67,0,.67.12-.72.14-.88.06-.49,0,.16-.07.33-.12.5a2.8,2.8,0,0,1-.23.71c.6-.84.18-.42,0-.18s-.27.43-.39.64c-.57,1,.49-.46,0,0s-.69.74-1.07,1.08a6.22,6.22,0,0,1-.73.63c.54-.37.37-.29-.08,0a25,25,0,0,1-3,1.73c-.3.15-1.73.76-.8.39-.68.27-1.36.52-2.06.75a31.69,31.69,0,0,1-3.6.93l-.86.16c-.15,0-1.07.14-.42.06l-.64.06-1.09.07a30.79,30.79,0,0,1-3.72,0c-.58,0-1.16-.11-1.73-.17,1,.11.28,0,.06,0l-1.23-.22a36.88,36.88,0,0,1-6.51-1.93c-.17-.07-.89-.39-.24-.09s-.3-.15-.37-.18c-.42-.19-.83-.38-1.24-.59-.86-.43-1.71-.88-2.54-1.37q-2.06-1.2-4-2.58l-1.44-1.06a5.37,5.37,0,0,1-.45-.35c.78.72.31.24.12.09-.49-.4-1-.79-1.44-1.2a50.41,50.41,0,0,1-4.53-4.48c-.67-.75-1.31-1.52-1.94-2.3s.07.07.13.18a5.34,5.34,0,0,0-.42-.55c-.34-.46-.68-.93-1-1.4q-1.68-2.42-3.12-5c-.92-1.64-1.76-3.32-2.54-5l-.5-1.14c-.43-1,.34.86.09.21-.08-.19-.16-.38-.23-.57-.34-.83-.66-1.66-1-2.5a80.3,80.3,0,0,1-3.94-15.8c0-.19-.05-.39-.08-.58-.1-.7.2,1.57.09.66,0-.34-.09-.67-.13-1-.3-2.59-2.08-5.13-5-5-2.45.11-5.32,2.22-5,5,1.62,13.82,6.15,27.44,14.72,38.54a55.78,55.78,0,0,0,19.5,16.1,43.27,43.27,0,0,0,16.07,4.33,35.72,35.72,0,0,0,18-3.76c5.4-2.66,10.31-7.24,10.53-13.63.21-6.11-4.26-11.47-9.73-13.62s-12.27-.61-17.1,2.64a18.46,18.46,0,0,0-7.86,11.34c-2,8.53,0,18,3.33,25.92a48.94,48.94,0,0,0,18.18,21.76,79.9,79.9,0,0,0,19.59,9.26A73.57,73.57,0,0,0,147.53,785c2-.2,4-.47,6-.8,2.59-.42,4.26-3.77,3.49-6.15-.9-2.8-3.37-3.94-6.15-3.49Z"/><path class="cls-2" d="M198.1,282.15l-39,8.19a1.36,1.36,0,0,0-.87,2.05l12.8,20.53a1.36,1.36,0,0,1-1.77,1.93l-21.4-11.08a1.35,1.35,0,0,0-2,1.06L141.23,350a1.35,1.35,0,0,1-2.67.12l-8.43-44.58a1.35,1.35,0,0,0-2-.9l-20.41,12.83a1.36,1.36,0,0,1-1.92-1.78l11-21.51a1.36,1.36,0,0,0-1-2l-41.88-4.84a1.36,1.36,0,0,1-.11-2.68l41.33-8.3a1.36,1.36,0,0,0,.88-2l-12.79-20.52a1.36,1.36,0,0,1,1.77-1.93l21.39,11.08a1.36,1.36,0,0,0,2-1.07l4.63-46.69a1.35,1.35,0,0,1,2.67-.11l8.5,46.14a1.35,1.35,0,0,0,2,.9l20.39-12.82a1.36,1.36,0,0,1,1.92,1.78l-11.05,21.52a1.37,1.37,0,0,0,1,2L198,279.47A1.36,1.36,0,0,1,198.1,282.15Z"/><path class="cls-2" d="M966.94,728.48l-39,8.19a1.35,1.35,0,0,0-.87,2.05l12.79,20.53a1.35,1.35,0,0,1-1.76,1.93l-21.4-11.08a1.35,1.35,0,0,0-2,1.06l-4.68,45.12a1.36,1.36,0,0,1-2.68.12L899,751.82a1.35,1.35,0,0,0-2.05-.9l-20.4,12.83A1.36,1.36,0,0,1,874.6,762l11-21.51a1.35,1.35,0,0,0-1-2l-41.88-4.84a1.36,1.36,0,0,1-.12-2.68l41.34-8.3a1.36,1.36,0,0,0,.88-2L872,700.1a1.36,1.36,0,0,1,1.77-1.93l21.39,11.08a1.35,1.35,0,0,0,2-1.07l4.63-46.69a1.35,1.35,0,0,1,2.68-.11l8.49,46.14a1.35,1.35,0,0,0,2,.9l20.4-12.82a1.36,1.36,0,0,1,1.92,1.78l-11,21.53a1.36,1.36,0,0,0,1,2l39.53,4.92A1.36,1.36,0,0,1,966.94,728.48Z"/><path class="cls-3" d="M823,430a101.36,101.36,0,1,0,113.63,87.39A101.37,101.37,0,0,0,823,430Zm21.29,163.11a63.13,63.13,0,1,1,54.43-70.77A63.14,63.14,0,0,1,844.29,593.14Z"/><path class="cls-3" d="M690.13,630.4c48.4-6.32,93,15.58,112.62,51.51A55.24,55.24,0,0,0,818.26,630L773.13,430.57l-214.51,28,7.63,205.73a55.26,55.26,0,0,0,28.24,44.8C604.19,669.34,641.72,636.72,690.13,630.4Z"/><path class="cls-4" d="M626.81,569.05a2.45,2.45,0,0,1-1.19-.3l-49.56-27a2.5,2.5,0,0,1,2.39-4.39l49.56,27a2.5,2.5,0,0,1-1.2,4.69Z"/><path class="cls-4" d="M575.43,553.8a2.5,2.5,0,0,1-.65-4.92l13.09-3.51-3.71-11.54a2.5,2.5,0,0,1,4.76-1.53l5.31,16.53-18.15,4.88A2.43,2.43,0,0,1,575.43,553.8Z"/><path class="cls-5" d="M769.29,698.11a58.25,58.25,0,0,0,33.46-16.2C783.17,646,738.53,624.08,690.13,630.4s-85.94,38.94-95.64,78.7A58.35,58.35,0,0,0,631,716.16Z"/><path class="cls-4" d="M721.23,556.73a2.5,2.5,0,0,1-1.72-4.31l41-38.78a2.5,2.5,0,0,1,3.43,3.63l-41,38.78A2.49,2.49,0,0,1,721.23,556.73Z"/><path class="cls-4" d="M767,528.8h0l-18.79-.06.89-17.34a2.48,2.48,0,0,1,2.62-2.37,2.51,2.51,0,0,1,2.37,2.63l-.62,12.1,13.55,0a2.5,2.5,0,0,1,0,5Z"/><circle class="cls-5" cx="677.91" cy="587.05" r="54.35"/><circle class="cls-5" cx="665.06" cy="515.7" r="32.12"/><circle class="cls-4" cx="672.72" cy="566.27" r="5.66"/><circle class="cls-4" cx="675.96" cy="591.11" r="5.66"/><circle class="cls-4" cx="679.21" cy="615.96" r="5.66"/><path class="cls-1" d="M750.94,590.63a2.5,2.5,0,0,1-.32-5l31.49-4.11a2.5,2.5,0,0,1,.65,5l-31.49,4.11Z"/><path class="cls-1" d="M769.4,609.37a2.5,2.5,0,0,1-2.48-2.17l-5.42-41.6a2.5,2.5,0,0,1,5-.65l5.43,41.6a2.49,2.49,0,0,1-2.15,2.8A1.83,1.83,0,0,1,769.4,609.37Z"/><path class="cls-1" d="M758.58,598.65a2.48,2.48,0,0,1-1.52-.52,2.5,2.5,0,0,1-.46-3.51l16.11-20.94a2.5,2.5,0,1,1,4,3.05l-16.11,20.94A2.49,2.49,0,0,1,758.58,598.65Z"/><path class="cls-1" d="M777.18,596.8a2.48,2.48,0,0,1-1.52-.52l-20.95-16.11a2.5,2.5,0,0,1,3-4l21,16.11a2.5,2.5,0,0,1-1.53,4.48Z"/><path class="cls-1" d="M581.85,514.86a2.5,2.5,0,0,1-.32-5L613,505.77a2.5,2.5,0,0,1,.65,5l-31.49,4.11A1.83,1.83,0,0,1,581.85,514.86Z"/><path class="cls-1" d="M600.31,533.61a2.49,2.49,0,0,1-2.47-2.18l-5.43-41.6a2.5,2.5,0,0,1,5-.65l5.43,41.6a2.5,2.5,0,0,1-2.15,2.81Z"/><path class="cls-1" d="M589.49,522.88a2.5,2.5,0,0,1-2-4l16.11-20.95a2.5,2.5,0,1,1,4,3l-16.1,20.94A2.52,2.52,0,0,1,589.49,522.88Z"/><path class="cls-1" d="M608.09,521a2.48,2.48,0,0,1-1.52-.52L585.63,504.4a2.5,2.5,0,1,1,3-4l21,16.11a2.5,2.5,0,0,1-1.53,4.48Z"/><path class="cls-2" d="M665.06,518.2a2.51,2.51,0,0,1-2.48-2.18l-1.37-10.51a2.5,2.5,0,0,1,5-.65l1.37,10.51a2.51,2.51,0,0,1-2.16,2.81Z"/><path class="cls-4" d="M665.19,531.11a25.7,25.7,0,0,1-14-4.7,2.5,2.5,0,0,1,3-4c.56.42,13,9.68,23.06-3a2.5,2.5,0,1,1,3.92,3.09C676,529.11,670.27,531.11,665.19,531.11Z"/><path class="cls-6" d="M558.66,458.84c.5,3.82,3.92,7.08,9.67,9.71l-9.41-12.92A7.82,7.82,0,0,0,558.66,458.84Z"/><path class="cls-6" d="M689.89,465l-1.25-1.47a13.89,13.89,0,0,1-3.47,4.4L681.51,471q6.75-1.08,13.19-2.35A13.77,13.77,0,0,1,689.89,465Z"/><path class="cls-6" d="M604.89,443.31l25.66,1.44a13.87,13.87,0,0,1,10.63,5.95l17.21-14.51A13.92,13.92,0,0,1,678,437.85l1.25,1.48a13.85,13.85,0,0,1,3.46-4.4l19.65-16.57A13.92,13.92,0,0,1,722,420l4.85,5.75,4.49-11.26c-19.09-1.64-43.32-1-69.42,2.44-26.4,3.44-50.23,9.1-68.33,15.68l8,10.91A14,14,0,0,1,604.89,443.31Z"/><path class="cls-6" d="M772.41,430.94a8.21,8.21,0,0,0-1.55-3.76,15.28,15.28,0,0,1-.51,1.58l-6,15C770,439.42,773,435.06,772.41,430.94Z"/><polygon class="cls-3" points="676.47 217.59 645.14 260.57 700.16 265.15 676.47 217.59"/><circle class="cls-5" cx="676.45" cy="217.93" r="15.43"/><path class="cls-2" d="M691.79,329.39a22.93,22.93,0,0,1,28.5-25.15c-.07-1.47-.19-2.95-.38-4.43a53.37,53.37,0,0,0-106,1.12c.43-.08.87-.16,1.31-.21a22.92,22.92,0,0,1,13.41,43.13,53.34,53.34,0,0,0,74.25,2.33A22.87,22.87,0,0,1,691.79,329.39Z"/><path class="cls-1" d="M720.29,304.24a22.92,22.92,0,0,0-17.39,41.94A53.34,53.34,0,0,0,720.29,304.24Z"/><path class="cls-1" d="M640.93,320.48a22.92,22.92,0,0,0-25.69-19.76c-.44,0-.88.13-1.31.21a54,54,0,0,0,.14,12.69,53.12,53.12,0,0,0,14.58,30.23A22.92,22.92,0,0,0,640.93,320.48Z"/><circle class="cls-3" cx="666.44" cy="308.74" r="6.21"/><path class="cls-6" d="M667.07,335.6c-.39,0-.8,0-1.21,0-10.05-.65-15-8.79-15.53-9.72a2.5,2.5,0,1,1,4.33-2.49c.16.28,4,6.73,11.52,7.22,7.9.51,12.6-6,12.65-6.1a2.5,2.5,0,0,1,4.09,2.87C682.67,327.69,677,335.6,667.07,335.6Z"/><path class="cls-2" d="M597.47,341.7l140.79,7.5a16.3,16.3,0,0,1,8,2.45,12.74,12.74,0,0,1,6.13,10.21S754,374.63,740,376.76c-3.08.47-6.17.92-9.23,1.55l-28.23,5.79-.6,59.23L607.4,455.66,615,384.19,584.2,369.76a17.2,17.2,0,0,1-7.94-7.35A16.73,16.73,0,0,1,574.9,359c-.31-1.15-1.18-4.84-.14-8C576.8,344.78,586.07,340.52,597.47,341.7Z"/><path class="cls-5" d="M627.17,342.26a18.68,18.68,0,0,0,16.17,28.84c.68.94,7.37,9.95,19.28,10.06,11.37.1,18.1-8,18.91-9a18.37,18.37,0,0,0,21.37-26S664.56,379.69,627.17,342.26Z"/><circle class="cls-7" cx="658.03" cy="400.38" r="6.61"/><circle class="cls-7" cx="657.6" cy="431.11" r="6.61"/><path class="cls-6" d="M726,452.8l-14.39,12.13c8.9-2.2,17.1-4.64,24.42-7.23l-6-2.38A13.81,13.81,0,0,1,726,452.8Z"/><path class="cls-5" d="M593.56,432.64l-3.85-5.28a13.91,13.91,0,0,0-19.44-3l-11.07,8.07a13.91,13.91,0,0,0-3.05,19.44l2.77,3.8C561.06,448,574,439.76,593.56,432.64Z"/><path class="cls-5" d="M589.45,470.11l.77-13.68a13.9,13.9,0,0,1,11.29-12.88l-8-10.91c-19.61,7.12-32.5,15.33-34.64,23l9.41,12.92c5.32,2.42,12.64,4.3,21.49,5.58A14.05,14.05,0,0,1,589.45,470.11Z"/><path class="cls-5" d="M630.55,444.75l-25.66-1.44a14,14,0,0,0-3.38.24l3.34,4.58a13.91,13.91,0,0,1-3.05,19.44l-9.47,6.91c13.16,1.68,29.44,2.11,47.47,1.1l-2.72-3.22a13.93,13.93,0,0,1,1.67-19.61l2.43-2.05A13.87,13.87,0,0,0,630.55,444.75Z"/><path class="cls-5" d="M604.85,448.13l-3.34-4.58a13.9,13.9,0,0,0-11.29,12.88l-.77,13.68a14.05,14.05,0,0,0,.37,4l2.51.35,9.47-6.91A13.91,13.91,0,0,0,604.85,448.13Z"/><path class="cls-5" d="M688.64,463.54l-7.59-9a13.91,13.91,0,0,1-1.8-15.21L678,437.85a13.92,13.92,0,0,0-19.61-1.66L641.18,450.7a13.82,13.82,0,0,1,2.48,8.72l-.77,13.68a13.51,13.51,0,0,1-.34,2.32c8.56-.54,17.48-1.4,26.63-2.6,4.18-.54,8.29-1.15,12.33-1.8l3.66-3.08A13.89,13.89,0,0,0,688.64,463.54Z"/><path class="cls-5" d="M637.08,472.36l2.72,3.22,2.75-.16a13.51,13.51,0,0,0,.34-2.32l.77-13.68a13.82,13.82,0,0,0-2.48-8.72l-2.43,2.05A13.93,13.93,0,0,0,637.08,472.36Z"/><path class="cls-5" d="M681.05,454.54l7.59,9a13.92,13.92,0,0,0-1.8-15.21l-7.59-9A13.91,13.91,0,0,0,681.05,454.54Z"/><path class="cls-5" d="M770.86,427.18a13.92,13.92,0,0,0-8.28-16.5l-12.74-5.08a13.91,13.91,0,0,0-18.07,7.77l-.46,1.15C751.68,416.27,766.19,420.65,770.86,427.18Z"/><path class="cls-5" d="M770.86,427.18c-4.67-6.53-19.18-10.91-39.55-12.66l-4.49,11.26,4,4.73a13.9,13.9,0,0,1-1.66,19.6L726,452.8a13.81,13.81,0,0,0,4.06,2.52l6,2.38c12.28-4.35,22.06-9.13,28.39-13.95l6-15A15.28,15.28,0,0,0,770.86,427.18Z"/><path class="cls-5" d="M726,452.8l3.19-2.69a13.9,13.9,0,0,0,1.66-19.6l-4-4.73-4.58,11.46A13.91,13.91,0,0,0,726,452.8Z"/><path class="cls-5" d="M722.24,437.24l4.58-11.46L722,420a13.92,13.92,0,0,0-19.61-1.67l-19.65,16.57a13.85,13.85,0,0,0-3.46,4.4l7.59,9a13.92,13.92,0,0,1,1.8,15.21l1.25,1.47a13.77,13.77,0,0,0,4.81,3.66q8.77-1.73,16.86-3.74L726,452.8A13.91,13.91,0,0,1,722.24,437.24Z"/><path class="cls-6" d="M725.37,458.16a2.53,2.53,0,0,1-1.75-.71,19.27,19.27,0,0,1-5.45-9.31c-.8-3.37-.4-6.19,1.22-12.95,1.12-4.69,2.37-9.41,3.72-14a2.5,2.5,0,0,1,4.8,1.4c-1.33,4.55-2.56,9.19-3.66,13.8-1.52,6.38-1.75,8.37-1.21,10.63a14.34,14.34,0,0,0,4.08,6.9,2.5,2.5,0,0,1-1.75,4.28Z"/><path class="cls-6" d="M690,468.69a2.5,2.5,0,0,1-2.16-3.75,13.1,13.1,0,0,0,1.48-3.93,15.94,15.94,0,0,0,.12-4.18c-.36-3.05-3.89-9-10.8-14.89a2.5,2.5,0,1,1,3.24-3.81c7,6,11.94,13.09,12.52,18.12a20,20,0,0,1-.18,5.71,18,18,0,0,1-2,5.48A2.52,2.52,0,0,1,690,468.69Z"/><path class="cls-6" d="M642.56,475.92h-.18a2.51,2.51,0,0,1-2.32-2.67l1.12-16.12c.18-1.59.06-5.27-1.49-6.41a2.5,2.5,0,1,1,3-4c4.18,3.09,3.6,9.89,3.48,11l-1.1,15.94A2.5,2.5,0,0,1,642.56,475.92Z"/><path class="cls-6" d="M589.09,473.67h-.17a2.5,2.5,0,0,1-2.33-2.65l1.13-17.27c.58-10.34,9-14.45,13.38-15.18a2.5,2.5,0,0,1,.83,4.93c-.39.07-8.72,1.66-9.21,10.56l-1.14,17.28A2.5,2.5,0,0,1,589.09,473.67Z"/><path class="cls-1" d="M817.77,631.26a2.51,2.51,0,0,1-2.43-1.91l-9.51-39.16a2.5,2.5,0,0,1,4.86-1.18l9.51,39.16a2.5,2.5,0,0,1-1.84,3A2.44,2.44,0,0,1,817.77,631.26Z"/><path class="cls-1" d="M786,491.19a2.51,2.51,0,0,1-2.44-2L775,450.54a2.5,2.5,0,1,1,4.88-1.08l8.62,38.68a2.49,2.49,0,0,1-1.9,3A2.05,2.05,0,0,1,786,491.19Z"/><path class="cls-5" d="M405.75,415.87l-11.5,33.19,22.6,7.83.9-2.61C411.13,443.68,407.61,428.45,405.75,415.87Z"/><path class="cls-3" d="M425.42,359.12,407,412.33l-1.23,3.54c1.86,12.58,5.38,27.81,12,38.41l11.65-33.6q4-11.6,8-23.21C430.79,386.88,427.28,371.68,425.42,359.12Z"/><path class="cls-5" d="M506.26,311.67l.21.07a10,10,0,0,0,12.5-6.11c1.65-4.57,3.72-10.39,5.7-16.28-8.15,4.23-17.32,9.73-24.76,16.12A10,10,0,0,0,506.26,311.67Z"/><path class="cls-3" d="M462,255q-1,2.28-1.91,4.61c-6.86,17.63-12.92,35.64-19,53.63,1.18,11.86,3.95,29.58,10.36,42.89q3.76-11.07,7.58-22.11c.81-2.37,1.83-5.34,3.16-9.18,5.4-15.55,8.7-25.11,10.7-30.69C466.77,282.74,463.63,267.18,462,255Z"/><path class="cls-3" d="M531.52,264.16a32,32,0,0,0-1.11-11.39c-6.13-21.25-30.94-31.05-49.31-21.06,1.85,9,4.6,18.45,8.69,26.08a10.61,10.61,0,0,1,6.19-3.46c5-.76,10.6,2.27,13,6.29,2.27,3.79,1.59,8.19-3.74,23.53-1.39,4-3.14,8.87-5.26,14.41a10,10,0,0,0-.09,6.91c7.44-6.39,16.61-11.89,24.76-16.12.26-.78.53-1.56.78-2.33C528,279.38,531,271.91,531.52,264.16Z"/><path class="cls-5" d="M481.1,231.71a32.33,32.33,0,0,0-7.05,5.16c-5.27,5.06-9,11.44-12,18.15,1.59,12.16,4.73,27.72,10.92,39.15.6-1.66,1.08-3,1.47-4,6.39-16.65,10.48-27.29,15.36-32.4C485.7,250.16,483,240.73,481.1,231.71Z"/><path class="cls-5" d="M441.16,313.26c-2.68,8-5.36,15.92-8.1,23.84l-7.64,22c1.86,12.56,5.37,27.76,12,38.35q7.08-20.66,14.13-41.32C445.11,342.84,442.34,325.12,441.16,313.26Z"/><path class="cls-7" d="M358.61,716.84,204.4,705.5a45.16,45.16,0,0,1-41.73-48.36l17.41-236.57,244.29,18L407,675.12A45.16,45.16,0,0,1,358.61,716.84Z"/><path class="cls-7" d="M154.39,438A101.36,101.36,0,1,0,248,546.49,101.37,101.37,0,0,0,154.39,438ZM142.32,602a63.13,63.13,0,1,1,67.59-58.33A63.12,63.12,0,0,1,142.32,602Z"/><path class="cls-5" d="M395.68,388.07a37.72,37.72,0,0,0,6.18-18.13l.3-4a38,38,0,0,0-35.06-40.63L363,325a24.75,24.75,0,0,0-.38-10.61c-3.61-13.59-17.84-16.73-34.68-36.69a117.76,117.76,0,0,1-13.07-19,87.23,87.23,0,0,1-13.3,16.4c-19.38,18.67-37.26,18.09-43.23,31.77a22.13,22.13,0,0,0-1.68,10.34L253.3,317A38,38,0,0,0,212.67,352l-.29,4a37.72,37.72,0,0,0,3.46,18.83,38,38,0,0,0-35,35.06l-.29,4a38,38,0,0,0,35.06,40.63l168.6,12.41a38,38,0,0,0,40.63-35.06l.29-4A37.93,37.93,0,0,0,395.68,388.07Z"/><rect class="cls-1" x="253.49" y="330.59" width="10.21" height="26.79" rx="4.85" transform="translate(-171.27 364.46) rotate(-55.79)"/><rect class="cls-3" x="347.01" y="356.53" width="26.79" height="10.21" rx="4.85" transform="translate(-117.91 540.21) rotate(-65.57)"/><rect class="cls-2" x="237.9" y="397.58" width="10.21" height="26.79" rx="4.85" transform="matrix(0.56, -0.83, 0.83, 0.56, -233.49, 380.9)"/><rect class="cls-2" x="290.55" y="358.69" width="26.79" height="10.21" rx="4.85" transform="translate(-169.6 341.88) rotate(-47.47)"/><rect class="cls-1" x="358.58" y="416.52" width="10.21" height="26.79" rx="4.85" transform="translate(341.11 992.59) rotate(-137.47)"/><rect class="cls-7" x="319.07" y="388.98" width="10.21" height="26.79" rx="4.85" transform="translate(-178.15 281.28) rotate(-37.59)"/><rect class="cls-1" x="280.93" y="417.91" width="10.21" height="26.79" rx="4.85" transform="translate(-108.2 766.59) rotate(-96.83)"/><path class="cls-8" d="M312.33,538.2c-5.67-3.42-7.56-9.48-8.08-11.48a18.47,18.47,0,0,1-26.71,5.81c0,.19,0,.38-.05.57l-3.44,46.75,52.29,3.85,3.3-44.81C323.63,541.34,317.22,541.15,312.33,538.2Z"/><polygon class="cls-3" points="307.94 485.54 290.24 514.66 321.23 516.88 307.94 485.54"/><circle class="cls-5" cx="307.93" cy="485.73" r="5.82"/><path class="cls-5" d="M345.3,566.2a27.78,27.78,0,0,0-19,5.7,27.89,27.89,0,0,0-50.25-4,27.88,27.88,0,1,0-27.59,44.87c-.11.73-.2,1.47-.26,2.21a27.88,27.88,0,0,0,48.8,20.4,27.87,27.87,0,0,0,51.25-13c0-.3,0-.6,0-.89a27.89,27.89,0,0,0-3-55.24Z"/><path class="cls-5" d="M305.56,508.87h0a26.23,26.23,0,0,0-28,23.66,18.47,18.47,0,0,0,26.71-5.81c.52,2,2.41,8.06,8.08,11.48,4.89,2.95,11.3,3.14,17.31.69l.14-1.94A26.22,26.22,0,0,0,305.56,508.87Z"/><path class="cls-4" d="M300.74,597.93a18.87,18.87,0,0,1-2.8-.22c-9-1.4-13.24-8.81-14-10.28a2.5,2.5,0,1,1,4.44-2.3c.35.67,3.58,6.59,10.33,7.64a14.4,14.4,0,0,0,14-6.39,2.5,2.5,0,1,1,4.15,2.79A19.61,19.61,0,0,1,300.74,597.93Z"/><path class="cls-2" d="M391.55,508.51l-13.05,1.21a.45.45,0,0,0-.36.64l3.41,7.19a.45.45,0,0,1-.65.57l-6.58-4.44a.45.45,0,0,0-.68.28l-3.24,14.57a.45.45,0,0,1-.88-.07l-1.07-14.88a.44.44,0,0,0-.63-.38l-7.16,3.43a.45.45,0,0,1-.56-.66l4.42-6.61a.44.44,0,0,0-.26-.68l-13.51-3.17a.45.45,0,0,1,.06-.88l13.83-1.15a.45.45,0,0,0,.36-.64l-3.4-7.19a.44.44,0,0,1,.65-.56l6.57,4.43a.45.45,0,0,0,.69-.28l3.27-15.08a.44.44,0,0,1,.88.06l1,15.4a.44.44,0,0,0,.63.38l7.15-3.42a.44.44,0,0,1,.56.65l-4.42,6.62a.44.44,0,0,0,.26.68l12.74,3.1A.45.45,0,0,1,391.55,508.51Z"/><path class="cls-2" d="M233.3,624.2l-13.05,1.21a.45.45,0,0,0-.37.63l3.41,7.2a.44.44,0,0,1-.65.56l-6.57-4.43a.45.45,0,0,0-.69.28l-3.23,14.57a.45.45,0,0,1-.88-.07l-1.07-14.89a.45.45,0,0,0-.64-.37l-7.15,3.42a.44.44,0,0,1-.56-.65l4.42-6.61a.46.46,0,0,0-.27-.69l-13.51-3.16a.45.45,0,0,1,.07-.88l13.82-1.15a.45.45,0,0,0,.37-.64l-3.41-7.19a.44.44,0,0,1,.65-.56l6.58,4.43a.45.45,0,0,0,.68-.28l3.28-15.09a.45.45,0,0,1,.88.07l1,15.4a.44.44,0,0,0,.64.37l7.15-3.42a.45.45,0,0,1,.56.66l-4.43,6.62a.45.45,0,0,0,.27.68l12.73,3.1A.45.45,0,0,1,233.3,624.2Z"/><path class="cls-1" d="M370.74,709.11a2.53,2.53,0,0,1-1.07-.24,239.19,239.19,0,0,0-171.42-13.41,2.5,2.5,0,0,1-1.41-4.8,244.07,244.07,0,0,1,175,13.7,2.5,2.5,0,0,1-1.08,4.75Z"/><path class="cls-1" d="M175.57,484.33h-.18a2.49,2.49,0,0,1-2.31-2.68L176,442.5a2.5,2.5,0,1,1,5,.37L178.06,482A2.49,2.49,0,0,1,175.57,484.33Z"/><path class="cls-1" d="M164.07,640.58h-.18a2.5,2.5,0,0,1-2.31-2.68l2.88-39.15a2.5,2.5,0,1,1,5,.37l-2.88,39.15A2.51,2.51,0,0,1,164.07,640.58Z"/></svg>