<svg id="Layer_2" data-name="Layer 2" xmlns="http://www.w3.org/2000/svg" viewBox="0 0 1000 1000"><defs><style>.cls-1{fill:#ee9334;}.cls-2{fill:#fd510c;}.cls-3{fill:#edead9;}.cls-4{fill:#ffaabe;}.cls-5{fill:#bc4632;}.cls-6{fill:#3a140f;}.cls-7{fill:#f19400;}.cls-8{fill:#129277;}.cls-9{fill:#ff968e;}.cls-10{fill:none;}</style></defs><path class="cls-1" d="M538.42,132.14l-28.56,4.75a1,1,0,0,0-.69,1.46l8.67,15.23a1,1,0,0,1-1.34,1.34l-15.21-8.66a1,1,0,0,0-1.46.72l-4.76,32.48a1,1,0,0,1-1.95,0L488.35,147a1,1,0,0,0-1.46-.72l-15.21,8.66a1,1,0,0,1-1.34-1.34L479,138.36a1,1,0,0,0-.7-1.46L448,132.15a1,1,0,0,1,0-2l30.27-4.76A1,1,0,0,0,479,124l-8.67-15.22a1,1,0,0,1,1.34-1.35l15.2,8.66a1,1,0,0,0,1.46-.72l4.78-33.61a1,1,0,0,1,1.95,0l4.77,33.61a1,1,0,0,0,1.46.72l15.2-8.65a1,1,0,0,1,1.34,1.34L509.17,124a1,1,0,0,0,.69,1.45l28.56,4.75A1,1,0,0,1,538.42,132.14Z"/><path class="cls-2" d="M302.22,798.62c-31.51,37-57.89,0-57.89,0-20.41,24.25-47,16.3-60.94,9.5v81.42a18.25,18.25,0,0,0,18.25,18.24H346.53V816.21C320.61,822.17,302.22,798.62,302.22,798.62Z"/><path class="cls-3" d="M201.64,764.22a18.25,18.25,0,0,0-18.25,18.25v25.65c13.92,6.8,40.53,14.75,60.94-9.5,0,0,26.38,37,57.89,0,0,0,18.39,23.55,44.31,17.59v-52Z"/><rect class="cls-4" x="264.96" y="764.22" width="14.68" height="143.56"/><path class="cls-4" d="M274.61,759.22l-.32-.17c-.56-.25.89.72.7.55-.56-.5.46.64.49.68a1.76,1.76,0,0,1-.21-.38c0,.1.49,1.45.32.73,0-.17-.09-.34-.13-.51-.12-.47-.19-1-.27-1.43-.12-.78,0-.14,0,.34,0-.34-.08-.68-.13-1-.1-.83-.2-1.66-.31-2.49-.2-1.61-.41-3.22-.62-4.83-.78-5.9-1.55-11.82-2.87-17.63-2.63-11.57-7.84-23.56-18.62-29.68-6.67-3.8-16.31-6.07-23.1-1.33-7.79,5.44-9.41,15.76-6.84,24.43,2.36,8,7.71,14.84,13.41,20.72a151.21,151.21,0,0,0,14.56,13.14c4.4,3.47,9.41,7.15,15,8.33a12.45,12.45,0,0,0,9.21-1.12c3.84-2.38,5.27-6.65,5.75-10.92.18-1.6.22-3.22.38-4.82.05-.54.13-1.08.18-1.62s-.11.79-.09.69,0-.34.07-.51.09-.6.14-.91a73.37,73.37,0,0,1,1.66-7.59,80.39,80.39,0,0,1,2.56-7.73c.25-.66.56-1.31.79-2,0,0-.44,1-.2.49l.18-.41c.16-.38.33-.75.5-1.12.59-1.29,1.22-2.57,1.89-3.82a62.42,62.42,0,0,1,4.36-7.07c.21-.28.41-.57.62-.84L294,719c.38-.51-.65.8-.24.31s.87-1.07,1.31-1.59c.89-1,1.81-2,2.79-3,.44-.42.9-.84,1.36-1.25l.76-.64c.17-.14,1.16-.94.48-.4s.12-.08.28-.19l.8-.56c.53-.36,1.08-.71,1.63-1s1.12-.63,1.69-.92l.74-.36.5-.22c.61-.29-.3.14-.44.18,1.23-.32,2.39-.88,3.64-1.18.59-.14,1.17-.25,1.76-.35,1.09-.2-1,.08-.08,0l1.12-.1a25.64,25.64,0,0,1,3.92,0c1.27.11-.68-.17.24,0,.42.1.83.18,1.24.3s.68.24,1,.34c.66.2-.8-.41-.19-.08l.64.32c.38.2.74.41,1.09.64l.44.31c.47.31-.31-.21-.31-.24a11.23,11.23,0,0,0,.91.85l.36.39c.75.81-.33-.57,0,0,.19.36.43.71.63,1.07.41.74-.16-.69.09.25.13.47.24.94.35,1.41s0-.28,0-.3a2.73,2.73,0,0,1,0,1c0,.42-.05.84-.06,1.26,0,.75.18-.81,0-.07,0,.2-.07.42-.12.62a20.44,20.44,0,0,1-.82,2.9c-.1.27-.2.54-.31.81,0,.07-.31.73-.07.2s-.07.13-.1.19l-.36.77c-.17.35-.35.69-.53,1-.41.78-.85,1.54-1.31,2.29-1.08,1.79-2.25,3.52-3.46,5.23-.7,1-1.42,2-2.16,2.93l-.24.32c-.49.64.25-.32.28-.37l-.51.66c-.43.55-.87,1.1-1.32,1.64a125,125,0,0,1-11.27,12.19q-3,2.84-6.24,5.41c-.94.74.67-.5,0,0l-.81.61c-.54.39-1.08.78-1.63,1.16-1.06.73-2.15,1.44-3.26,2.09s-2.06,1.17-3.12,1.69l-.8.38-.35.16c-.71.33.49-.21.51-.21-.53.17-1.05.42-1.58.61a25.75,25.75,0,0,1-3.12.87l-.76.14c-.91.17.78-.07.46-.06-.53,0-1.06.1-1.59.11s-.9,0-1.35,0c-.24,0-.48-.06-.72-.07.35,0,1.34.22.53,0a13.28,13.28,0,0,1-1.38-.35l-.58-.19c-1.06-.36.84.38.26.11-2.38-1.08-5.5-.76-6.84,1.79-1.16,2.2-.75,5.69,1.79,6.85,9.86,4.5,20.37-.44,28.46-6.38a118.7,118.7,0,0,0,24.24-24.69A72.74,72.74,0,0,0,329,726.5a28.52,28.52,0,0,0,3.51-11.75,15.54,15.54,0,0,0-5-12.14c-5.61-5-13.4-5.7-20.49-4.11a34.44,34.44,0,0,0-15.11,8.18c-8.72,7.73-14.34,18.9-17.77,29.87A75.39,75.39,0,0,0,271,752.42c-.06.66-.1,1.32-.14,2s-.07,1.05-.11,1.57c0,.22,0,.44-.07.67.08-.73,0-.23-.06.2s-.27.86-.34,1.28c-.12.69.3-.46,0,0-.07.11-.12.24-.19.36s-.74,1.07-.16.36-.08.05-.23.21-.28.2-.34.3.92-.57.57-.46a2.67,2.67,0,0,0-.66.37c.29-.27,1.2-.39.4-.2l-.42.1c-.61.21.59-.08.68-.07-.49-.06-1.1,0-1.6,0-.81,0,1.17.26.37,0-.32-.08-.66-.13-1-.21-.56-.15-1.1-.33-1.64-.52l-.38-.15c-.75-.28.38.15.43.19-.31-.19-.69-.32-1-.48a36.43,36.43,0,0,1-3.4-1.9c-1.11-.7-2.19-1.44-3.25-2.22l-.74-.55c-.69-.52.86.68.21.16-.45-.36-.91-.72-1.35-1.09a147.15,147.15,0,0,1-15.25-14.18c-.61-.66-1.2-1.34-1.79-2-.31-.37-.62-.74-.92-1.12-.13-.16-.25-.33-.39-.49-.49-.59.69.94-.1-.13a52.65,52.65,0,0,1-3.08-4.6c-.48-.83-.94-1.67-1.36-2.52-.19-.38-.36-.77-.55-1.15-.34-.68.25.71,0,0-.09-.27-.21-.54-.31-.82a25.27,25.27,0,0,1-.82-2.73c-.12-.5-.23-1-.31-1.5,0-.22-.08-.43-.11-.65.16,1.06,0,0,0-.19a20.4,20.4,0,0,1,0-2.82c0-.28.05-.57.07-.86,0,.08-.16.83,0,.26s.22-1.14.38-1.7c.1-.37.22-.74.34-1.11.06-.16.38-.9.1-.28s0,0,.06-.09c.17-.34.34-.67.53-1s.28-.42.41-.64c.3-.5.06-.21-.12.11a5.42,5.42,0,0,1,.88-1l.4-.38c.55-.55-.14,0-.14.07s.82-.53.94-.6.49-.25.73-.38c-.38.2-.59.21-.07.06a13.15,13.15,0,0,1,1.37-.36,2.05,2.05,0,0,1,.6-.11s-.92.05-.32.06a13.21,13.21,0,0,1,3.08.07c-.86-.23-.12,0,.31.08s.94.21,1.41.33q1.2.33,2.37.75c.18.07.71.39.88.35-.07,0-1.12-.51-.33-.14l.42.2c.65.3,1.28.63,1.9,1s1.19.72,1.76,1.11c.24.17.47.35.72.51.53.36-.8-.65-.32-.24l.46.37a25.75,25.75,0,0,1,2.9,2.82c.42.47.78,1,1.21,1.45,0,0-.65-.88-.34-.43l.34.47c.2.27.39.55.58.83a35.12,35.12,0,0,1,2.09,3.55c.32.62.63,1.24.92,1.87.12.28.24.55.37.83s.14.73-.15-.37a5.42,5.42,0,0,0,.22.56c.53,1.33,1,2.67,1.44,4a106.89,106.89,0,0,1,3.58,16.73l.27,1.93c.05.34.1.68.14,1,.16,1.14-.11-.85,0,0,.17,1.32.35,2.64.52,4,.42,3.18.58,6.5,1.31,9.63a7.57,7.57,0,0,0,3.77,5.16c2.35,1.13,5.51.72,6.84-1.8C277.58,763.82,277.12,760.44,274.61,759.22Z"/><rect class="cls-5" x="430.64" y="675.31" width="116.61" height="196.93"/><path class="cls-6" d="M532.8,755.92a2.5,2.5,0,0,1-2.5-2.5V679a2.5,2.5,0,0,1,5,0v74.46A2.5,2.5,0,0,1,532.8,755.92Z"/><path class="cls-6" d="M455.52,872.4a2.5,2.5,0,0,1-2.5-2.5V733.52a2.5,2.5,0,0,1,5,0V869.9A2.5,2.5,0,0,1,455.52,872.4Z"/><path class="cls-6" d="M514.05,777.15a2.5,2.5,0,0,1-2.5-2.5V679a2.5,2.5,0,1,1,5,0v95.69A2.5,2.5,0,0,1,514.05,777.15Z"/><path class="cls-6" d="M676.23,738.46a2.5,2.5,0,0,1-2.5-2.5V338.1a2.5,2.5,0,0,1,5,0V736A2.5,2.5,0,0,1,676.23,738.46Z"/><circle class="cls-1" cx="686.93" cy="447.81" r="10.71"/><circle class="cls-2" cx="686.93" cy="542.41" r="10.71"/><circle class="cls-4" cx="686.93" cy="707.46" r="10.71"/><rect class="cls-4" x="595.94" y="735.96" width="140.5" height="171.82"/><path class="cls-7" d="M736.42,907.78c7.35-50.65-31.22-92-69.52-92.34-38.68-.36-78.3,41.11-71,92.34Z"/><path class="cls-7" d="M596,736c-7.35,50.65,31.22,92,69.51,92.35,38.69.36,78.31-41.11,71-92.35Z"/><path class="cls-8" d="M667.46,906.69a2.5,2.5,0,0,1-2.5-2.5v-165a2.5,2.5,0,0,1,5,0v165A2.5,2.5,0,0,1,667.46,906.69Z"/><path class="cls-3" d="M696.56,816.85a11.06,11.06,0,0,0-5.56-9.6,10.57,10.57,0,0,0,.12-1.49A11.09,11.09,0,0,0,680,794.67a10.45,10.45,0,0,0-1.49.11,11.07,11.07,0,0,0-20,1.66,10.92,10.92,0,0,0-4.68-1.05,11.1,11.1,0,0,0-11.09,11.09,11.35,11.35,0,0,0,.1,1.44,11.06,11.06,0,0,0-1,17.06,11.08,11.08,0,0,0,15.34,15.34,11.08,11.08,0,0,0,20.54,2.25,11,11,0,0,0,4.37.9,11.08,11.08,0,0,0,9.21-17.26A11.08,11.08,0,0,0,696.56,816.85Z"/><path class="cls-4" d="M670.61,831.47a8.86,8.86,0,0,1-5.62-2.3A10.57,10.57,0,0,1,654.55,826a10.68,10.68,0,0,1-.4-13.54,2.5,2.5,0,0,1,4,3A5.53,5.53,0,0,0,664.7,824l1.72-.73,1.18,1.45c.41.49,1.91,1.89,3.25,1.72a3.55,3.55,0,0,0,3-2.51,2.5,2.5,0,0,1,4.8,1.4,8.52,8.52,0,0,1-7.16,6.07A6.24,6.24,0,0,1,670.61,831.47Z"/><path class="cls-8" d="M641.21,465.88H355.29l-75,158.46c-8.56,18.09-6.83,39.59,5.12,55.64,29.09,39.06,86.82,5.75,86.82,5.75,7.54,5.93,28.74,20.92,58.72,20.72,28.69-.19,49.05-14.18,56.73-20.09,8,6.17,33.83,24.22,68.91,20.63,24.68-2.52,42.41-14.57,50.84-21.26,24.79,9,44.18,10.77,59.32,8.38,35.4-5.58,55.68-43.5,41.25-76.3Z"/><path class="cls-8" d="M563.84,307.2H422.21L342.74,456.65a26.42,26.42,0,0,0-1,22.87c29.22,67.4,98.44,26,98.44,26,60.68,59,115.84,0,115.84,0,48.29,27.23,77.12-3.52,89.79-23.68a26.6,26.6,0,0,0,.67-27.18Z"/><path class="cls-8" d="M490.8,172.94l-69.63,124a13.65,13.65,0,0,0,.31,13.83c23.68,38.44,72.44,11.2,72.44,11.2,1.76,1.1,29.89,18,56.76,4.08A51.44,51.44,0,0,0,568,311.29a13.62,13.62,0,0,0,.95-15.08L497.12,172.89A3.64,3.64,0,0,0,490.8,172.94Z"/><path class="cls-6" d="M492.12,258.09a84.65,84.65,0,0,1-16.53-1.63c-16-3.2-25.72-9.87-26.13-10.15a2.5,2.5,0,0,1,2.85-4.11h0c.09.06,9.45,6.44,24.48,9.4,20.1,4,40.26.27,59.94-11a2.5,2.5,0,1,1,2.48,4.34C521.59,255,505.34,258.09,492.12,258.09Z"/><path class="cls-6" d="M453.56,423.73a303,303,0,0,1-60.34-6c-16.57-3.4-26-7-26.37-7.12a2.5,2.5,0,1,1,1.79-4.67c.37.14,38.06,14.28,94.07,12.61a320.28,320.28,0,0,0,97.13-18.27c39.48-13.94,77.34-35.78,112.53-64.92a2.5,2.5,0,0,1,3.19,3.86c-35.7,29.55-74.12,51.69-114.21,65.82a324.8,324.8,0,0,1-98.73,18.51Q458,423.74,453.56,423.73Z"/><circle class="cls-1" cx="473.08" cy="266.13" r="10.71"/><circle class="cls-3" cx="424.82" cy="431.94" r="10.71"/><circle class="cls-2" cx="506.17" cy="428.94" r="10.71"/><circle class="cls-4" cx="580.48" cy="408.32" r="10.71"/><circle class="cls-4" cx="518.99" cy="264.63" r="10.71"/><path class="cls-6" d="M527.45,334.32a58.75,58.75,0,0,1-9.21-.74,72.34,72.34,0,0,1-24.46-8.78c-19.55,9.43-36.74,11.71-51.09,6.78a41.43,41.43,0,0,1-23.14-19.25,2.5,2.5,0,0,1,4.5-2.17,37.13,37.13,0,0,0,20.36,16.73c13.34,4.54,29.62,2.12,48.4-7.18l1.29-.64,1.2.8a67.18,67.18,0,0,0,23.89,8.79c18,2.82,33.43-3.12,45.81-17.62a2.5,2.5,0,1,1,3.81,3.25C555.34,330.06,540,334.31,527.45,334.32Z"/><path class="cls-6" d="M497.4,534.37c-1.3,0-2.59,0-3.89-.11-28.72-1.6-48.68-20.28-53.91-25.71-24.7,12.26-46.44,15.2-64.63,8.73a55.21,55.21,0,0,1-30.73-27.2,2.5,2.5,0,0,1,4.58-2,51,51,0,0,0,27.91,24.54c17.24,6.09,38.2,2.94,62.29-9.36l1.75-.89,1.28,1.48c.2.23,21,23.75,51.79,25.44,20.46,1.12,40.82-7.5,60.47-25.64l1.48-1.37,1.65,1.16c.21.14,21.14,14.53,45.29,9.37,16.44-3.51,30.68-15.14,42.33-34.58a2.5,2.5,0,1,1,4.29,2.57c-12.41,20.7-27.76,33.12-45.63,36.91-22.46,4.78-41.74-5.56-47.46-9.08C537.23,525.72,517.45,534.37,497.4,534.37Z"/><path class="cls-4" d="M500,777.54a13.33,13.33,0,0,0-13.32-13.32H346.53v26.5H500Z"/><rect class="cls-2" x="346.53" y="790.72" width="153.49" height="31.15"/><rect class="cls-3" x="412.86" y="764.22" width="20.11" height="57.65"/><path class="cls-6" d="M152,330h25.9a32.5,32.5,0,0,0,32.5-32.51V262.86a15,15,0,0,0-15-15H149.27a15,15,0,0,0-15,15v49.37A17.79,17.79,0,0,0,152,330Z"/><path class="cls-3" d="M106.26,850.9l44.29,47.88a22.34,22.34,0,0,1,3.9,5.06c4.28,7.66-3.83,16.35-11.89,12.87L39.88,872.31a11.15,11.15,0,0,1-6-14.22L46.1,826Z"/><path class="cls-8" d="M34.31,833.56,120,858.76,221.19,498.94H137.46Q85.89,666.25,34.31,833.56Z"/><path class="cls-6" d="M127,834.66a2.44,2.44,0,0,1-.71-.1L43.75,810a2.5,2.5,0,1,1,1.43-4.79l82.56,24.6a2.5,2.5,0,0,1-.71,4.89Z"/><path class="cls-5" d="M157.14,335.27h38.91A17.31,17.31,0,0,0,213.37,318V266.1H157.14Z"/><circle class="cls-5" cx="155.46" cy="304.88" r="11.73"/><path class="cls-6" d="M155.06,310.11a5.12,5.12,0,0,1-.87-.08,4.78,4.78,0,1,1,.87.08Zm0-6.59a1.79,1.79,0,1,0,.33,0A1.84,1.84,0,0,0,155.05,303.52Z"/><path class="cls-6" d="M148.61,305.76a1.56,1.56,0,0,1-.59-.12,1.51,1.51,0,0,1-.79-2,6.58,6.58,0,0,1,6.12-4h.06a6.62,6.62,0,0,1,6.14,3.93,1.5,1.5,0,0,1-2.75,1.22,3.76,3.76,0,0,0-6.81,0A1.51,1.51,0,0,1,148.61,305.76Z"/><path class="cls-6" d="M199.34,323a11.44,11.44,0,0,1-9.19-4.74,2.5,2.5,0,0,1,4-3,6.44,6.44,0,0,0,6.17,2.63,6.68,6.68,0,0,0,4.42-3.25,2.5,2.5,0,0,1,4.39,2.39,11,11,0,0,1-9.82,5.94Z"/><rect class="cls-5" x="157.14" y="330.02" width="34.33" height="21.4"/><path class="cls-6" d="M191.47,335.27H169.09a.88.88,0,0,0-.31,1.71l22.69,8.44Z"/><path class="cls-1" d="M108.49,498.93h112.7q-.78-57.65-1.58-115.29a39.46,39.46,0,0,0-39.13-38.93c-1.19,0-4.12-.12-9-.23-22.8-.52-28.53-.86-33.38-.44-1.24.11-1.86.18-2.53.29-11.36,1.77-18.87,9.38-21.37,11.91-8.67,8.79-12.37,20.85-14.14,30.9C93.18,426.54,106.54,489.93,108.49,498.93Z"/><path class="cls-3" d="M225.3,871.24l58.8,28.25a22.45,22.45,0,0,1,5.49,3.26c6.8,5.55,2.45,16.62-6.33,16.34l-111.82-3.53a11.14,11.14,0,0,1-10.8-11l-.43-34.31Z"/><path class="cls-5" d="M272.54,366.58,291.15,336A14.21,14.21,0,0,1,305,329.23l16.62,1.87s4.68,0,6,4.34c.36,1.2.68,2.41,1.12,3.58l3.46,9.39a4.13,4.13,0,0,1-6.61,4.53h0a69.17,69.17,0,0,0-5.89-4.79l-1-.74a10.08,10.08,0,0,0-10.81-.55l-2.19,1.25a4.75,4.75,0,0,0-2.09,5.82h0a4,4,0,0,0,4.43,2.53l15.91-2.75a10.58,10.58,0,0,1,2.94-.09,4.81,4.81,0,0,1,1.61,9.05h0s2.35,4-2.48,7.31L296,387.22Z"/><path class="cls-8" d="M151.61,872.24h86.28l-16.7-373.3H108.49a164.66,164.66,0,0,0-3.33,24.54c-2.55,42.59,12.26,75.23,15.44,82.81C132.44,634.58,145.13,703.05,151.61,872.24Z"/><path class="cls-6" d="M208.23,243c-1.88-7.61-10-13.34-19.72-13.34-7.54,0-14.11,3.45-17.56,8.54-3.66-4.55-10-7.57-17.17-7.57-11.33,0-20.52,7.48-20.52,16.72a11.5,11.5,0,0,0,.08,1.17C125,251,119.9,259.33,121.52,267.31,123,274.62,129.9,280.74,138,280A15.59,15.59,0,0,0,151.85,264c.37,7.73,8,13.9,17.31,13.9,7.28,0,13.5-3.74,16.07-9.05,1.18,1.33,8.3,9.16,19.44,9.05,2.51,0,12.66-.12,17.8-8.39a17.64,17.64,0,0,0-.15-18.95C217.5,243.46,209.12,243.06,208.23,243Z"/><path class="cls-6" d="M235,849.3H150.8a2.5,2.5,0,1,1,0-5H235a2.5,2.5,0,0,1,0,5Z"/><path class="cls-6" d="M146,769.06a2.51,2.51,0,0,1-2.48-2.16C131.1,675.43,123,624,119.34,614.16l-.08-.21c-2.16-5.81-4.22-12.32-5.94-18.82-1.06-4-2-8.06-2.83-12.09a2.5,2.5,0,0,1,4.9-1c.8,3.93,1.73,7.9,2.76,11.8,1.69,6.35,3.69,12.69,5.8,18.35l.08.23c3.81,10.37,11.8,60.67,24.42,153.8a2.49,2.49,0,0,1-2.14,2.81A2,2,0,0,1,146,769.06Z"/><path class="cls-4" d="M237,894.38a2.33,2.33,0,0,1-1-.2,2.5,2.5,0,0,1-1.35-3.27l4.71-11.26a2.5,2.5,0,0,1,4.62,1.93l-4.71,11.26A2.5,2.5,0,0,1,237,894.38Z"/><path class="cls-4" d="M249.82,900a2.33,2.33,0,0,1-1-.2,2.48,2.48,0,0,1-1.34-3.27l4.71-11.26a2.5,2.5,0,0,1,4.61,1.93l-4.71,11.26A2.5,2.5,0,0,1,249.82,900Z"/><path class="cls-4" d="M111.18,878.44a2.5,2.5,0,0,1-1.91-4.12l7.9-9.3a2.5,2.5,0,1,1,3.81,3.23l-7.9,9.31A2.49,2.49,0,0,1,111.18,878.44Z"/><path class="cls-4" d="M121.67,887.68a2.49,2.49,0,0,1-1.9-4.12l7.9-9.3a2.5,2.5,0,1,1,3.81,3.24l-7.9,9.3A2.51,2.51,0,0,1,121.67,887.68Z"/><path class="cls-1" d="M211.5,417.21,159,357.2a28.53,28.53,0,0,0-29.78-8.68,35.06,35.06,0,0,0-9.65,4.68c-.43.29-.85.59-1.25.9-13.19,9.93-14.73,29.2-3.85,41.61l56.68,64.67c11.33,7.06,25.45,6.67,35-.69C218.19,450.46,221.27,431.63,211.5,417.21Z"/><path class="cls-1" d="M266.85,361.58,226,402.68h0l-54.77,57.7L181,471.56a49,49,0,0,0,5.76,5.67,45.79,45.79,0,0,0,17.14,8.87c8.07,2.15,18.07,2.46,27.36-3.82a32.86,32.86,0,0,0,6.4-5.84l68.49-80.3Z"/><path class="cls-6" d="M214.05,489.94a42.92,42.92,0,0,1-21-6,60.3,60.3,0,0,1-13.88-10.73l-45.43-51.83a2.5,2.5,0,0,1,3.76-3.3l45.4,51.8c.16.18,19.73,21.27,41.55,13.15a2.5,2.5,0,1,1,1.75,4.69A34.45,34.45,0,0,1,214.05,489.94Z"/><path class="cls-6" d="M211.38,420.87l-26.66-30.49a2.5,2.5,0,1,1,3.76-3.29l23.13,26.46,10.81-10.86a2.5,2.5,0,1,1,3.54,3.53Z"/><path class="cls-6" d="M326.65,373.62a1.5,1.5,0,0,1-1.5-1.5V354a1.5,1.5,0,0,1,3,0v18.14A1.5,1.5,0,0,1,326.65,373.62Z"/><path class="cls-1" d="M330.36,380.1h-8v-5.58a2.4,2.4,0,0,1,2.39-2.4H328a2.4,2.4,0,0,1,2.39,2.4Z"/><path class="cls-4" d="M329,397l.15.18c0,.05,4.64,5.65,10.27,5.65h0c3.22,0,6.39-1.9,9.43-5.67a3.63,3.63,0,0,1,.34-.34,22.91,22.91,0,0,0-44-6.22,17.62,17.62,0,0,1,6.93-1.87C318,388.45,323.67,391.23,329,397Z"/><path class="cls-4" d="M339.32,409.86c-8.54,0-14.74-7.15-15.59-8.18-3.78-4.11-7.54-6.14-11.23-5.94-4.18.2-7.5,3.15-9,4.73a22.91,22.91,0,0,0,44.3,7,16.09,16.09,0,0,1-8.42,2.43Z"/><path class="cls-2" d="M349.15,396.85a3.63,3.63,0,0,0-.34.34c-3,3.77-6.21,5.67-9.43,5.67h0c-5.63,0-10.23-5.6-10.27-5.65L329,397c-5.29-5.8-11-8.58-16.86-8.27a17.62,17.62,0,0,0-6.93,1.87,22.71,22.71,0,0,0-1.7,8.67q0,.58,0,1.17c1.5-1.58,4.82-4.53,9-4.73,3.69-.2,7.45,1.83,11.23,5.94.85,1,7,8.15,15.59,8.18h.06a16.09,16.09,0,0,0,8.42-2.43,22.87,22.87,0,0,0,1.49-8.13A21.94,21.94,0,0,0,349.15,396.85Z"/><path class="cls-6" d="M890.17,840.58l-44.29,47.89a22.33,22.33,0,0,0-3.91,5c-4.28,7.66,3.84,16.36,11.89,12.87L956.55,862a11.17,11.17,0,0,0,6-14.22l-12.22-32.06Z"/><path class="cls-8" d="M873.05,488.63H775.23c-1.58-3.76-4-9.74-6.75-17.17-12-32.85-18.06-49.28-12.91-64.14,2.35-6.79,6.49-13,14.87-25.25,4-5.86,6.82-9.41,10.94-14.77,5.67-7.38,13.8-18.22,23.57-32.2L860.84,334a35.56,35.56,0,0,1,35.5,42.81Q884.7,432.74,873.05,488.63Z"/><path class="cls-5" d="M835.58,323.71h-20a32.52,32.52,0,0,1-32.51-32.51V263.28a21.77,21.77,0,0,1,21.77-21.77h35.59a21.77,21.77,0,0,1,21.77,21.77v33.83A26.6,26.6,0,0,1,835.58,323.71Z"/><path class="cls-9" d="M797.63,255.6h41.66a0,0,0,0,1,0,0V325a0,0,0,0,1,0,0H800.37a17.32,17.32,0,0,1-17.32-17.32V270.18A14.58,14.58,0,0,1,797.63,255.6Z"/><path class="cls-5" d="M841.27,284.47H827.33a23.26,23.26,0,0,1-23.26-23.26V249.26h37.2Z"/><ellipse class="cls-5" cx="912.54" cy="341.1" rx="24.72" ry="67.33" transform="translate(69.13 828.68) rotate(-50.53)"/><path class="cls-2" d="M796.47,312.7l-.78,0a11.72,11.72,0,0,1-8.5-5,2.5,2.5,0,0,1,4.13-2.82,6.65,6.65,0,0,0,4.72,2.8,6.41,6.41,0,0,0,5.88-3.22,2.5,2.5,0,0,1,4.3,2.55A11.36,11.36,0,0,1,796.47,312.7Z"/><rect class="cls-9" x="804.95" y="319.71" width="34.33" height="21.4"/><path class="cls-2" d="M805,325h21.93a.93.93,0,0,1,.33,1.81L805,335.1Z"/><path class="cls-4" d="M951.48,826.51,884.8,847a11.49,11.49,0,0,1-14.45-8q-47.57-175.2-95.12-350.41h97.82a164.9,164.9,0,0,1,18.18,31.52,169.94,169.94,0,0,1,13.71,57.62c1.8,24.67,13.18,84.1,54.24,234.75A11.48,11.48,0,0,1,951.48,826.51Z"/><path class="cls-6" d="M771.12,860.93l-58.79,28.24a22.41,22.41,0,0,0-5.5,3.26c-6.79,5.55-2.44,16.62,6.33,16.35L825,905.25a11.17,11.17,0,0,0,10.81-11l.43-34.31Z"/><path class="cls-4" d="M835.25,861.92H769.5A10.48,10.48,0,0,1,759,851l16.2-362.34h97.82a193.17,193.17,0,0,1,5.35,21.76c7.7,41.57-.27,75-2.57,85.58-8.38,38.6-18.29,128.23-30.14,256.42A10.49,10.49,0,0,1,835.25,861.92Z"/><path class="cls-2" d="M873.86,534.62c-10.55,0-19.31-3.13-26.08-9.32C834,512.68,833.54,492,833.53,491.13a2.5,2.5,0,0,1,5-.07h0c0,.2.45,19.43,12.65,30.57,6.61,6,15.56,8.67,26.59,7.84a2.5,2.5,0,0,1,.38,5C876.69,534.57,875.26,534.62,873.86,534.62Z"/><circle class="cls-9" cx="840.96" cy="294.56" r="11.73"/><path class="cls-2" d="M838.37,299.79a4.79,4.79,0,1,1,4.72-5.66h0a4.81,4.81,0,0,1-3.86,5.58A5.1,5.1,0,0,1,838.37,299.79Zm0-6.59a1.73,1.73,0,0,0-.32,0,1.79,1.79,0,1,0,2.09,1.44A1.81,1.81,0,0,0,838.37,293.2Z"/><path class="cls-2" d="M844.81,295.44a1.5,1.5,0,0,1-1.38-.91,3.64,3.64,0,0,0-3.39-2.2h0a3.64,3.64,0,0,0-3.39,2.14,1.5,1.5,0,0,1-2.74-1.21,6.58,6.58,0,0,1,6.13-3.93h.06a6.58,6.58,0,0,1,6.12,4,1.49,1.49,0,0,1-.79,2A1.52,1.52,0,0,1,844.81,295.44Z"/><path class="cls-2" d="M853.06,777.83l-.32,0a2.51,2.51,0,0,1-2.17-2.8l22.8-179.57.07-.2c16.41-54-2.53-105.22-2.73-105.73a2.5,2.5,0,0,1,4.68-1.77c.2.53,19.71,53.2,2.89,108.75L855.54,775.64A2.52,2.52,0,0,1,853.06,777.83Z"/><path class="cls-9" d="M728.22,353.31l-18.61-30.63A14.21,14.21,0,0,0,695.79,316l-16.63,1.86s-4.68,0-6,4.35c-.36,1.19-.68,2.41-1.11,3.58l-3.47,9.39a4.14,4.14,0,0,0,6.62,4.53v0a67.18,67.18,0,0,1,5.89-4.78l1-.74a10.06,10.06,0,0,1,10.81-.55l2.2,1.25a4.76,4.76,0,0,1,2.09,5.82h0a4,4,0,0,1-4.44,2.52l-15.91-2.74a10.58,10.58,0,0,0-2.94-.09,4.81,4.81,0,0,0-1.61,9.05h0s-2.34,4,2.48,7.31l29.93,17.24Z"/><path class="cls-4" d="M742.82,892.67a2.5,2.5,0,0,1-2.23-1.37L735,880.44a2.5,2.5,0,1,1,4.45-2.28L745,889a2.49,2.49,0,0,1-1.09,3.36A2.42,2.42,0,0,1,742.82,892.67Z"/><path class="cls-4" d="M755.38,886.52a2.49,2.49,0,0,1-2.23-1.36l-5.56-10.86A2.5,2.5,0,1,1,752,872l5.56,10.86a2.5,2.5,0,0,1-1.08,3.37A2.61,2.61,0,0,1,755.38,886.52Z"/><path class="cls-4" d="M874.56,881.25a2.47,2.47,0,0,1-1.65-.63l-9.15-8.08a2.5,2.5,0,1,1,3.31-3.74l9.15,8.07a2.5,2.5,0,0,1-1.66,4.38Z"/><path class="cls-4" d="M884,870.93a2.51,2.51,0,0,1-1.65-.63l-9.15-8.07a2.5,2.5,0,0,1,3.31-3.75l9.15,8.07a2.5,2.5,0,0,1-1.66,4.38Z"/><polygon class="cls-10" points="789.38 403.8 783.29 397.94 789.26 403.94 789.38 403.8"/><polygon class="cls-8" points="783.29 397.94 769.38 383.96 769.47 384.65 783.29 397.94"/><path class="cls-8" d="M882.41,340.83c-.41-.31-.83-.61-1.25-.91a35.29,35.29,0,0,0-9.65-4.67,28.52,28.52,0,0,0-29.78,8.68L789.38,403.8a30.19,30.19,0,0,0,42.41,40.78c9.52-5.47,31.3-35.71,54.47-62.15C897.13,370,895.59,350.75,882.41,340.83Z"/><path class="cls-8" d="M789.26,403.94l-6-6-13.82-13.29-.09-.69L733.9,348.31l-39.29,34.56,68.5,80.29A32.26,32.26,0,0,0,769.5,469c9.3,6.28,19.3,6,27.37,3.82A46,46,0,0,0,814,464a48.2,48.2,0,0,0,5.76-5.67l12-13.71L789.38,403.8Z"/><path class="cls-6" d="M788,476.36c-.58,0-1.17,0-1.76,0a38.73,38.73,0,0,1-18.05-5.22,2.5,2.5,0,0,1,2.72-4.2c1,.68,25.56,15.82,50.09-13.45l1.39-1.68c1.88-2.24,3.82-4.57,5.8-6.82l46.63-53.2a2.5,2.5,0,0,1,3.76,3.29l-46.63,53.2c-1.94,2.21-3.86,4.51-5.72,6.74l-1.4,1.68C817.17,465.74,804.69,476.36,788,476.36Z"/><path class="cls-6" d="M789.37,407.6l-21.9-22a2.5,2.5,0,1,1,3.54-3.53l18.13,18.22,17.5-20a2.5,2.5,0,0,1,3.76,3.29Z"/><path class="cls-6" d="M372.28,688.23h-.22a2.5,2.5,0,0,1-2.27-2.71L372.85,650a2.5,2.5,0,0,1,5,.43l-3.06,35.56A2.5,2.5,0,0,1,372.28,688.23Z"/><path class="cls-6" d="M608.33,688.23a2.5,2.5,0,0,1-2.47-2.17L601,650.23a2.5,2.5,0,0,1,5-.67l4.83,35.83a2.5,2.5,0,0,1-2.14,2.82Z"/><path class="cls-6" d="M488.58,688.35h-.11a2.49,2.49,0,0,1-2.39-2.6l1.52-35.61a2.53,2.53,0,0,1,2.6-2.39,2.5,2.5,0,0,1,2.39,2.61L491.07,686A2.5,2.5,0,0,1,488.58,688.35Z"/><polygon class="cls-4" points="574.35 842.69 555.64 842.69 536.93 842.69 518.22 842.69 499.51 842.69 480.8 842.69 458.89 842.69 458.89 907.26 480.8 907.26 499.51 907.26 518.22 907.26 536.93 907.26 555.64 907.26 574.35 907.26 596.15 907.26 596.15 842.69 574.35 842.69"/><path class="cls-2" d="M480.7,908.37a2.5,2.5,0,0,1-2.5-2.5v-53a2.5,2.5,0,0,1,5,0v53A2.5,2.5,0,0,1,480.7,908.37Z"/><path class="cls-2" d="M499.43,908.37a2.5,2.5,0,0,1-2.5-2.5v-53a2.5,2.5,0,0,1,5,0v53A2.5,2.5,0,0,1,499.43,908.37Z"/><path class="cls-2" d="M518.16,908.37a2.5,2.5,0,0,1-2.5-2.5v-53a2.5,2.5,0,0,1,5,0v53A2.5,2.5,0,0,1,518.16,908.37Z"/><path class="cls-2" d="M536.89,908.37a2.5,2.5,0,0,1-2.5-2.5v-53a2.5,2.5,0,0,1,5,0v53A2.5,2.5,0,0,1,536.89,908.37Z"/><path class="cls-2" d="M555.62,908.37a2.5,2.5,0,0,1-2.5-2.5v-53a2.5,2.5,0,0,1,5,0v53A2.5,2.5,0,0,1,555.62,908.37Z"/><path class="cls-2" d="M574.35,908.37a2.5,2.5,0,0,1-2.5-2.5v-53a2.5,2.5,0,0,1,5,0v53A2.5,2.5,0,0,1,574.35,908.37Z"/><path class="cls-3" d="M596.15,821.69H458.89v21h.16a13.16,13.16,0,0,0-.16,2,12.44,12.44,0,0,0,21.81,8.19,12.44,12.44,0,0,0,18.73,0,12.44,12.44,0,0,0,18.73,0,12.43,12.43,0,0,0,18.72,0,12.44,12.44,0,0,0,18.73,0,12.44,12.44,0,0,0,18.73,0,12.44,12.44,0,0,0,21.81-8.19,13.16,13.16,0,0,0-.16-2h.16Z"/><path class="cls-8" d="M346.53,821.62v86.16H386a7,7,0,0,1-.63-2.88c0-5.25,5.94-9.5,13.27-9.5s13.28,4.25,13.28,9.5a7,7,0,0,1-.63,2.88h48.46V821.47Z"/><path class="cls-7" d="M398.59,890a13.44,13.44,0,0,0-13.26,13.61,14.09,14.09,0,0,0,.62,4.13h25.29a14.09,14.09,0,0,0,.62-4.13A13.44,13.44,0,0,0,398.59,890Z"/><circle class="cls-7" cx="370.62" cy="839.4" r="13.48"/><circle class="cls-7" cx="430.01" cy="849.41" r="13.48"/></svg>