<svg id="Layer_2" data-name="Layer 2" xmlns="http://www.w3.org/2000/svg" viewBox="0 0 1000 1000"><defs><style>.cls-1{fill:#f19400;}.cls-2{fill:#ffaabe;}.cls-3{fill:#3a140f;}.cls-4{fill:#bc4632;}.cls-5{fill:#fd510c;}.cls-6{fill:#129277;}.cls-7{fill:#edead9;}.cls-8{fill:#ff9191;}.cls-9{fill:#ee9334;}</style></defs><path class="cls-1" d="M811.43,347.06a8.83,8.83,0,0,0-6.56-6.52A8.74,8.74,0,0,0,794.16,330a8.78,8.78,0,0,0-17,1c-.31,0-.63-.05-1-.05a8.78,8.78,0,0,0-8.78,8.78c0,.11,0,.22,0,.32s-1.61.74-1.74.8a8.2,8.2,0,0,0-3.53,3.27,8.85,8.85,0,0,0,1,10.13,11.64,11.64,0,0,0,9.51,4.94h27.45a11.62,11.62,0,0,0,6.88-2.26,17,17,0,0,0,2.24-1.65,8.74,8.74,0,0,0,1.66-2.34A8.62,8.62,0,0,0,811.43,347.06Z"/><path class="cls-2" d="M903.07,321.34a11,11,0,0,0-8.12-8.07,11.35,11.35,0,0,0,.31-2.56,10.87,10.87,0,0,0-10.87-10.87,10.53,10.53,0,0,0-2.7.36,10.86,10.86,0,0,0-21.07,1.24,11.85,11.85,0,0,0-1.19-.06,10.86,10.86,0,0,0-10.87,10.86c0,.14,0,.27,0,.4s-2,.91-2.15,1a10.18,10.18,0,0,0-4.37,4.05,11,11,0,0,0,1.18,12.53A14.42,14.42,0,0,0,855,336.32h34a14.31,14.31,0,0,0,8.5-2.79,22.14,22.14,0,0,0,2.79-2,11.13,11.13,0,0,0,2.05-2.9A10.66,10.66,0,0,0,903.07,321.34Z"/><circle class="cls-3" cx="475.8" cy="287.75" r="22.67"/><path class="cls-4" d="M337.25,302.83s39.87,133.8,11.3,201.17L367,537.23s59-51.16,50.18-134.72c0,0-3.95-27.48-20.47-29.82C396.74,372.69,384.49,300.85,337.25,302.83Z"/><path class="cls-4" d="M138.14,751.83h-62a12.48,12.48,0,0,1-12.48-12.48v-5.43A21.36,21.36,0,0,1,85,712.55h53.11Z"/><path class="cls-4" d="M382.88,712.55H85l5.16-219.34H336.73a46.15,46.15,0,0,1,46.15,46.14Z"/><path class="cls-5" d="M106.59,334.89c-26.5,0-41.12-29.39-41.74-30.67a5.5,5.5,0,0,1,9.88-4.82c.17.34,12.74,25.45,33.07,24.46a5.5,5.5,0,0,1,.52,11C107.74,334.88,107.16,334.89,106.59,334.89Z"/><path class="cls-5" d="M112.68,371.25c-22.06,0-38.84-20.47-39.64-21.46a5.5,5.5,0,0,1,8.56-6.91c.21.26,18.11,21.94,37.69,16.46a5.5,5.5,0,0,1,3,10.59A35.3,35.3,0,0,1,112.68,371.25Z"/><path class="cls-6" d="M112.35,284a217.74,217.74,0,0,0,23.28,99.21l-11.47,4.52c-5.43-18.17-16.14-39-19.61-62.17-2.09-13.93-3.41-27.12-4.16-39.44a6.18,6.18,0,0,1,4.67-7A6.07,6.07,0,0,1,112.35,284Z"/><path class="cls-7" d="M913.74,423.08V384.19c-37.55-7.81-71-37.3-82.53-48.35h-.41v40.51C844.34,389,877.36,416.56,913.74,423.08Z"/><path class="cls-1" d="M913.45,384.17V335.84H831C842.45,346.89,875.93,376.36,913.45,384.17Z"/><path class="cls-1" d="M830.8,455.27v64h82.94V501C878,495.11,845.27,468.55,830.8,455.27Z"/><path class="cls-7" d="M830.8,414.4v40.87C845.27,468.55,878,495.11,913.74,501V462.14C876.62,455,843.24,426.21,830.8,414.4Z"/><path class="cls-1" d="M913.45,462.07V423c-36.36-6.52-69.36-34.07-82.89-46.7v38C843,426.16,876.35,454.89,913.45,462.07Z"/><ellipse class="cls-5" cx="872.27" cy="335.36" rx="41.47" ry="8.95"/><path class="cls-2" d="M726.63,668.45c5.47.51,21.19.95,40.39-13.45,0,0,45.8,56.08,92.32,0,6.81,5.6,25.7,19.54,46.32,15.63,14.9-2.83,28.77-14.63,37.87-32.33V608.39a9.47,9.47,0,0,0-9.47-9.47H685.85a9.47,9.47,0,0,0-9.48,9.47v21C688.56,652.15,707.22,666.65,726.63,668.45Z"/><path class="cls-7" d="M905.66,670.63c-20.62,3.91-39.51-10-46.32-15.63-46.52,56.08-92.32,0-92.32,0-19.2,14.4-34.92,14-40.39,13.45-19.41-1.8-38.07-16.3-50.26-39.08V787.26a9.47,9.47,0,0,0,9.48,9.48H934.06a9.47,9.47,0,0,0,9.47-9.48v-149C934.43,656,920.56,667.8,905.66,670.63Z"/><rect class="cls-6" x="787.7" y="599.45" width="37.25" height="197.29"/><rect class="cls-5" x="692.36" y="429.55" width="139.2" height="169.37"/><path class="cls-2" d="M826.73,544.22c-26.08,0-45.89-8-58.93-23.77-11.46-13.86-17.6-34.1-17.78-58.53A155.25,155.25,0,0,1,753.2,429a2.5,2.5,0,1,1,4.87,1.12c-.12.55-12.41,55.72,13.59,87.17,12.81,15.49,32.92,22.84,59.81,21.85a2.5,2.5,0,1,1,.18,5C830,544.19,828.35,544.22,826.73,544.22Z"/><path class="cls-2" d="M744.38,601.42a2.8,2.8,0,0,1-.48,0,2.49,2.49,0,0,1-2-2.93c8.66-44.65-5.63-79.21-19.15-100.35-14.71-23-31.73-35.58-31.9-35.71a2.5,2.5,0,0,1,3-4c.72.53,17.84,13.15,33.06,36.89,14.06,21.93,28.94,57.81,20,104.16A2.51,2.51,0,0,1,744.38,601.42Z"/><path class="cls-2" d="M716.58,601.42a2.36,2.36,0,0,1-.78-.13,2.49,2.49,0,0,1-1.6-3.15,266.18,266.18,0,0,1,12.5-30c10.74-22,22.31-38,34.4-47.72A32,32,0,0,1,798,518a31.52,31.52,0,0,1,15.08,33.68c-2.84,14.63-11.63,31-26.14,48.8a2.5,2.5,0,0,1-3.87-3.16c14-17.11,22.42-32.78,25.11-46.59s-4.85-23.67-12.76-28.45-20.29-6.78-31.2,2c-27.54,22.13-45.1,74.89-45.28,75.42A2.49,2.49,0,0,1,716.58,601.42Z"/><path class="cls-6" d="M911,526.18a15.46,15.46,0,0,1,2-7.65H854a15.52,15.52,0,0,1-22.45,20.35v43.48a15.51,15.51,0,0,1,24,16.56h35.06a15.55,15.55,0,0,1,31.09,0h12.49V539.73A15.53,15.53,0,0,1,911,526.18Zm-38.56,51.87A15.54,15.54,0,1,1,888,562.51,15.54,15.54,0,0,1,872.48,578.05Z"/><path class="cls-7" d="M872.48,547A15.54,15.54,0,1,0,888,562.51,15.53,15.53,0,0,0,872.48,547Z"/><path class="cls-7" d="M913.07,518.53a15.52,15.52,0,0,0,21.1,21.2v-21.2Z"/><path class="cls-3" d="M623.43,419l-57.13.16V262.38h48.24a235.82,235.82,0,0,1,18.25,101.3A231.24,231.24,0,0,1,623.43,419Z"/><path class="cls-3" d="M473.55,320.66a103.44,103.44,0,0,1-53.76,48.67c-1.47.47-2.91,1-4.31,1.6h0c-17.26,7.38-29.31,24.07-29.31,43.51,0,26.26,22,47.54,49.12,47.54,21.5,0,39.76-13.37,46.42-32h0l33-25V368.3Z"/><path class="cls-7" d="M856,526.18a15.45,15.45,0,0,0-2-7.65H831.56v20.35A15.52,15.52,0,0,0,856,526.18Z"/><path class="cls-7" d="M840.49,579.52a15.48,15.48,0,0,0-8.93,2.84v16.56h24a15.35,15.35,0,0,0,.5-3.86A15.54,15.54,0,0,0,840.49,579.52Z"/><path class="cls-7" d="M906.14,583.38a15.54,15.54,0,0,0-15.55,15.54h31.09A15.54,15.54,0,0,0,906.14,583.38Z"/><rect class="cls-8" x="510.73" y="358.42" width="63.4" height="35.14"/><rect class="cls-7" x="510.73" y="393.56" width="63.4" height="11.46"/><path class="cls-5" d="M510.73,373.6v12.9l38.73-10.33a1.31,1.31,0,0,0-.34-2.57Z"/><path class="cls-8" d="M576,304.69c-.64,0-1.28,0-1.9.1V254.93H469.55v92.76a25.91,25.91,0,0,0,25.91,25.91h78.67V342.55c.62.06,1.26.1,1.9.1a19,19,0,1,0,0-38Z"/><path class="cls-3" d="M512.65,356h0a13.85,13.85,0,0,1-13.86-13.86V335a3.53,3.53,0,0,1,3.52-3.53H523A3.53,3.53,0,0,1,526.5,335v7.16A13.85,13.85,0,0,1,512.65,356Z"/><path class="cls-3" d="M549.56,250.93v-8.81h-38.3V269a22.08,22.08,0,0,0,22.07,22.08h11.73a35.36,35.36,0,0,0,28.61,14.55H586V250.93Z"/><path class="cls-5" d="M574.33,331.53a8.12,8.12,0,0,1-8-6.66,8.12,8.12,0,0,1,6.52-9.44,8.12,8.12,0,0,1,9.44,6.53h0a8.12,8.12,0,0,1-6.52,9.44A8.22,8.22,0,0,1,574.33,331.53Zm0-11.23a2.75,2.75,0,0,0-.57.05,3.13,3.13,0,1,0,.57-.05Z"/><path class="cls-5" d="M585.33,324.12a2.51,2.51,0,0,1-2.3-1.53,6.28,6.28,0,0,0-5.82-3.78h-.06a6.26,6.26,0,0,0-5.83,3.69,2.5,2.5,0,1,1-4.57-2,11.18,11.18,0,0,1,10.4-6.66h.1a11.17,11.17,0,0,1,10.38,6.83,2.5,2.5,0,0,1-1.32,3.28A2.6,2.6,0,0,1,585.33,324.12Z"/><path class="cls-6" d="M624.67,761.33l-271.11-63.5L400.86,454a66.7,66.7,0,0,1,68.42-53.93l162.47,7.21a66.7,66.7,0,0,1,61.69,83Z"/><path class="cls-6" d="M655.47,623.89c-7,30.21-34.59,49.24-59.92,46.26-30-3.53-54.86-37.8-44.78-74.15q17-62.73,33.94-125.45l104.71,27.89Z"/><path class="cls-3" d="M490.32,499.19a2.64,2.64,0,0,1-.78-.12,2.5,2.5,0,0,1-1.6-3.15l29.9-91.67a2.5,2.5,0,0,1,4.76,1.55l-29.9,91.67A2.52,2.52,0,0,1,490.32,499.19Z"/><path class="cls-7" d="M461.09,475.71h-41.4a2.5,2.5,0,0,1,0-5h41.4a2.5,2.5,0,0,1,0,5Z"/><path class="cls-2" d="M582.28,796.72l-123.17,1.63L406.52,567.62a61.75,61.75,0,0,1,38.16-75.84h0a61.19,61.19,0,0,1,75.92,31.54L621.5,735.94C635.08,764.57,613.81,797.53,582.28,796.72Z"/><path class="cls-2" d="M409.47,784.31l-82.72-30.1L408,528.4l113.72,41.39-70,194.62A32.92,32.92,0,0,1,409.47,784.31Z"/><path class="cls-6" d="M572.43,654.11A48.78,48.78,0,0,1,651,640.68a76.89,76.89,0,0,0,5.81-29.35V589.22H376.37v99.69H570.1A47.66,47.66,0,0,1,572.43,654.11Z"/><path class="cls-7" d="M651,640.68a48.78,48.78,0,0,0-78.58,13.43,47.66,47.66,0,0,0-2.33,34.8h8.53A78.21,78.21,0,0,0,651,640.68Z"/><path class="cls-3" d="M552.56,590.48a2.37,2.37,0,0,1-.65-.09,2.49,2.49,0,0,1-1.77-3.06l19.8-73.75a2.5,2.5,0,1,1,4.83,1.29L555,588.63A2.51,2.51,0,0,1,552.56,590.48Z"/><path class="cls-2" d="M335.07,481h0a55.9,55.9,0,0,1,55.9,55.9V752.29a0,0,0,0,1,0,0H279.17a0,0,0,0,1,0,0V536.93A55.9,55.9,0,0,1,335.07,481Z" transform="translate(152.05 -60.87) rotate(13.4)"/><path class="cls-4" d="M160.88,371.62h-24c-19,0-33.43,9.06-46.72,25h0L76.55,409.91A98.72,98.72,0,0,1,46.4,430.48a29.34,29.34,0,0,0-17.92,27h0A24.48,24.48,0,0,0,53,482h0l158.81,0V422.52A50.89,50.89,0,0,0,160.88,371.62Z"/><ellipse class="cls-3" cx="48.9" cy="443.46" rx="12.8" ry="10.09"/><rect class="cls-6" x="90.19" y="482.03" width="88.93" height="16.84"/><polygon class="cls-9" points="90.19 498.91 78.74 514.98 101.63 514.98 90.19 498.91"/><polygon class="cls-9" points="90.19 504.37 75 525.59 105.38 525.59 90.19 504.37"/><polygon class="cls-9" points="90.19 514.14 72.14 535.37 108.24 535.37 90.19 514.14"/><path class="cls-6" d="M120,374.21a101.64,101.64,0,0,1,18.35,11.26,105.08,105.08,0,0,1,30.28,37.67A44.21,44.21,0,0,0,171.44,400c-2.53-16.44-13.8-25.92-16.69-28.22a77.46,77.46,0,0,0-15.88-.7l-.45,0A89.51,89.51,0,0,0,120,374.21Z"/><path class="cls-3" d="M213,533.26h0a44.26,44.26,0,0,1-56.6-32.38l-14.63-64.56a37.26,37.26,0,0,1,25-43.72h0a37.25,37.25,0,0,1,45.12,19.84l27.81,60.07A44.26,44.26,0,0,1,213,533.26Z"/><path class="cls-5" d="M175.23,333.8c-.57,0-1.14,0-1.72,0a5.5,5.5,0,0,1,.25-11H174c20.35,1,32.94-24.21,33.06-24.47a5.5,5.5,0,0,1,9.89,4.83C216.36,304.41,201.74,333.8,175.23,333.8Z"/><path class="cls-5" d="M169.35,370a35.35,35.35,0,0,1-9.93-1.42,5.5,5.5,0,1,1,3.08-10.56c19.53,5.68,37.68-15.86,37.86-16.07a5.49,5.49,0,0,1,8.48,7C208,350,191.23,370,169.35,370Z"/><path class="cls-6" d="M169.48,282.94a218.4,218.4,0,0,1-7,55.88,218,218,0,0,1-16.32,43.34l11.47,4.52c5.43-18.17,16.13-39,19.61-62.17,2.09-13.93,3.4-27.13,4.16-39.45a6.18,6.18,0,0,0-4.67-7A6.08,6.08,0,0,0,169.48,282.94Z"/><path class="cls-5" d="M946.56,843.39H121.45a20.06,20.06,0,0,1-19.86-22.94L105,796.74H946.56a23.33,23.33,0,0,1,23.33,23.32h0A23.33,23.33,0,0,1,946.56,843.39Z"/><path class="cls-5" d="M453.75,843.39H148.22A43.25,43.25,0,0,1,105.42,794l25-172.45c.87-6,1.46-12.1,2.08-18.17a57,57,0,0,1,56.68-51.15H430.7A56.71,56.71,0,0,1,461,560.91c18.93,11.93,28.68,34.23,25.47,56.37Z"/><path class="cls-5" d="M404,553.68h0a2.49,2.49,0,0,1-2.45-2.54c.29-17.23,4.18-24.62,4.34-24.93a2.5,2.5,0,0,1,4.41,2.37c-.07.13-3.48,6.91-3.75,22.64A2.51,2.51,0,0,1,404,553.68Z"/><ellipse class="cls-5" cx="549.73" cy="179.06" rx="26.94" ry="26.58"/><path class="cls-2" d="M541.06,194.8h0a73.54,73.54,0,0,0-67.15,43H608.2A73.52,73.52,0,0,0,541.06,194.8Z"/><path class="cls-5" d="M473.91,237.85a71.42,71.42,0,0,0-6.34,29.45h147a71.26,71.26,0,0,0-6.34-29.45Z"/><path class="cls-2" d="M501.84,267.58a2.49,2.49,0,0,1-2.5-2.5V240.66a2.5,2.5,0,0,1,5,0v24.42A2.5,2.5,0,0,1,501.84,267.58Z"/><path class="cls-2" d="M537.21,267.58a2.5,2.5,0,0,1-2.5-2.5V240.66a2.5,2.5,0,1,1,5,0v24.42A2.5,2.5,0,0,1,537.21,267.58Z"/><path class="cls-2" d="M576.67,267.58a2.5,2.5,0,0,1-2.5-2.5V240.66a2.5,2.5,0,1,1,5,0v24.42A2.5,2.5,0,0,1,576.67,267.58Z"/><path class="cls-2" d="M478.77,620.66H138a4,4,0,0,1,0-8h340.8a4,4,0,0,1,0,8Z"/><path class="cls-5" d="M615.17,781a2.5,2.5,0,0,1-1.35-.4c-6.09-3.93-17.07-12.78-22.1-27.94-9.32-28.07,10.45-52.17,11.3-53.18a2.5,2.5,0,1,1,3.83,3.21c-.77.92-18.84,22.94-10.38,48.4,4.55,13.7,14.52,21.73,20.06,25.3a2.5,2.5,0,0,1-1.36,4.61Z"/><path class="cls-2" d="M464.5,797H408.27a4,4,0,0,1,0-8H464.5a4,4,0,0,1,0,8Z"/><path class="cls-2" d="M206.51,842.7a5.46,5.46,0,0,1-.56,0,4,4,0,0,1-3.4-4.52l31-220.55a4,4,0,0,1,7.92,1.12l-31,220.54A4,4,0,0,1,206.51,842.7Z"/><path class="cls-2" d="M311.25,842.7a5.46,5.46,0,0,1-.57,0,4,4,0,0,1-3.4-4.52l31-220.55a4,4,0,0,1,7.92,1.12l-31,220.54A4,4,0,0,1,311.25,842.7Z"/><rect class="cls-2" x="735.89" y="351.87" width="95.67" height="77.68"/><path class="cls-7" d="M786.34,428.53a2.49,2.49,0,0,1-2.5-2.5V376a2.5,2.5,0,1,1,5,0v50A2.49,2.49,0,0,1,786.34,428.53Z"/><path class="cls-6" d="M735.89,351.87c.14,1.22,1.55,12.35,11.91,18.49s21,2,22.08,1.51c.28.45,5.78,9.14,16.25,9.08s16-9,16.25-9.43c.93.19,14.42,2.77,23.24-6.64a23.3,23.3,0,0,0,5.94-13Z"/></svg>