<svg id="Layer_2" data-name="Layer 2" xmlns="http://www.w3.org/2000/svg" viewBox="0 0 1000 1000"><defs><style>.cls-1{fill:#edead9;}.cls-2{fill:#bc4632;}.cls-3{fill:#129277;}.cls-4{fill:#fd510c;}.cls-5{fill:#ff968e;}.cls-6{fill:#3a140f;}.cls-7{fill:#ffaabe;}.cls-8{fill:#ee9334;}</style></defs><path class="cls-1" d="M348.09,738.83H93.67a50.2,50.2,0,0,1-50.21-50.2V575.91A109.73,109.73,0,0,1,153.19,466.18l186.14,2.66a14.05,14.05,0,0,1,13.84,14.32Z"/><path class="cls-2" d="M617.71,395.35a51.56,51.56,0,0,0-6.36-24.88h0L576.07,307c-15.52-27.93-44.72-43.16-73.67-38.41l-58.81,9.64c-18.19,3-31.65,18.12-34.84,36.83a37.87,37.87,0,0,0-4.95,73c-15.73,5.14-27.14,20.47-27.14,38.58,0,22.32,17.33,40.41,38.71,40.41a37.19,37.19,0,0,0,8.08-.89l145-19.05A51.77,51.77,0,0,0,617.71,395.35Z"/><path class="cls-3" d="M666.84,730.19H348.09V547.36A61.38,61.38,0,0,1,409.47,486h196a61.38,61.38,0,0,1,61.37,61.38Z"/><polygon class="cls-4" points="666.66 196.27 620.49 325.26 759.76 296.57 666.66 196.27"/><path class="cls-2" d="M753.42,431.09l-18.24,3.76L711.8,321.42,762.56,311l16.68,80.91A33.2,33.2,0,0,1,753.42,431.09Z"/><path class="cls-1" d="M812.91,449.75h0s-42.5,9.78-83.88,18.89c-57.76,12.71-62.56,12.93-70.81,20.29-13.09,11.66-18.07,29.52-27.5,64.75-10.69,39.91-16,59.86-15.11,79.18,1.7,35.57,15.16,53.89,18.1,114.17.1,2,.16,3.55.2,4.56H746.16V543.45A59.92,59.92,0,0,1,762.82,502Z"/><circle class="cls-2" cx="815.22" cy="387.32" r="41.64"/><circle class="cls-2" cx="912.02" cy="403.91" r="60.45"/><path class="cls-5" d="M766.86,369.86a20.27,20.27,0,0,0-27.46-19l-6.95-33.73L623.37,339.62l18.07,87.69a26.33,26.33,0,0,0,31.1,20.47l83.29-17.16-8.34-40.49A20.3,20.3,0,0,0,766.86,369.86Z"/><ellipse class="cls-6" cx="678.63" cy="407.8" rx="12.15" ry="14.48" transform="translate(-48.12 93.68) rotate(-7.63)"/><path class="cls-4" d="M745.28,380.46a8.68,8.68,0,1,1,6.08-14.87h0a8.68,8.68,0,0,1-6.08,14.87Zm0-12.35a3.67,3.67,0,1,0,2.58,1.05A3.66,3.66,0,0,0,745.28,368.11Z"/><path class="cls-4" d="M739.27,375.93a2.51,2.51,0,0,1-2.45-2,12.36,12.36,0,0,1,18.52-12.83,2.5,2.5,0,0,1-2.64,4.25,7.36,7.36,0,0,0-11,7.61,2.51,2.51,0,0,1-2,2.94A2.72,2.72,0,0,1,739.27,375.93Z"/><polygon class="cls-5" points="753.78 421.25 689.43 434.51 695 461.57 759.43 448.68 753.78 421.25"/><polygon class="cls-1" points="695 461.57 698.7 479.5 763.05 466.25 759.43 448.68 695 461.57"/><path class="cls-6" d="M520.4,368.57c-.62,0-1.14,0-1.54,0a2.5,2.5,0,1,1,.28-5,28.53,28.53,0,0,0,21.43-8.18c9.48-9.6,7.86-22.38,7.65-23.8a2.5,2.5,0,1,1,4.94-.75c.41,2.74,1.92,17-9,28.07A33.46,33.46,0,0,1,520.4,368.57Z"/><path class="cls-2" d="M758.54,347l-24,4.95a26.63,26.63,0,0,1-31.46-20.71l-1.64-8,50.11-10.33Z"/><rect class="cls-1" x="617.74" y="300.38" width="146.39" height="30.07" rx="5.8" transform="translate(-49.44 145.94) rotate(-11.64)"/><rect class="cls-1" x="513.02" y="504.71" width="61.22" height="191.04"/><circle class="cls-1" cx="666.84" cy="197.14" r="15.57"/><path class="cls-3" d="M720.8,475.28a2.49,2.49,0,0,1-2.43-1.94l-3.14-13.63a2.5,2.5,0,1,1,4.87-1.12l3.14,13.63a2.5,2.5,0,0,1-1.88,3A2.67,2.67,0,0,1,720.8,475.28Z"/><path class="cls-5" d="M549.77,384.74a22.19,22.19,0,0,0-31.66-20.08l-9.94-54.4-82.27,15a24.46,24.46,0,0,0-19.67,28.47l15.62,85.52a22.15,22.15,0,0,0,25.77,17.8l84.55-15.45-6.35-34.77c.58.05,1.16.08,1.76.08A22.19,22.19,0,0,0,549.77,384.74Z"/><path class="cls-3" d="M739.38,471.82a2.51,2.51,0,0,1-2.43-1.94l-3.14-13.64a2.5,2.5,0,1,1,4.88-1.12l3.13,13.64a2.5,2.5,0,0,1-1.87,3A2.22,2.22,0,0,1,739.38,471.82Z"/><path class="cls-4" d="M909.54,495.74a53.23,53.23,0,0,0-63.09-52.31l-33.54,6.32L764.16,500.6a64.71,64.71,0,0,0-18,44.78V751.59H909.54Z"/><path class="cls-7" d="M651.62,732.42,483.4,779.87l-141.35-42a9.71,9.71,0,0,1-6.49-6.44c-19.28-63-33.24-92.89-51.85-151.69a9.66,9.66,0,0,1,11.92-12.2L482,622.24c65.59-16.67,125.4-47,191-65.72a9.66,9.66,0,0,1,12,11.5c-13.77,59-11.69,95.63-26.67,157.37A9.68,9.68,0,0,1,651.62,732.42Z"/><rect class="cls-5" x="462.01" y="438.07" width="72.93" height="43.35" transform="translate(-74.51 97.08) rotate(-10.35)"/><path class="cls-4" d="M460.49,454.73,494,448.6a1.11,1.11,0,0,1,.81,2l-31.39,20.28Z"/><rect class="cls-1" x="426.39" y="462.57" width="165.15" height="60.83" rx="14.76" transform="matrix(0.99, -0.13, 0.13, 0.99, -60.93, 71.91)"/><path class="cls-2" d="M517.23,302.74l-43.72,8,.08.44-30.8,5.62,2.66,14.57a22.53,22.53,0,0,0,26.2,18.11l8.73-1.6a25.17,25.17,0,0,0,28.85,18.31l19-3.46Z"/><circle class="cls-8" cx="473.88" cy="574.72" r="8.32"/><path class="cls-8" d="M897.06,236.56l-37,7.78a1.3,1.3,0,0,0-.83,1.95l12.16,19.51a1.28,1.28,0,0,1-1.67,1.83L849.34,257.1a1.28,1.28,0,0,0-1.86,1L843,301a1.28,1.28,0,0,1-2.54.1l-8-42.35a1.28,1.28,0,0,0-2-.85l-19.38,12.18a1.29,1.29,0,0,1-1.83-1.68L819.81,248a1.3,1.3,0,0,0-1-1.88L779,241.48a1.29,1.29,0,0,1-.11-2.55L818.19,231a1.29,1.29,0,0,0,.83-1.95L806.87,209.6a1.29,1.29,0,0,1,1.68-1.84l20.32,10.53a1.28,1.28,0,0,0,1.87-1l4.4-44.35a1.28,1.28,0,0,1,2.54-.11l8.08,43.84a1.28,1.28,0,0,0,1.94.86l19.38-12.18A1.28,1.28,0,0,1,868.9,207l-10.49,20.45a1.3,1.3,0,0,0,1,1.88L897,234A1.3,1.3,0,0,1,897.06,236.56Z"/><path class="cls-2" d="M290.7,439.17l-96-10.32L209,296l117.83,12.67-11.93,111A22,22,0,0,1,290.7,439.17Z"/><polygon class="cls-2" points="270.21 414.92 197 407.05 192.52 448.71 265.64 457.45 270.21 414.92"/><polygon class="cls-1" points="192.52 448.71 189.87 473.35 263.09 481.22 265.64 457.45 192.52 448.71"/><circle class="cls-8" cx="353.96" cy="473.68" r="18.96"/><circle class="cls-8" cx="381.36" cy="500.43" r="18.96"/><circle class="cls-8" cx="387.56" cy="535.67" r="18.96"/><circle class="cls-8" cx="374.43" cy="569.46" r="18.96"/><circle class="cls-4" cx="331.54" cy="528.26" r="63.12"/><path class="cls-2" d="M271.49,508.77Q253.64,560,235.8,611.25L296,638.11l59.1-63a13.17,13.17,0,0,0,3.17-12.79c-1.24-4-4.44-7.23-12.27-4l-20,9.69q5.71-15.17,11.42-30.34l6.94-18.45c2.61-6.95,6.29-13.38,6.52-21,.12-4.38-1.81-8.28-6.58-8.49-2.22-.09-8.29.19-9.25,2.81a21.68,21.68,0,0,0,1.31-8.77c-.45-6.33-7.26-10.8-13.41-9.19s-8.73,9.05-10.07,14.46c.12-.52-2.85-2.31-3.19-2.52a9.71,9.71,0,0,0-7.78-1.32c-4.41,1.37-6.9,6.34-8.29,9.55a419.74,419.74,0,0,0-17.36,47.2c-.86,3-1.94,6.87-3,10.47a63.36,63.36,0,0,1-1.76-43.75Z"/><path class="cls-6" d="M294,543.35a2.47,2.47,0,0,1-.79-.13,2.5,2.5,0,0,1-1.58-3.16c3.88-11.64,18.69-51.39,18.84-51.79a2.5,2.5,0,0,1,4.69,1.74c-.15.4-14.93,40.07-18.78,51.63A2.51,2.51,0,0,1,294,543.35Z"/><path class="cls-6" d="M314.47,549.52a2.38,2.38,0,0,1-.86-.16,2.49,2.49,0,0,1-1.48-3.21c2.08-5.66,20.34-53.91,20.53-54.39a2.5,2.5,0,1,1,4.67,1.77c-.18.48-18.43,48.71-20.51,54.35A2.51,2.51,0,0,1,314.47,549.52Z"/><path class="cls-1" d="M126.19,825.31,114.68,820,210,612.15a22.19,22.19,0,0,1,29.42-10.94l67,30.71a22.19,22.19,0,0,1,10.93,29.42L265.94,773.4A105.42,105.42,0,0,1,126.19,825.31Z"/><path class="cls-1" d="M168.35,831.39h-14A110.63,110.63,0,0,1,43.7,720.75V572.91c-3.37-37.36,26.51-69.49,62.39-69.45s65.62,32.15,62.26,69.45Z"/><path class="cls-5" d="M255.73,384.76H291a4.23,4.23,0,0,1,4.23,4.23V399a19.7,19.7,0,0,1-19.7,19.7H271.2A19.7,19.7,0,0,1,251.5,399V389a4.23,4.23,0,0,1,4.23-4.23Z" transform="translate(16.95 -11.02) rotate(2.38)"/><path class="cls-6" d="M204.63,359.79c-4.82,33.64-7.43,51.83-7.43,51.83h0A20.14,20.14,0,0,1,180,389.78q4.6-48,9.2-95.93L246.48,300l-3.71,34.47a31.1,31.1,0,0,1-10.54,19.31C220.57,363.54,206.18,360.18,204.63,359.79Z"/><polygon class="cls-4" points="271.84 181.46 186.49 286.66 330.91 300.28 271.84 181.46"/><circle class="cls-1" cx="271.84" cy="181.46" r="16.37"/><path class="cls-2" d="M483.4,778.21a2.5,2.5,0,0,1-2.5-2.48l-1.37-153.47a2.5,2.5,0,0,1,2.48-2.52h0a2.5,2.5,0,0,1,2.5,2.48l1.37,153.47a2.5,2.5,0,0,1-2.48,2.52Z"/><path class="cls-7" d="M68.5,313.07c-.25-.54-.49-1.08-.73-1.63-.17-.37-.83-2.28-.33-.76-.39-1.18-1-2.32-1.4-3.47q-1.4-3.65-2.6-7.35A144.77,144.77,0,0,1,59.28,284a71,71,0,0,1-1.41-8.31c.11,1.42,0,.21,0-.07l-.12-1.05c-.08-.7-.16-1.41-.23-2.11-.14-1.4-.25-2.8-.34-4.21a96.43,96.43,0,0,1,.32-16.65l.12-1,0-.34c.07-.56.05-.45,0,.32a5.54,5.54,0,0,1,.26-1.68c.23-1.44.51-2.87.83-4.3a63.38,63.38,0,0,1,2.22-7.63c.19-.52.38-1,.58-1.54,0-.13.25-.85.37-.91l-.25.59c.08-.2.17-.4.26-.6.57-1.29,1.19-2.55,1.86-3.8.57-1,1.18-2.07,1.82-3.07.35-.55.71-1.09,1.08-1.63l.57-.79.39-.53c.32-.42.26-.35-.19.24.11-.4.78-1,1-1.27.43-.51.86-1,1.31-1.49s1-1.09,1.53-1.61c1.35-1.36,2.86-2.5,4.24-3.8-1.17,1.1.3-.2.65-.45.52-.37,1-.72,1.58-1.06a36.15,36.15,0,0,1,3.54-2l1-.46c.23-.11,1.3-.69.15-.08a14.65,14.65,0,0,1,2.12-.8,34.17,34.17,0,0,1,4.65-1.21l1.14-.2c1.13-.19-1.21.11-.06,0,.66-.05,1.32-.12,2-.15a35,35,0,0,1,4.1,0,7.72,7.72,0,0,1,2.1.2l-.63-.08.7.1,1,.19a35.53,35.53,0,0,1,4.18,1.06c.68.22,1.35.48,2,.72,1.16.42-1-.47.14,0l1,.46a28,28,0,0,1,3.71,2.16,6,6,0,0,1,.87.62c-.9-.91-.12-.07.1.11.54.46,1.06.94,1.56,1.45.29.29,1.13.91,1.19,1.3l-.37-.48c.14.19.27.37.4.57a13,13,0,0,1,.72,1.19,3,3,0,0,1,.47.94l-.23-.55.24.65c.2.6.32,1.21.46,1.82s0-1.27,0-.17c0,.32,0,.65,0,1,0,1.09.32-1.09,0-.07a5.9,5.9,0,0,1-.17.6c-.18.51-.13.4.15-.32a9.1,9.1,0,0,1-.48.81l.39-.51c-.15.16-.3.32-.47.47l.5-.36a4.62,4.62,0,0,1-.55.35c-.61.45.09-.37.33-.09,0,0-.86.25-.92.26-1,.3,1.14.05.06,0l-1,0c.78.12.89.13.34,0q-.33-.06-.66-.15c-.34-.09-.66-.21-1-.32-1.12-.36.95.52-.09-.06-.52-.28-1-.59-1.53-.9-1-.6.76.72-.11-.07-.26-.23-.53-.46-.78-.7s-.48-.5-.71-.76l-.47-.55.13.17a25.22,25.22,0,0,1-2-3.32l-.15-.32.1.23a3.68,3.68,0,0,1-.37-1,24.55,24.55,0,0,1-.67-2.37c-.14-.57-.23-1.15-.34-1.74-.22-1.21.08,1.15,0-.08,0-.35-.07-.71-.09-1.07a28.17,28.17,0,0,1,.1-4.68c0-.08.18-1.26,0-.41s.06-.34.07-.42c.13-.72.28-1.43.45-2.14a17.13,17.13,0,0,1,1.46-4.51c-.07.11-.46,1-.07.19.15-.33.3-.66.46-1q.48-1,1-1.92c.75-1.29,1.57-2.55,2.43-3.78.36-.52.75-1,1.12-1.55.71-1-.69.85.06-.08l.63-.79c.84-1,1.72-2,2.64-3s1.81-1.8,2.77-2.64c.46-.41.94-.81,1.43-1.2.09-.08.9-.72.22-.18s.34-.26.47-.35a43.26,43.26,0,0,1,6.11-3.71q.8-.39,1.59-.75c.34-.15,1.26-.39-.12,0,.27-.08.54-.22.8-.32,1.08-.42,2.18-.8,3.29-1.13a67.63,67.63,0,0,1,6.75-1.47c-1.72.33.25,0,.68-.06l1.73-.14c1.17-.07,2.33-.1,3.5-.09s2.34.05,3.52.13l1.47.13c.45,0,2.75.39,1,.09a80.46,80.46,0,0,1,14.08,3.56c1,.39,2.09.94,3.16,1.25-1.32-.39-.38-.17,0,0l.85.38c.67.3,1.33.6,2,.92,2.26,1.09,4.47,2.29,6.62,3.57s4.27,2.69,6.31,4.16l1.26.93a5.27,5.27,0,0,0,.76.58c-1.05-.48-.41-.32,0,0,1.07.84,2.12,1.71,3.14,2.6q2.7,2.34,5.19,4.91a5,5,0,0,0,7.07-7.07,89.87,89.87,0,0,0-26.82-19c-10-4.56-20.85-7.47-31.87-7a49.86,49.86,0,0,0-30.48,11.64,55.47,55.47,0,0,0-11.55,13.8,36.49,36.49,0,0,0-5.31,19.65c.2,6.86,2.59,14,7.64,18.88,5.81,5.58,15.9,7.46,21,0,4.39-6.4.57-15.11-4.42-19.87a35,35,0,0,0-18-8.8,39.92,39.92,0,0,0-20.17,1.32A45.13,45.13,0,0,0,66,211.7a57,57,0,0,0-16.29,27.45c-3.18,11.75-3.39,24.25-1.9,36.27a145.45,145.45,0,0,0,8.67,34.74c1,2.68,2.16,5.34,3.35,8,1.09,2.39,4.74,3.15,6.84,1.79,2.47-1.59,3-4.28,1.8-6.84Z"/><path class="cls-4" d="M691.36,443.9l35.92-7.4a.86.86,0,0,1,.66,1.56L694.88,461Z"/><path class="cls-5" d="M605.91,723.77c0-.09-22.24-1.54-24.41-1.82a193.2,193.2,0,0,1-26.4-5.13c-4.14-1.13-8.26-2.31-12.45-3.25-3.84-.86-9.17-2.5-13.12-1.79-7.32,1.3-4,8.78-1.37,12.77a25.88,25.88,0,0,0,16.42,9.55l-23.16-4.72c-8.87-1.8-17.74-4-26.67-5.49-4.89-.81-16.79-2-18.84,4.32-1.36,4.17,3.92,8.42,6.63,10.62a19,19,0,0,0-2.26-1,20.45,20.45,0,0,0-3.44-.87c-3.42-.52-10.54-1.61-14.91,2.63a8.5,8.5,0,0,0-2.8,5.12c-.41,4.13,3.11,8.64,9,11l9,2.25c-1.85-.46-4.4,7.4-4.47,8.49-.51,8,8.76,11.33,15.11,12.39,9.47,1.59,19,2.91,28.47,4.4-3-.47-7.88,5.63-7.83,8.2.2,10.29,16.58,10.27,23.67,10.73,15.21,1,30.5,1,45.49-2a110.41,110.41,0,0,0,18.93-5.55,95.11,95.11,0,0,0,9.24-4.24c1-.5,8.57-4.19,8.45-5.08C614.16,785.19,605.91,723.77,605.91,723.77Z"/><rect class="cls-3" x="605.87" y="722.25" width="21.03" height="69.83"/><path class="cls-4" d="M522.27,768.47H522c-7.46-.66-15-1.65-22.4-3-7.78-1.37-15.58-3.11-23.2-5.18a2.5,2.5,0,1,1,1.31-4.82c7.47,2,15.13,3.74,22.76,5.08,7.26,1.28,14.65,2.25,22,2.9a2.5,2.5,0,0,1-.21,5Z"/><path class="cls-4" d="M525.09,750.88a2.57,2.57,0,0,1-.55-.06L482,741.27a2.5,2.5,0,1,1,1.1-4.87l42.54,9.54a2.5,2.5,0,0,1-.54,4.94Z"/><path class="cls-4" d="M536.78,787h-.15l-20.58-1.28a2.5,2.5,0,0,1,.31-5L536.94,782a2.5,2.5,0,0,1-.16,5Z"/><path class="cls-4" d="M942.09,583.25v-5.17a47.26,47.26,0,0,0-47.26-47.26H847.18a47.25,47.25,0,0,0-47.25,47.26v5.17a47.27,47.27,0,0,0,29.51,43.8,51.18,51.18,0,0,0-29.51,46.37V679a51.17,51.17,0,0,0,51.17,51.18h39.81A51.17,51.17,0,0,0,942.09,679v-5.59a51.17,51.17,0,0,0-29.52-46.37A47.26,47.26,0,0,0,942.09,583.25Z"/><path class="cls-4" d="M900.14,701.28l-5.79-4.56a67.39,67.39,0,0,0-90.83,6.79,47.15,47.15,0,0,0-37.21-18.14h-5.17a47.2,47.2,0,0,0-38.59,20,51.35,51.35,0,0,0-40.7-20h-5.63a51.46,51.46,0,0,0-51.47,51.46v39.23a51.47,51.47,0,0,0,51.47,51.47h5.63a51.36,51.36,0,0,0,40.7-20,47.18,47.18,0,0,0,38.59,20h5.17a47.19,47.19,0,0,0,38.76-20.23c.42.36.83.72,1.27,1.06l5.79,4.57a67.4,67.4,0,0,0,94.65-11.21l4.56-5.79A67.39,67.39,0,0,0,900.14,701.28Z"/><path class="cls-6" d="M803.38,704.3a1.89,1.89,0,0,1-.2-.2A53.21,53.21,0,0,0,789.44,694c-16.18-8.21-32.53-5.82-40.84-3.66a2.5,2.5,0,0,1-1.26-4.84c9-2.34,26.72-4.92,44.36,4a56.38,56.38,0,0,1,7.25,4.39c-.87-3.66-1.35-7.08-1.5-8.25-1-9.44-1.61-33.12,14.92-50.24a50.18,50.18,0,0,1,9.3-7.58,64.39,64.39,0,0,1-18.9-24.33,63.37,63.37,0,0,1-5.34-22.76A51.14,51.14,0,0,1,804,553.05a49.83,49.83,0,0,1,11.13-13.36,2.5,2.5,0,1,1,3.24,3.81,45.13,45.13,0,0,0-10,12,46.19,46.19,0,0,0-5.88,25,58.55,58.55,0,0,0,4.92,21,59.63,59.63,0,0,0,20.28,24.55l3.3,2.33-3.55,1.92a46.61,46.61,0,0,0-11.41,8.6c-15.06,15.6-14.49,37.49-13.55,46.18.79,6.07,2.66,13.65,4.33,15.49l.16.16Z"/><path class="cls-7" d="M976.92,636.6a70.72,70.72,0,0,1-.46,9.65c0,.23-.06.46-.08.68-.09.7.14-1,0-.28-.07.48-.14,1-.22,1.43-.17,1.06-.37,2.12-.6,3.17a64,64,0,0,1-1.75,6.52c-.36,1.11-.75,2.21-1.17,3.31l-.33.83c-.05.12-.41,1-.18.46s-.16.34-.21.46l-.48,1.06c-.9,1.92-1.91,3.78-3,5.62-1.27,2.19-2.59,4.34-4,6.4-.42.6-.86,1.19-1.3,1.78s.21-.29.26-.34c-.13.14-.24.31-.36.46q-.4.51-.84,1a48.94,48.94,0,0,1-3.46,3.74c-.62.61-1.25,1.19-1.91,1.76l-1,.86-.52.42c-.91.74.9-.65-.06,0a43.86,43.86,0,0,1-4.86,3.09c-.85.47-1.74.87-2.61,1.29-.64.3.83-.33.16-.07l-.7.28c-.53.2-1.07.39-1.61.57a41.17,41.17,0,0,1-5,1.32c-.81.17-1.62.31-2.44.44l-.47.07c-.66.12,1.06-.12.38,0l-1.43.16a46.05,46.05,0,0,1-5.51.19c-.86,0-1.71-.08-2.56-.17a2.76,2.76,0,0,0-.63-.07c.09,0,1.26.2.4,0-.45-.08-.91-.15-1.36-.25a23.42,23.42,0,0,1-2.33-.6c-.37-.12-.73-.27-1.1-.39-.61-.2,1,.46.4.17-.21-.1-.43-.19-.64-.3a18.37,18.37,0,0,1-1.9-1.14c-.66-.43.33.23.37.29a2.89,2.89,0,0,0-.41-.35c-.33-.3-.63-.63-.94-1-.55-.57.67,1,0-.06-.23-.34-.43-.69-.63-1.06s-.72-1.69-.35-.67c-.21-.58-.43-1.15-.59-1.75s-.24-1.07-.36-1.6c-.17-.73,0,.85,0,.11,0-.27,0-.54,0-.81,0-.47,0-.94,0-1.41,0-1.13,0,.13,0,.13a5.06,5.06,0,0,1,.27-1.17c.08-.26.17-.51.25-.77-.05.16-.44.83-.05.14.14-.24.69-.89.7-1.15,0,.13-.77.85-.15.22l.47-.49a4.69,4.69,0,0,0,.5-.46c0,.24-.87.6-.07.06.38-.25.78-.44,1.17-.67.57-.33-.91.25-.27.12.22,0,.42-.15.64-.21s.43-.08.64-.15c.61-.22-1,0-.36,0,.21,0,.44,0,.65,0,1.1-.05-.16.1-.19-.08,0,.13,1.15.17,1.27.35-.14-.21-.8-.43-.22,0,.08,0,.56.27.63.4-.3-.53-.51-.45-.15-.09l.52.52a3.41,3.41,0,0,1,.49.57c-.57-1.06,0,0,.1.21a14.47,14.47,0,0,1,.74,1.33,3.8,3.8,0,0,1,.33.69s-.43-1.13-.06-.14a30.75,30.75,0,0,1,1.15,3.64c.14.58.26,1.17.37,1.76,0,.14.18,1.08.08.44s0,.3.05.45a28.64,28.64,0,0,1,.14,3.82c0,.6-.06,1.2-.11,1.79,0,.3-.06.6-.1.9,0-.21.17-1,0,0-.23,1.19-.49,2.36-.83,3.52s-.68,2-1,3c-.24.68.36-.78.06-.13-.1.23-.2.46-.31.69-.23.5-.48,1-.73,1.49a39.68,39.68,0,0,1-3,4.87,3.15,3.15,0,0,0-.37.49c0-.07.76-.95.23-.29-.24.29-.48.6-.73.89-.48.58-1,1.14-1.48,1.69-.87.95-1.78,1.87-2.71,2.77-.75.71-1.52,1.41-2.31,2.07-.39.33-.78.68-1.19,1,.88-.61.3-.23.11-.09l-.92.66a49.55,49.55,0,0,1-5,3.12c-.84.46-1.68.89-2.55,1.31l-1.28.59-.64.28c-1.1.49,1-.4-.08,0a69.14,69.14,0,0,1-10.35,3.18c-1.63.36-3.28.66-4.93.9-.41.06-1.7.19,0,0-.36,0-.71.09-1.07.13l-2.16.22q-3.37.3-6.77.3c-.72,0-1.45,0-2.17,0a5,5,0,0,0-5,5,5.09,5.09,0,0,0,5,5c13.62.37,28-2.51,39.61-9.78a53.43,53.43,0,0,0,17.25-17.12c5.76-9.41,7.57-21.39,3.31-31.76-2.28-5.53-6.43-10.44-12.89-10.53A14.38,14.38,0,0,0,910,675.93a19.68,19.68,0,0,0,1.37,17.58c2.18,3.86,5.88,6.32,10,7.79,7.55,2.74,16.63,1.9,24.26,0a45.77,45.77,0,0,0,22.32-13.75,74.41,74.41,0,0,0,19-46.18c.08-1.57.09-3.15.06-4.72a5,5,0,0,0-10,0Z"/><rect class="cls-1" x="243" y="220.3" width="32.44" height="149.39" rx="5.19" transform="translate(-61.79 521.21) rotate(-83.87)"/><circle class="cls-2" cx="199.57" cy="370.15" r="21.37"/><path class="cls-6" d="M200.77,380.29h-.08A8.34,8.34,0,0,1,194.93,366h0a8.33,8.33,0,1,1,5.84,14.28Zm-2.34-10.71a3.33,3.33,0,0,0,0,4.71,3.28,3.28,0,0,0,2.34,1,3.33,3.33,0,0,0,2.41-5.67,3.27,3.27,0,0,0-2.34-1,3.39,3.39,0,0,0-2.37.95Z"/><path class="cls-6" d="M206.44,376A2.72,2.72,0,0,1,206,376a2.5,2.5,0,0,1-2-2.94,6.81,6.81,0,0,0-10.15-7,2.5,2.5,0,0,1-2.64-4.25A11.81,11.81,0,0,1,208.89,374,2.5,2.5,0,0,1,206.44,376Z"/><path class="cls-6" d="M267.87,436.71,227,432.32a1.87,1.87,0,0,0-1,3.54l39.91,19.39Z"/><path class="cls-3" d="M165.85,714.38V608.08a2.5,2.5,0,0,1,5,0v83.39l33.47-73c.52-1.75,4.18-13,14.27-18.34,6.48-3.44,14.12-3.68,22.71-.73a2.5,2.5,0,1,1-1.63,4.72c-7.2-2.47-13.5-2.34-18.7.41-8.82,4.65-11.85,15.36-11.88,15.47l-.14.38Z"/><path class="cls-3" d="M616.7,685.12V625.79l-56.9,16,.66,53.22a14.54,14.54,0,0,0-3.41-.41c-6.62,0-12,4.5-12,10.06,0,5.79,6.39,10.15,12,10.07s8.9-4.45,9.15-4.78a12.25,12.25,0,0,0,2.34-8.15l-.66-54,40.82-11.47v42.35a14.16,14.16,0,0,0-3.35-.41c-6.62,0-12,4.51-12,10.06,0,5.75,6.3,10.15,12,10.07a11.59,11.59,0,0,0,11.35-13.29Z"/><path class="cls-3" d="M214.8,470.28l-.28,0a2.5,2.5,0,0,1-2.21-2.76l1.53-13.75a2.5,2.5,0,0,1,5,.55l-1.53,13.76A2.51,2.51,0,0,1,214.8,470.28Z"/><path class="cls-3" d="M237.49,472.74h-.28A2.51,2.51,0,0,1,235,470l1.53-13.75a2.5,2.5,0,0,1,5,.55L240,470.52A2.49,2.49,0,0,1,237.49,472.74Z"/><path class="cls-3" d="M283.24,738.16a2.57,2.57,0,0,1-1-.23,2.49,2.49,0,0,1-1.23-3.31l29.77-65a2.5,2.5,0,0,1,4.55,2.08l-29.78,65A2.49,2.49,0,0,1,283.24,738.16Z"/><rect class="cls-7" x="512.75" y="516.53" width="61.77" height="5" transform="translate(-64.11 76.79) rotate(-7.63)"/><path class="cls-6" d="M480,348a2.5,2.5,0,0,1-2.46-2.09l-3.34-19.85a2.5,2.5,0,0,1,4.93-.83l3.34,19.85a2.5,2.5,0,0,1-2.05,2.88A3,3,0,0,1,480,348Z"/><path class="cls-4" d="M526.31,394.85a8.68,8.68,0,0,1-.08-17.35h.08a8.65,8.65,0,0,1,6.08,2.48h0a8.68,8.68,0,0,1-6.08,14.87Zm0-12.35h0a3.68,3.68,0,1,0,2.61,1.05A3.67,3.67,0,0,0,526.27,382.5Z"/><path class="cls-4" d="M520.3,390.32a2.5,2.5,0,0,1-2.45-2,12.36,12.36,0,0,1,18.51-12.84,2.5,2.5,0,1,1-2.64,4.25,7.36,7.36,0,0,0-11,7.61,2.5,2.5,0,0,1-2,2.94A2.81,2.81,0,0,1,520.3,390.32Z"/><ellipse class="cls-6" cx="462.76" cy="421.94" rx="12.15" ry="14.48" transform="translate(-51.91 65.15) rotate(-7.63)"/><path class="cls-8" d="M136.91,508.11l-38.78,6.45a1.33,1.33,0,0,0-.94,2L109,537.22a1.33,1.33,0,0,1-1.82,1.82L86.5,527.28a1.34,1.34,0,0,0-2,1L78,572.36a1.33,1.33,0,0,1-2.64,0l-6.48-44.11a1.34,1.34,0,0,0-2-1L46.3,539a1.33,1.33,0,0,1-1.82-1.82l11.76-20.67a1.33,1.33,0,0,0-1-2l-41.1-6.47a1.33,1.33,0,0,1,0-2.63L55.29,499a1.33,1.33,0,0,0,1-2L44.48,476.37a1.33,1.33,0,0,1,1.82-1.82L66.93,486.3a1.34,1.34,0,0,0,2-1l6.48-45.64a1.33,1.33,0,0,1,2.64,0l6.49,45.64a1.33,1.33,0,0,0,2,1l20.64-11.75a1.33,1.33,0,0,1,1.82,1.82L97.19,497.05a1.33,1.33,0,0,0,.94,2l38.78,6.45A1.33,1.33,0,0,1,136.91,508.11Z"/></svg>