<svg id="Layer_2" data-name="Layer 2" xmlns="http://www.w3.org/2000/svg" viewBox="0 0 1000 1000"><defs><style>.cls-1{fill:#edead9;}.cls-2{fill:#bc4632;}.cls-3{fill:#fd510c;}.cls-4{fill:#3a140f;}.cls-5{fill:#129277;}.cls-6{fill:#ffaabe;}.cls-7{fill:#ee9334;}.cls-8{fill:#ff968e;}</style></defs><path class="cls-1" d="M908.09,129H91.91a31.45,31.45,0,0,0-31.45,31.45V841.86a31.45,31.45,0,0,0,31.45,31.45H214.57l-36.94-109c6.5,9.64,55.28,17.13,114.5,17.13,58.47,0,106.76-7.3,114.24-16.76L363.53,873.31H908.09a31.45,31.45,0,0,0,31.45-31.45V160.44A31.45,31.45,0,0,0,908.09,129Z"/><path class="cls-2" d="M294,481.64H171.5a42.13,42.13,0,0,1-42.13-42.13V344.63a50.12,50.12,0,0,1,50.13-50.12H294Z"/><path class="cls-3" d="M386.17,873.31H91.27a30.82,30.82,0,0,1-30.81-30.82V528.56h271a54.73,54.73,0,0,1,54.73,54.74Z"/><path class="cls-4" d="M876.7,504.85V378.09A73.66,73.66,0,0,0,803,304.42H736.49a59,59,0,0,0-56.38,41.5,38.92,38.92,0,0,0-17.24,32.35V520a53.32,53.32,0,0,0-39,51.33h0a53.3,53.3,0,0,0,53.3,53.31h96.53v4.29h99.42a62.07,62.07,0,0,0,62.08-62.08h0A62.08,62.08,0,0,0,876.7,504.85Z"/><path class="cls-5" d="M712.68,565.49h0a0,0,0,0,1,0,0V802.65a0,0,0,0,1,0,0H624.12a0,0,0,0,1,0,0V654.05A88.56,88.56,0,0,1,712.68,565.49Z"/><polygon class="cls-6" points="795.3 873.31 151.55 873.31 365.75 684.59 607.71 684.59 795.3 873.31"/><path class="cls-7" d="M574,705.8H354.76a7,7,0,0,1-7-7V683.84A113.13,113.13,0,0,1,460.89,570.71h0A113.13,113.13,0,0,1,574,683.84Z"/><path class="cls-1" d="M758,657.71c-2.63,3.33-8.44,2.34-9.51-1.62l-25.24-93.57A97.08,97.08,0,0,0,708.8,564c-5.77,1-13.51,2.93-13.51,2.93h0s-.27.61-8.92,19.66Q668.58,629.75,650.78,673a45.91,45.91,0,0,0-7.21,13.75C633.52,718,662,749.19,665.09,752.54c19.76,21.28,41.36,43.24,64.92,65.5,21.11,20,41.87,38.35,62,55.27H908.09l-28.5-301.2a10,10,0,0,0-9.73-8.36l-37.23-.36Z"/><path class="cls-2" d="M822.61,518H713.32a35.87,35.87,0,0,1-35.86-35.87V363.5a24.19,24.19,0,0,1,24.19-24.19h121Z"/><rect class="cls-2" x="740.86" y="504.74" width="81.75" height="53.87"/><path class="cls-5" d="M889.91,837.31H845V581.1a17.56,17.56,0,0,1,17.56-17.56h0a77,77,0,0,1,77,77V787.69A49.63,49.63,0,0,1,889.91,837.31Z"/><rect class="cls-5" x="721.82" y="533.14" width="112.71" height="33.32" rx="8.28"/><path class="cls-4" d="M758.4,557.57a2.5,2.5,0,0,1-2.5-2.5v-20a2.5,2.5,0,0,1,5,0v20A2.5,2.5,0,0,1,758.4,557.57Z"/><path class="cls-4" d="M791.39,557.57a2.5,2.5,0,0,1-2.5-2.5v-20a2.5,2.5,0,0,1,5,0v20A2.5,2.5,0,0,1,791.39,557.57Z"/><rect class="cls-1" x="327.26" y="705.8" width="279.01" height="25.65" rx="10.78"/><circle class="cls-2" cx="822.61" cy="430.34" r="27.43"/><path class="cls-4" d="M821,442.69a9.07,9.07,0,0,1-1.63-18A9.06,9.06,0,0,1,829.91,432h0a9.08,9.08,0,0,1-8.92,10.7Zm0-13.14a4.71,4.71,0,0,0-.74.06,4.08,4.08,0,1,0,3,.66A4,4,0,0,0,821,429.55Z"/><path class="cls-4" d="M833.84,434a2.5,2.5,0,0,1-2.3-1.52,7.75,7.75,0,0,0-7.2-4.68h-.07a7.76,7.76,0,0,0-7.22,4.56,2.5,2.5,0,0,1-4.57-2,12.67,12.67,0,0,1,11.78-7.54h.12a12.64,12.64,0,0,1,11.76,7.73,2.49,2.49,0,0,1-1.32,3.27A2.42,2.42,0,0,1,833.84,434Z"/><path class="cls-5" d="M758,657.71l74.6-94.32-105.26-1c-1.38,0-2.74.07-4.09.18l25.24,93.57C749.59,660.05,755.4,661,758,657.71Z"/><path class="cls-5" d="M324.2,675.83l35.22,30h53.1s0-22.35-23.4-25.24c0,0-12.35-1.31-17.61,7.89C371.51,688.45,355,666.37,324.2,675.83Z"/><path class="cls-4" d="M740.86,518h47.31a1.38,1.38,0,0,1,.42,2.72l-47.73,12.46Z"/><path class="cls-4" d="M725.35,486.45c-.47,0-1,0-1.43-.06-8.29-.72-12.6-7.2-13.38-8.5a2.5,2.5,0,1,1,4.28-2.58c.34.57,3.53,5.58,9.53,6.1A12.69,12.69,0,0,0,736.28,475a2.5,2.5,0,1,1,4.33,2.5A17.8,17.8,0,0,1,725.35,486.45Z"/><path class="cls-4" d="M677.46,377c.34-2.22,2.36-13.76,12.94-21.17,9.93-7,23.73-7.48,33.39.25,18.69,15,18.5,44.14,42.47,53.86,13.39,5.43,43.38-1.63,56.35-7.06l4-65.41-126.82,1.81a22.31,22.31,0,0,0-22.31,22.31Z"/><path class="cls-1" d="M647.47,860.55H481.05a38.88,38.88,0,0,1-38.87-38.88v-41H686.35v41A38.88,38.88,0,0,1,647.47,860.55Z"/><rect class="cls-5" x="439.14" y="728.25" width="250.26" height="61.76" rx="14.92"/><rect class="cls-4" x="453.79" y="728.25" width="220.97" height="49.37" rx="14.92"/><path class="cls-6" d="M674.76,751.83A34.06,34.06,0,0,0,658,743.22c-15.87-3-27.93,7.15-29.63,8.63a41,41,0,0,0-54.08.22c-3-2.27-19.58-14.21-40.53-9.92a47.71,47.71,0,0,0-20.31,9.68c-4.32-2.76-18-10.71-36.22-8.58a54.27,54.27,0,0,0-23.43,8.58v11.79a14.64,14.64,0,0,0,2.58,7.84,14.4,14.4,0,0,0,12,6.16H660.21a13,13,0,0,0,1.79-.17,15.29,15.29,0,0,0,12.76-15.17Z"/><circle class="cls-3" cx="399.11" cy="671.14" r="10.1"/><path class="cls-4" d="M377,704.83a2.5,2.5,0,0,1-2.33-1.59l-5.45-13.88a2.5,2.5,0,1,1,4.66-1.82l5.45,13.87a2.51,2.51,0,0,1-1.42,3.25A2.66,2.66,0,0,1,377,704.83Z"/><circle class="cls-3" cx="574.01" cy="745.72" r="7.53"/><circle class="cls-3" cx="628.08" cy="745.72" r="7.53"/><path class="cls-2" d="M497.82,767.23a2.33,2.33,0,0,1-1-.2l-28.24-11.79a2.5,2.5,0,1,1,1.92-4.61l28.25,11.79a2.5,2.5,0,0,1-1,4.81Z"/><path class="cls-2" d="M466.35,767.23a2.5,2.5,0,0,1-1-4.8l28.32-12.19a2.5,2.5,0,0,1,2,4.6L467.34,767A2.48,2.48,0,0,1,466.35,767.23Z"/><path class="cls-3" d="M387.28,675.93,159.38,873.31c-33.2,2.37-62.29-15.9-71.07-42.35-8.3-25,4.8-47.69,7.15-51.62L312.88,591.56q24,26.33,48.18,54Q374.37,660.79,387.28,675.93Z"/><path class="cls-1" d="M403.84,661.63l-16.56,14.3-73.43-85,16.55-14.3a6.33,6.33,0,0,1,8.93.66l65.16,75.44A6.33,6.33,0,0,1,403.84,661.63Z"/><path class="cls-2" d="M558.77,767.23a2.36,2.36,0,0,1-1-.2l-28.24-11.79a2.5,2.5,0,1,1,1.93-4.61l28.24,11.79a2.5,2.5,0,0,1-1,4.81Z"/><circle class="cls-3" cx="633.55" cy="666.03" r="18.57"/><rect class="cls-3" x="606.27" y="653" width="17.85" height="26.05"/><path class="cls-2" d="M527.31,767.23a2.5,2.5,0,0,1-1-4.8l28.31-12.19a2.5,2.5,0,0,1,2,4.6L528.29,767A2.43,2.43,0,0,1,527.31,767.23Z"/><circle class="cls-7" cx="517.06" cy="823.67" r="5.84"/><circle class="cls-7" cx="601.05" cy="823.67" r="5.84"/><path class="cls-2" d="M616.61,767.23a2.33,2.33,0,0,1-1-.2l-28.24-11.79a2.5,2.5,0,1,1,1.92-4.61l28.24,11.79a2.5,2.5,0,0,1-1,4.81Z"/><path class="cls-2" d="M585.14,767.23a2.5,2.5,0,0,1-1-4.8l28.32-12.19a2.5,2.5,0,0,1,2,4.6L586.13,767A2.48,2.48,0,0,1,585.14,767.23Z"/><path class="cls-2" d="M668.25,767.23a2.33,2.33,0,0,1-1-.2l-28.24-11.79a2.5,2.5,0,1,1,1.92-4.61l28.25,11.79a2.5,2.5,0,0,1-1,4.81Z"/><circle class="cls-3" cx="515.04" cy="745.72" r="7.53"/><path class="cls-5" d="M475.11,843.92a2.5,2.5,0,0,1-2.5-2.5V814.91a2.5,2.5,0,0,1,5,0v26.51A2.5,2.5,0,0,1,475.11,843.92Z"/><path class="cls-6" d="M486.42,813a5.19,5.19,0,0,0-5.18-5.19A5.36,5.36,0,0,0,480,808a5.17,5.17,0,0,0-10.2-.07,4.6,4.6,0,0,0-.84-.09,5.18,5.18,0,0,0-2.28,9.83,5.17,5.17,0,0,0,8.35,5.87,5.18,5.18,0,0,0,8.87-3.65,5.14,5.14,0,0,1,2.5-6.86Z"/><path class="cls-5" d="M489,834.31a2.49,2.49,0,0,0,.34-1.89,2.54,2.54,0,0,0-2.66-1.58c-2.59.19-4.89,2.09-6.71,3.79a25.24,25.24,0,0,0-4.65,5.91c-.32.56-.62,1.14-.9,1.73-.1.22-.51.7-.41,1s.78.25,1.09.18a22.89,22.89,0,0,0,3.13-.92,24.67,24.67,0,0,0,10-7.07A7.56,7.56,0,0,0,489,834.31Z"/><path class="cls-5" d="M461.09,834.52a2.23,2.23,0,0,1,2.32-3.47c2.59.19,4.89,2.09,6.7,3.79a25.28,25.28,0,0,1,4.66,5.91c.32.56.62,1.14.89,1.72.11.23.51.71.42,1s-.78.25-1.09.18a22.62,22.62,0,0,1-3.14-.92,24.64,24.64,0,0,1-10-7.07A6.89,6.89,0,0,1,461.09,834.52Z"/><path class="cls-5" d="M559.1,843.92a2.5,2.5,0,0,1-2.5-2.5V814.91a2.5,2.5,0,0,1,5,0v26.51A2.5,2.5,0,0,1,559.1,843.92Z"/><path class="cls-6" d="M570.41,813a5.19,5.19,0,0,0-5.18-5.19A5.36,5.36,0,0,0,564,808a5.17,5.17,0,0,0-10.2-.07,4.6,4.6,0,0,0-.84-.09,2846.36,2846.36,0,0,1-2.8,12.05,5.18,5.18,0,0,0,8.87,3.65,5.18,5.18,0,0,0,8.87-3.65,5.14,5.14,0,0,1,2.5-6.86Z"/><path class="cls-5" d="M573,834.31a2.49,2.49,0,0,0,.34-1.89,2.54,2.54,0,0,0-2.66-1.58c-2.59.19-4.89,2.09-6.71,3.79a25.24,25.24,0,0,0-4.65,5.91c-.32.56-.62,1.14-.9,1.73-.1.22-.5.7-.41,1s.78.25,1.09.18a23.45,23.45,0,0,0,3.14-.92,24.7,24.7,0,0,0,10-7.07A7.56,7.56,0,0,0,573,834.31Z"/><path class="cls-5" d="M545.08,834.52a2.23,2.23,0,0,1,2.32-3.47c2.59.19,4.89,2.09,6.7,3.79a25.28,25.28,0,0,1,4.66,5.91c.32.56.62,1.14.89,1.72.11.23.51.71.42,1s-.78.25-1.09.18a22.62,22.62,0,0,1-3.14-.92,24.64,24.64,0,0,1-10-7.07A6.89,6.89,0,0,1,545.08,834.52Z"/><path class="cls-5" d="M647.47,843.92a2.5,2.5,0,0,1-2.5-2.5V814.91a2.5,2.5,0,0,1,5,0v26.51A2.49,2.49,0,0,1,647.47,843.92Z"/><path class="cls-6" d="M658.79,813a5.19,5.19,0,0,0-5.19-5.19,5.51,5.51,0,0,0-1.22.16,5.17,5.17,0,0,0-10.19-.07,4.79,4.79,0,0,0-.84-.09,5.18,5.18,0,0,0-2.28,9.83,5,5,0,0,0-.52,2.22,5.18,5.18,0,0,0,8.86,3.65,5.18,5.18,0,0,0,8.87-3.65,5.08,5.08,0,0,0-.49-2.17A5.18,5.18,0,0,0,658.79,813Z"/><path class="cls-5" d="M661.4,834.31a2.45,2.45,0,0,0,.34-1.89,2.52,2.52,0,0,0-2.65-1.58c-2.6.19-4.9,2.09-6.71,3.79a25,25,0,0,0-4.65,5.91c-.32.56-.62,1.14-.9,1.73-.11.22-.51.7-.41,1s.77.25,1.08.18a22.62,22.62,0,0,0,3.14-.92,24.57,24.57,0,0,0,10-7.07A6.89,6.89,0,0,0,661.4,834.31Z"/><path class="cls-5" d="M633.46,834.52a2.46,2.46,0,0,1-.34-1.89,2.5,2.5,0,0,1,2.65-1.58c2.6.19,4.89,2.09,6.71,3.79a25,25,0,0,1,4.65,5.91c.32.56.62,1.14.9,1.72.11.23.51.71.41,1s-.77.25-1.08.18a22.62,22.62,0,0,1-3.14-.92,24.67,24.67,0,0,1-10-7.07A7.5,7.5,0,0,1,633.46,834.52Z"/><path class="cls-2" d="M636.78,767.23a2.5,2.5,0,0,1-1-4.8l28.32-12.19a2.5,2.5,0,0,1,2,4.6L637.77,767A2.48,2.48,0,0,1,636.78,767.23Z"/><path class="cls-4" d="M292.13,742.79c-63.64,0-115.24,8.65-115.24,19.33a3.94,3.94,0,0,0,.74,2.19c6.5,9.64,55.28,17.13,114.5,17.13,58.47,0,106.76-7.3,114.24-16.76a4.14,4.14,0,0,0,1-2.56C407.38,751.44,355.78,742.79,292.13,742.79Z"/><circle class="cls-7" cx="187.65" cy="168.75" r="17.61"/><circle class="cls-3" cx="333.15" cy="209.14" r="17.61"/><circle class="cls-6" cx="496.32" cy="226.75" r="17.61"/><circle class="cls-3" cx="307.66" cy="767.53" r="19.6"/><path class="cls-2" d="M708.78,774.49c-1.77-.11-3.56-.23-5.34-.37-4.74-.36-20.68-1.42-22.48-1.65a185.11,185.11,0,0,1-27-5.34q-5.82-1.64-11.72-3c-3.66-.87-8.43-2.21-12-1.57-7.15,1.27-3.87,8.57-1.34,12.45a25.21,25.21,0,0,0,16,9.32l-22.58-4.6c-8.66-1.76-17.31-3.93-26-5.36-4.77-.79-16.38-2-18.38,4.21-1.32,4.08,3.83,8.22,6.47,10.37a16.68,16.68,0,0,0-2.21-1,20.69,20.69,0,0,0-3.35-.85c-3.34-.51-10.28-1.57-14.54,2.56a8.29,8.29,0,0,0-2.73,5c-.38,3.8,2.66,7.94,7.83,10.29a11.73,11.73,0,0,0,1.92.65l7.77,1.94c-1.8-.45-4.29,7.22-4.35,8.29-.5,7.78,8.54,11,14.74,12.08,9.23,1.55,18.5,2.84,27.76,4.29,1.65.26-6.49,2.91-7.64,8a7.75,7.75,0,0,0,1,5.63c1.3,2,4.17,4.11,22.1,4.84,2,.08,3.7.13,5,.16,3,.07,6.09.17,9.14.26a254.52,254.52,0,0,0,61.2-5.5c8.26-1.77,16-3.87,23.17-6.14h0q0-7.12-.43-14.24l-2.94-49.54Z"/><path class="cls-4" d="M623.19,817.91H623c-7.29-.65-14.65-1.62-21.86-2.89-7.58-1.33-15.2-3-22.63-5a2.5,2.5,0,0,1,1.31-4.83c7.29,2,14.76,3.65,22.19,5,7.07,1.24,14.28,2.19,21.42,2.83a2.5,2.5,0,0,1-.21,5Z"/><path class="cls-4" d="M625.94,800.75a2.64,2.64,0,0,1-.55-.06l-41.5-9.31a2.5,2.5,0,1,1,1.1-4.88l41.5,9.31a2.5,2.5,0,0,1-.55,4.94Z"/><path class="cls-4" d="M637.35,836h-.16l-20.07-1.25a2.5,2.5,0,0,1,.31-5L637.5,831a2.5,2.5,0,0,1-.15,5Z"/><path class="cls-4" d="M667,789.88c-8.9,0-23.75-3.35-24.41-3.5a2.5,2.5,0,1,1,1.11-4.87c.16,0,16.5,3.72,24.45,3.35a2.5,2.5,0,1,1,.23,5C667.92,789.87,667.45,789.88,667,789.88Z"/><circle class="cls-5" cx="648.24" cy="211.96" r="17.61"/><circle class="cls-7" cx="780.55" cy="181.27" r="17.61"/><path class="cls-5" d="M302.67,792l88.59-59.66s7.69,22.12-10.73,32.35c0,0,4.54,22.39-20.51,24.37Z"/><rect class="cls-1" x="592.11" y="653" width="14.16" height="26.05"/><path class="cls-5" d="M235.45,742.79l77.43,41.45-22.21,11.7s-36.21,7-38.92-20.52C251.75,775.42,230.7,768.53,235.45,742.79Z"/><circle class="cls-3" cx="236.44" cy="781.44" r="19.6"/><path class="cls-7" d="M588.86,652l-25-1.09v32.32h24a8.33,8.33,0,0,0,4.8-1.51c2.17-1.53,4.87-4.17,4.5-7.67s-3.69-5.83-4.64-6.44c.85-.67,4.57-3.72,4.26-8.23a7.73,7.73,0,0,0-.22-1.4A8.17,8.17,0,0,0,588.86,652Z"/><circle class="cls-3" cx="426.75" cy="688.84" r="10.1"/><circle class="cls-3" cx="640.73" cy="688.56" r="18.57"/><rect class="cls-1" x="599.3" y="675.53" width="14.16" height="26.05"/><rect class="cls-3" x="613.45" y="675.53" width="17.85" height="26.05"/><path class="cls-7" d="M596.52,674.42,582,673.47V705.8h13.5a8.75,8.75,0,0,0,8.86-8.49c0-.23,0-.46,0-.69a10.15,10.15,0,0,0-3.12-6.45,12,12,0,0,0,2.86-8.23v-.12A8,8,0,0,0,596.52,674.42Z"/><path class="cls-4" d="M621.82,662H608.57a2.5,2.5,0,1,1,0-5h13.25a2.5,2.5,0,0,1,0,5Z"/><path class="cls-4" d="M621.82,671.76H608.57a2.5,2.5,0,1,1,0-5h13.25a2.5,2.5,0,0,1,0,5Z"/><path class="cls-4" d="M629,687.16H615.75a2.5,2.5,0,0,1,0-5H629a2.5,2.5,0,0,1,0,5Z"/><path class="cls-4" d="M629,696.91H615.75a2.5,2.5,0,0,1,0-5H629a2.5,2.5,0,0,1,0,5Z"/><path class="cls-7" d="M582,705.8H442.18c.95-7.75,4.25-24.84,18-38.84,19-19.36,50.12-24.79,79.43-14.12L582,673.47Z"/><path class="cls-5" d="M482.59,705.8l11.76-11.75a7.86,7.86,0,0,0,1.95-8.22c-1.11-3-4.3-5.91-12.6-5.51,0,0-17.56-1.29-33.37,14.36,0,0-20.14-19.22-37.81,11.12Z"/><path class="cls-4" d="M397,705.78a2.51,2.51,0,0,1-2.45-2l-4.48-21.47a2.5,2.5,0,1,1,4.89-1l4.49,21.47a2.5,2.5,0,0,1-1.94,3A2.21,2.21,0,0,1,397,705.78Z"/><path class="cls-4" d="M459,706.23a2.49,2.49,0,0,1-1.8-.76l-8.7-9.06a2.5,2.5,0,1,1,3.61-3.46l8.7,9a2.49,2.49,0,0,1-1.81,4.23Z"/><polygon class="cls-3" points="851.9 215.05 732.45 295.08 874.68 354.02 851.9 215.05"/><circle class="cls-3" cx="509.59" cy="678.74" r="10.1"/><path class="cls-5" d="M479.63,705.8h77.94c3.62-3.51,8-8.38,8.2-13.71.25-6.25-6.58-8.44-11.67-8.85A24.6,24.6,0,0,0,543,685c-3.82,1.56-6.78,4.21-9.91,6.82-.19.16-3,2.7-2.93,2.75S495.51,674.58,479.63,705.8Z"/><circle class="cls-5" cx="851.9" cy="215.05" r="17.38"/><rect class="cls-5" x="786.4" y="246.98" width="34.43" height="158.56" rx="10.92" transform="translate(186.54 935.73) rotate(-66.74)"/><path class="cls-4" d="M478.65,704.83a2.47,2.47,0,0,1-2-1l-13.29-17.58a2.5,2.5,0,1,1,4-3l13.29,17.58a2.51,2.51,0,0,1-2,4Z"/><path class="cls-4" d="M583.88,520.5H379.64V456.36a24.12,24.12,0,0,1,24.13-24.12h156a24.12,24.12,0,0,1,24.13,24.12Z"/><rect class="cls-5" x="347.76" y="520.5" width="267.22" height="20.28" rx="10.14"/><path class="cls-3" d="M417.19,392.62,406.7,408.38c-7.44,11.15-2.66,26.68,10,31a20.45,20.45,0,0,0,4.59,1,21.64,21.64,0,0,0,14.05-3.64c9.24-6.11,11.66-18.65,5.82-28.07l-9.84-15.85A8.42,8.42,0,0,0,417.19,392.62Z"/><circle class="cls-6" cx="430.75" cy="412.4" r="3.96"/><circle class="cls-6" cx="415.73" cy="420.33" r="3.96"/><circle class="cls-6" cx="428.69" cy="427.1" r="3.96"/><path class="cls-3" d="M477.1,392.62l-10.49,15.76c-7.43,11.15-2.65,26.68,10,31a20.45,20.45,0,0,0,4.59,1,21.61,21.61,0,0,0,14-3.64c9.24-6.11,11.66-18.65,5.82-28.07l-9.84-15.85A8.42,8.42,0,0,0,477.1,392.62Z"/><circle class="cls-6" cx="490.66" cy="412.4" r="3.96"/><circle class="cls-6" cx="475.65" cy="420.33" r="3.96"/><circle class="cls-6" cx="488.6" cy="427.1" r="3.96"/><path class="cls-3" d="M537,392.62l-10.5,15.76c-7.43,11.15-2.65,26.68,10,31a20.54,20.54,0,0,0,4.6,1,21.59,21.59,0,0,0,14-3.64c9.24-6.11,11.67-18.65,5.83-28.07l-9.84-15.85A8.42,8.42,0,0,0,537,392.62Z"/><circle class="cls-6" cx="550.58" cy="412.4" r="3.96"/><circle class="cls-6" cx="535.56" cy="420.33" r="3.96"/><circle class="cls-6" cx="548.52" cy="427.1" r="3.96"/><path class="cls-3" d="M420.43,520.58a2.5,2.5,0,0,1-2.5-2.5V481.64a2.5,2.5,0,0,1,5,0v36.44A2.5,2.5,0,0,1,420.43,520.58Z"/><path class="cls-3" d="M461.32,520.58a2.5,2.5,0,0,1-2.5-2.5V481.64a2.5,2.5,0,0,1,5,0v36.44A2.5,2.5,0,0,1,461.32,520.58Z"/><ellipse class="cls-6" cx="400.03" cy="481.64" rx="20.39" ry="12.75"/><path class="cls-3" d="M502.21,520.58a2.49,2.49,0,0,1-2.5-2.5V481.64a2.5,2.5,0,0,1,5,0v36.44A2.5,2.5,0,0,1,502.21,520.58Z"/><ellipse class="cls-6" cx="440.82" cy="481.64" rx="20.39" ry="12.75"/><path class="cls-3" d="M543.1,520.58a2.49,2.49,0,0,1-2.5-2.5V481.64a2.5,2.5,0,0,1,5,0v36.44A2.5,2.5,0,0,1,543.1,520.58Z"/><ellipse class="cls-6" cx="481.99" cy="481.64" rx="20.39" ry="12.75"/><ellipse class="cls-6" cx="563.49" cy="481.64" rx="20.39" ry="12.75"/><ellipse class="cls-6" cx="522.7" cy="481.64" rx="20.39" ry="12.75"/><path class="cls-3" d="M583.88,484.14H379.64a2.5,2.5,0,0,1,0-5H583.88a2.5,2.5,0,0,1,0,5Z"/><path class="cls-8" d="M195.36,322.16H304.64a0,0,0,0,1,0,0V500.81a0,0,0,0,1,0,0h-121a24.19,24.19,0,0,1-24.19-24.19V358A35.87,35.87,0,0,1,195.36,322.16Z" transform="translate(464.13 822.97) rotate(-180)"/><rect class="cls-8" x="159.49" y="476.37" width="82.87" height="46.7"/><path class="cls-3" d="M256.75,469.31a17.79,17.79,0,0,1-15.26-9,2.5,2.5,0,0,1,4.33-2.5,12.71,12.71,0,0,0,11.93,6.45c6-.52,9.19-5.53,9.53-6.1a2.5,2.5,0,0,1,4.28,2.59c-.78,1.29-5.09,7.77-13.38,8.49A13.83,13.83,0,0,1,256.75,469.31Z"/><path class="cls-3" d="M242.36,500.81H192.8a2.08,2.08,0,0,0-.71,4l50.27,18.21Z"/><path class="cls-2" d="M324.3,328.47c-.39-10.78-6.07-23.22-17.27-29.83-10-5.93-20.24-4.64-24.18-4.08-12.65,1.78-29.36,10.16-35.54,24.55a30.27,30.27,0,0,0-40.48-1.48v-1.85H152.75a14.39,14.39,0,0,0-14.39,14.39v73.39h29a39.51,39.51,0,0,0,39.51-39.46,30.29,30.29,0,0,0,46.68-10c7.85,9.75,20.2,16.38,33.57,15.6C309,368.39,325,347.77,324.3,328.47Z"/><rect class="cls-1" x="159.49" y="523.06" width="82.87" height="22.8"/><path class="cls-2" d="M215.07,548.37a2.51,2.51,0,0,1-2.23-3.62L223.72,523l10.65,21.3a2.5,2.5,0,0,1-4.48,2.24l-6.17-12.35L217.31,547A2.5,2.5,0,0,1,215.07,548.37Z"/><path class="cls-8" d="M347.76,587.33s31.23-46.55,68.89-46.55h56.78a9.69,9.69,0,0,1,9.21,3.49,9.88,9.88,0,0,1,1.72,7.87l43.52-9.72c1-.32,13.79-4.31,21.72,3.13a16.1,16.1,0,0,1,3.79,5.51,11.59,11.59,0,0,1,9,7.87q.14.45.24.9A10.44,10.44,0,0,1,555.25,572l-84.15,25.2a197.3,197.3,0,0,0-77.81,43.44Z"/><path class="cls-2" d="M145.51,739.42l-37.51-91a2.5,2.5,0,1,1,4.63-1.91l34.86,84.6L311.24,589.66a2.5,2.5,0,0,1,3.27,3.79Z"/><path class="cls-4" d="M472.16,573.77a2.5,2.5,0,0,1-.3-5c69-8.58,77.92-16.18,79-17.68a2.51,2.51,0,0,1,4.74-1.17,3.63,3.63,0,0,1-.21,3.35c-2.66,5-19.2,12.53-82.95,20.46Zm79-21.59h0Zm0,0h0Zm0,0Z"/><path class="cls-4" d="M449.21,560.43a2.5,2.5,0,0,1-.4-5l35.15-5.8a2.5,2.5,0,0,1,.81,4.94l-35.15,5.79A2.83,2.83,0,0,1,449.21,560.43Z"/><ellipse class="cls-3" cx="748.32" cy="690.39" rx="7.31" ry="6.51"/><ellipse class="cls-3" cx="743.32" cy="734.63" rx="7.31" ry="6.51"/><path class="cls-5" d="M249.19,807.8l-62-87s-15,18-1.31,34.06c0,0-12.11,19.37,10.65,30Z"/><path class="cls-7" d="M220,747.05l-28.2-91.14a7.08,7.08,0,0,0-13.52,4.19l27.61,89.2,8.37,27.06c4.79.74,9.95,1.41,15.44,2Z"/><path class="cls-1" d="M292.13,781.44c-59.22,0-108-7.49-114.5-17.13l36.94,109h149l42.84-108.63C398.89,774.14,350.6,781.44,292.13,781.44Z"/><path class="cls-2" d="M445.45,693.82a2.36,2.36,0,0,1-.82-.14,2.5,2.5,0,0,1-1.54-3.18c11.34-32.69,39.13-41.17,44.58-42.54.86-.21,1.71-.45,2.56-.7,36.24-10.44,77.87,14.08,89.77,21.85a13.31,13.31,0,0,0,6.42,2.15l10.26.66a2.5,2.5,0,0,1-.32,5l-10.26-.66a18.5,18.5,0,0,1-8.84-3c-11.44-7.47-51.44-31.09-85.65-21.23-.9.26-1.81.51-2.72.74-5,1.26-30.58,9.07-41.08,39.33A2.51,2.51,0,0,1,445.45,693.82Z"/><circle class="cls-2" cx="381.68" cy="650.3" r="7.33"/><path class="cls-2" d="M628.49,678H614.27a2.5,2.5,0,0,1,0-5H626.5l.46-.41c12.31-9.48,24.61-2.12,25.13-1.81a2.5,2.5,0,0,1-2.61,4.27,17.65,17.65,0,0,0-19.37,1.42Z"/><circle class="cls-2" cx="515.13" cy="609.72" r="6.59"/><circle class="cls-2" cx="497.75" cy="626.88" r="6.18"/><path class="cls-6" d="M876.7,506.44H860.12a2.5,2.5,0,0,1,0-5H876.7a2.5,2.5,0,0,1,0,5Z"/><path class="cls-2" d="M510.63,208.23q-13.35,0-26.69-.38A935.2,935.2,0,0,1,139,131.28a2.5,2.5,0,0,1,2-4.59,930.32,930.32,0,0,0,343.11,76.16A932.93,932.93,0,0,0,721.4,179.06a943.42,943.42,0,0,0,159.52-52.37,2.5,2.5,0,0,1,2,4.59,948.69,948.69,0,0,1-160.37,52.65A938.25,938.25,0,0,1,510.63,208.23Z"/><path class="cls-5" d="M888.79,862.67H742.15a20.73,20.73,0,0,1-20.73-20.73v-67.6a20.73,20.73,0,0,1,20.73-20.73H939.54v58.31A50.75,50.75,0,0,1,888.79,862.67Z"/><path class="cls-4" d="M753.93,856.06a2.5,2.5,0,0,1-2.5-2.5V763.38a2.5,2.5,0,0,1,5,0v90.18A2.5,2.5,0,0,1,753.93,856.06Z"/><path class="cls-1" d="M845.38,291.8a19.81,19.81,0,0,1-2.43-.15c-9.43-1.18-16.9-8.89-18.78-18.72-8.35,5.32-18.85,5.36-25.92-.35-8-6.45-7.44-17.29-7.35-18.51a2.5,2.5,0,0,1,5,.36c-.07.95-.51,9.41,5.5,14.26,6.26,5.06,16.2,4.06,23.12-2.31l4.15-3.83,0,5.65c.07,9.33,6.6,17.45,14.87,18.49,5.88.73,12-2.17,15.91-7.59a2.5,2.5,0,1,1,4,2.94A22.74,22.74,0,0,1,845.38,291.8Z"/><path class="cls-4" d="M206.08,365.07a2.51,2.51,0,0,1-1.49-.49c-.4-.3-9.94-7.5-11.31-19.17a2.5,2.5,0,0,1,5-.58c1.11,9.48,9.25,15.68,9.33,15.74a2.5,2.5,0,0,1-1.5,4.5Z"/><path class="cls-4" d="M888.2,756.11H845a2.5,2.5,0,0,1,0-5H888.2a2.5,2.5,0,0,1,0,5Z"/><circle class="cls-8" cx="159.49" cy="413.2" r="27.43"/><path class="cls-3" d="M161.11,425.54a9.08,9.08,0,0,1-8.92-10.7h0a9.06,9.06,0,0,1,10.55-7.29,9.07,9.07,0,0,1-1.63,18Zm-4-9.8a4.07,4.07,0,1,0,4.74-3.27,4.08,4.08,0,0,0-4.74,3.27Z"/><path class="cls-3" d="M148.26,416.87a2.6,2.6,0,0,1-1-.2,2.5,2.5,0,0,1-1.32-3.28,12.64,12.64,0,0,1,11.76-7.73h.12a12.67,12.67,0,0,1,11.78,7.54,2.5,2.5,0,1,1-4.57,2,7.77,7.77,0,0,0-7.22-4.57h-.07a7.75,7.75,0,0,0-7.2,4.68A2.51,2.51,0,0,1,148.26,416.87Z"/></svg>