<svg id="Layer_2" data-name="Layer 2" xmlns="http://www.w3.org/2000/svg" viewBox="0 0 1000 1000"><defs><style>.cls-1{fill:#edead9;}.cls-2{fill:#ffaabe;}.cls-3{fill:#3a140f;}.cls-4{fill:#bc4632;}.cls-5{fill:#fd510c;}.cls-6{fill:#ff9191;}.cls-7{fill:#129277;}.cls-8{fill:#ee9334;}</style></defs><path class="cls-1" d="M760.78,805.63H243.68V414c0-154.61,115.76-279.95,258.55-279.95h0c142.8,0,258.55,125.34,258.55,280Z"/><path class="cls-2" d="M502.23,185.36h0A189.58,189.58,0,0,1,691.81,374.94v0a0,0,0,0,1,0,0H312.66a0,0,0,0,1,0,0v0A189.58,189.58,0,0,1,502.23,185.36Z"/><path class="cls-3" d="M722,293.85l-68.21-21.91a50.55,50.55,0,0,0-51.65,12.83l-1.51-.42A37.75,37.75,0,0,0,554,310.48l-5.93,21.1a30.36,30.36,0,0,0,21,37.44l.33.09-22.27,69.32L663.52,475.8a50.56,50.56,0,0,0,63.6-32.68l27.52-85.67A50.55,50.55,0,0,0,722,293.85Z"/><path class="cls-4" d="M333.9,292.5a45.33,45.33,0,1,0-50.75,25.66l12,59.65a40,40,0,0,0,47.11,31.31l14.52-2.93Z"/><path class="cls-5" d="M274.36,429.26s23.07-13,60,2l96,6.74s66.06-11,110,3.38l163.74,30.84-54.68,89.89-354.84-69-25.86-43.32Z"/><circle class="cls-3" cx="788.23" cy="299.44" r="71.24"/><path class="cls-4" d="M677.79,393l16.62-59.12L615.59,311.7a42.42,42.42,0,0,0-52.32,29.35l-23.16,82.39a29.42,29.42,0,0,0,20.36,36.29l91.34,25.67,12.36-44A25.51,25.51,0,1,0,677.79,393Z"/><path class="cls-3" d="M676,427.56a9.24,9.24,0,1,1,9.11-10.9h0a9.23,9.23,0,0,1-7.43,10.74A8.69,8.69,0,0,1,676,427.56Zm0-13.48a5.12,5.12,0,0,0-.77.07,4.24,4.24,0,0,0-3.4,4.93,4.24,4.24,0,0,0,4.92,3.41,4.23,4.23,0,0,0,3.41-4.93h0a4.26,4.26,0,0,0-4.16-3.48Z"/><path class="cls-3" d="M689.17,418.66a2.5,2.5,0,0,1-2.3-1.52,8,8,0,0,0-7.44-4.84h-.07A8,8,0,0,0,671.9,417a2.5,2.5,0,0,1-4.57-2,13.25,13.25,0,0,1,24.14.2,2.49,2.49,0,0,1-1.32,3.27A2.42,2.42,0,0,1,689.17,418.66Z"/><path class="cls-3" d="M682.06,322.65a40.66,40.66,0,1,0-58.57,43.54,40.66,40.66,0,1,0,58.57-43.54Z"/><path class="cls-3" d="M578.56,435.44a17.26,17.26,0,0,1-5.88-1c-8-2.9-10.52-10.44-10.95-11.92a2.5,2.5,0,1,1,4.8-1.39c.19.66,2,6.49,7.86,8.61a13.08,13.08,0,0,0,13.6-3.24,2.5,2.5,0,0,1,3.53,3.54A18.41,18.41,0,0,1,578.56,435.44Z"/><rect class="cls-4" x="564.53" y="453.71" width="85.85" height="81.25" transform="translate(-15.27 969.28) rotate(-76.47)"/><path class="cls-3" d="M573.14,463.29l42,6.2a1.54,1.54,0,0,1,.15,3l-47.21,11.78Z"/><rect class="cls-6" x="329.09" y="369.77" width="94.66" height="80.77" transform="translate(-67.59 74.33) rotate(-10.35)"/><path class="cls-6" d="M465.73,374.84l-16.91-83.9a42.43,42.43,0,0,0-50-33.2l-80.26,16.18,12.73,63.16A27.58,27.58,0,1,0,339.78,379l9.92,49.22,93-18.75A29.42,29.42,0,0,0,465.73,374.84Z"/><path class="cls-5" d="M416.33,387.38a17.36,17.36,0,0,1-13.87-7.05,2.5,2.5,0,0,1,4-3A12.38,12.38,0,0,0,419.33,382a12.25,12.25,0,0,0,8.66-8.77,2.5,2.5,0,1,1,4.83,1.29,17.26,17.26,0,0,1-12.23,12.32A16.77,16.77,0,0,1,416.33,387.38Z"/><path class="cls-5" d="M320,370.6a9.23,9.23,0,1,1,9.24-9.23A9.24,9.24,0,0,1,320,370.6Zm0-13.46a4.23,4.23,0,1,0,4.24,4.23A4.23,4.23,0,0,0,320,357.14Z"/><path class="cls-5" d="M784.58,698.91c5.12-40.61,14.73-89.75-6.5-127.55-17.81-31.73-68.54-48.77-104.11-49.54L656.06,719.49c-1.13,77.06,31.44,127.23,60.38,128.44,30.35,1.27,55.86-51.32,58.15-56.16,1.18-8.9,2.94-21.62,4.53-37C781.05,736.18,782.24,717.48,784.58,698.91Z"/><path class="cls-5" d="M306.77,361.62a2.59,2.59,0,0,1-1-.2,2.51,2.51,0,0,1-1.33-3.28,12.9,12.9,0,0,1,12-7.88h.12a12.93,12.93,0,0,1,12,7.69,2.5,2.5,0,0,1-4.57,2,8.25,8.25,0,0,0-15,.11A2.48,2.48,0,0,1,306.77,361.62Z"/><path class="cls-7" d="M337.12,458.4l93.12-17,3.27,17s13.27-.38,41.5-3.64a32.15,32.15,0,0,1,35.6,35.94L471.45,805.63l-202.69,2.22L213.38,503.4l125.67-22.83Z"/><path class="cls-5" d="M471.45,805.63l-30.07-89.76a174.59,174.59,0,0,1,11.77-138L486,516.64,674,521.82,650.76,805.94Z"/><path class="cls-5" d="M644.24,699.65l-96.71,41q9.3,29.67,18.59,59.33c8.16,26.05,19.12,52.55,38,72.78,33.61,36.08,100.8,43.74,135.62,5.58,21.08-23.09,29.95-55.06,34.87-86.61Z"/><path class="cls-6" d="M399.72,588.27S419.85,478.6,472.66,453l47.7,50c-5.28,32.4-12.34,57.13-18.06,70.14C497.55,584,495.08,589.56,489,593c-3.06,1.72-7.57,3.21-11,8a20,20,0,0,0-3.35,8.13C450,600.61,424.32,596.76,399.72,588.27Z"/><path class="cls-4" d="M417.4,197a45.32,45.32,0,0,0-39.12,22.42A45.35,45.35,0,1,0,392,280,45.36,45.36,0,1,0,417.4,197Z"/><path class="cls-5" d="M425.39,413l-50.08,10.1a2,2,0,0,0,.06,4l53.91,9.07Z"/><rect class="cls-1" x="423.64" y="557.42" width="24.58" height="102.76" transform="translate(-280.71 825.83) rotate(-71.24)"/><path class="cls-8" d="M260.34,494.87c-12.71,2.2-36.39,6.27-67.18,11.36C160.64,511.61,140.3,525,140.52,561c.15,23,6.95,46.18,14.72,67.61,21.53,59.4,47.83,116.92,73.69,174.56,12.16,27.12,25.3,55.61,49.59,72.72,10.27-4.87,46-23.39,65.46-66.07,23.88-52.5,4.53-100.93,1.13-109.07Z"/><path class="cls-8" d="M376.42,594.48q-15.66,53.12-31.31,106.23L278.52,875.85c18.1,12.74,40.77,17.75,62.9,17.75,23.18,0,47-5.52,65.38-19.66,19.22-14.78,30.69-37.43,39.14-60.16,21.58-58,27.3-120.7,44.23-180.26Z"/><path class="cls-1" d="M300.37,565.47a20.84,20.84,0,0,0,2.34-9.59c0-10.82-8.31-19.86-19.36-22,0-.16,0-.32,0-.48,0-9.06-5.83-16.87-14.22-20.42a21,21,0,0,0,3.73-11.93c0-12.4-10.91-22.46-24.38-22.46-11.05,0-20.38,6.78-23.37,16.08a26.35,26.35,0,0,0-4.2-.34c-13.47,0-24.38,10.05-24.38,22.46a21.88,21.88,0,0,0,9.74,18,21,21,0,0,0-3.92,12.2c0,12.41,10.92,22.46,24.38,22.46h.47c0,12.41,10.91,22.47,24.38,22.47a26.22,26.22,0,0,0,9.27-1.69c3.67,8.11,12.36,13.82,22.5,13.82,13.46,0,24.38-10.06,24.38-22.47A21.59,21.59,0,0,0,300.37,565.47Z"/><path class="cls-4" d="M552.75,487.79,504.07,474.6,468.4,495.19s4.69,57.59,22.38,83.51A194.68,194.68,0,0,1,512.89,623l5.55,15.49,58.5-20.53-9.37-28.14a71.71,71.71,0,0,1-3.39-29.23C565.11,550.48,563.65,529.84,552.75,487.79Z"/><path class="cls-3" d="M313,785.51a2.43,2.43,0,0,1-.84-.14,2.5,2.5,0,0,1-1.51-3.2l33.25-92.71a2.5,2.5,0,1,1,4.7,1.69l-33.25,92.71A2.49,2.49,0,0,1,313,785.51Z"/><path class="cls-6" d="M482.42,450.93a27.55,27.55,0,0,1,6.78-1.48c20.92-1.78,35.91,21.88,40.62,29.32a19.5,19.5,0,0,1,2.07,5.66c1,5-1,10.73-7,9.81-5.87-.89-9.87-7.5-16.05-15.11-8.65-10.65-23.55-25.64-24.32-27.14l-.47-.6h0Z"/><path class="cls-6" d="M518.55,449c8.85,4,15.4,7.7,21.71,15.16a57.11,57.11,0,0,1,9.36,15.64c2,5.06,4.79,12.14,1.85,17.35a6.34,6.34,0,0,1-3.91,3.25c-1.92.35-3.85-1.11-5-2.53-2-2.59-2.55-6.23-3.46-9.31-2.07-7-4.24-14.14-7.54-20.74a64.78,64.78,0,0,0-3.47-6.13c-1.53-2.36-3.16-4.65-4.87-6.88-1-1.27-2-2.52-3-3.75-.57-.7-1.14-1.38-1.72-2.06C518.12,448.46,519.13,449.22,518.55,449Z"/><path class="cls-6" d="M475.94,475.87l24.9,32.24a7.45,7.45,0,1,0,10.79-10.27S494.41,475.52,478,469.61Z"/><path class="cls-4" d="M475.94,475.87c-3.17-3.66-7.76-4.87-11.05-3.25s-4.05,5.4-4.12,5.73c-.57,3,.87,5.66,3.79,10.83a66.89,66.89,0,0,0,3.84,6L493,498Z"/><path class="cls-4" d="M484,451.39c-5-1.73-10.07-.41-12.24,2.71-2.88,4.16-1,12.15,6.18,15.51,4.49,2.08,9.58,5.6,15,9.37,8,5.51,17.74,14.25,21.61,22.9l2.46-12.23A498.46,498.46,0,0,0,484,451.39Z"/><path class="cls-4" d="M518.55,449s-10-7.6-23-7.35c0,0-9.08.68-6.37,7.84a33.33,33.33,0,0,1,12.36,1.91c5.74,2.07,9.37,5.22,12.45,7.89,3.3,2.86,5.89,6.12,11.09,12.63.2.26,1.56,2,3.11,4.38,2.3,3.59,3.34,6.1,3.78,8.76l0,.12,6.58,1.54S531.68,459,518.55,449Z"/><path class="cls-2" d="M205.3,674.21a99.49,99.49,0,0,0-16.54,35l122.73,20.24c-.58-.1,11.5-19.85,12.76-21.31,11-12.72,25.89-18.88,41-24.86L233,649A98.59,98.59,0,0,0,205.3,674.21Z"/><path class="cls-1" d="M323,596.18c-14.23,18.7-33.82,29.63-46.16,35.13a97.75,97.75,0,0,1-14.57,5.16A112.2,112.2,0,0,0,233,649l132.22,34.21c11.67-4.62,23.46-9.14,33.65-16.5,17-12.29,28.43-28.63,35.81-46.9Z"/><path class="cls-2" d="M446.7,548.55,340.46,538.47a88,88,0,0,1-3.88,31.79A85.65,85.65,0,0,1,323,596.18l111.67,23.66C443.63,597.69,446.7,572.7,446.7,548.55Z"/><path class="cls-1" d="M540.9,655.54s12.91-33,45.15-15.48c.39-1.41,4.39-15.22,18.17-20.36a29.2,29.2,0,0,1,19-.39L617.29,594s-28.1-8.85-42.18,19c0,0-33.4-13.05-43,17.85,0,0-35.93-10.65-42.11,22.66L505.1,675.2a24.52,24.52,0,0,1,3.84-9.55C515.4,656.22,528.29,652,540.9,655.54Z"/><path class="cls-5" d="M638.81,686.51l-15.63-67.2a29.2,29.2,0,0,0-19,.39c-13.78,5.14-17.78,18.95-18.17,20.36-32.24-17.48-45.15,15.48-45.15,15.48-12.61-3.55-25.5.68-32,10.11a24.52,24.52,0,0,0-3.84,9.55l36.37,52.45Z"/><rect class="cls-1" x="540.86" y="707.9" width="105.06" height="12.78" transform="translate(-231.9 288.6) rotate(-23)"/><path class="cls-3" d="M697.78,789.59a2.5,2.5,0,0,1-2.23-1.37l-39.34-77.3a2.5,2.5,0,0,1,4.45-2.27L700,786a2.5,2.5,0,0,1-1.1,3.36A2.42,2.42,0,0,1,697.78,789.59Z"/><path class="cls-3" d="M410.14,470.91a2.49,2.49,0,0,1-2.44-2l-4.34-20.69a2.5,2.5,0,1,1,4.9-1l4.33,20.69a2.51,2.51,0,0,1-1.93,3A3.15,3.15,0,0,1,410.14,470.91Z"/><path class="cls-2" d="M767.43,694.14a268.5,268.5,0,0,1-46-51.34l-104.21,15c12.23,25.23,29.12,51,51.74,68.6l115.37-16.62C779.13,704.59,773.51,699.37,767.43,694.14Z"/><path class="cls-1" d="M692,570l-102.2,7.41a365.67,365.67,0,0,0,27.49,80.39l104.21-15C707.52,622.4,695.06,597.28,692,570Z"/><path class="cls-2" d="M725.17,804.29a196.88,196.88,0,0,1,9.16,67.79l113.88-19.92s4-26.37-10.74-64Z"/><path class="cls-1" d="M784.35,709.79,669,726.41c1.72,1.33,3.46,2.62,5.24,3.85a116.25,116.25,0,0,1,27,25.54c8.14,10.86,17.32,27.59,24,48.49l112.3-16.18C828.47,765.08,812.49,737.83,784.35,709.79Z"/><path class="cls-1" d="M433.36,481.06s-43.45-29.23-93.49-30.15V555.59a231.46,231.46,0,0,1,72.52,25.87l2.6,1.48a157.74,157.74,0,0,0,21.44,9.44V482.92C435.39,482.32,434.37,481.7,433.36,481.06Z"/><path class="cls-2" d="M325.65,451.44a85.62,85.62,0,0,1-33-3.13c-11.33-3.44-21.79-9.31-18.28-19.05,0,0-20.92,4.73-16.87,40.06,0,0,6.28,56.33,6.3,56.47A34.21,34.21,0,0,0,272,544.25c7.37,8.25,18.82,9.11,29.17,9,11.71-.17,22.66-.22,34.3,1.63,1.48.23,3,.49,4.43.75V450.91A126,126,0,0,0,325.65,451.44Z"/><path class="cls-2" d="M436.43,482.92V592.38c21.92,8,58.12,16.84,96.55,7.87V499.84C510,501.23,467.23,500.82,436.43,482.92Z"/><path class="cls-1" d="M555.72,496.53a145.57,145.57,0,0,1-22.45,3.3H533V600.25c2-.45,3.93-1,5.9-1.51a351.64,351.64,0,0,1,53.33-10.87c14.62-1.74,27-3.18,37.33-4.36V494.73C606.41,493.09,575.51,492.15,555.72,496.53Z"/><path class="cls-2" d="M716.34,483.37a15.3,15.3,0,0,0-3.27-8.34c-3.92-4.62-10.39-5.4-15.94-6.81-5.08-1.3-10.16-2.58-15.26-3.78-2-.47-22.45-6.12-23.23-3.35l-3.57,12.69s24.55,11.51,13.37,19.82A18.78,18.78,0,0,1,655.18,497c-5.46-.61-14.68-1.54-25.64-2.31v88.78c26-3,39.17-4.25,42.9-4.31a41.41,41.41,0,0,0,9.31-1.14,47.88,47.88,0,0,0,10.2-3.88c10.08-5.5,9.19-29.18,17.54-60.2C712.17,504,717.43,494,716.34,483.37Z"/><path class="cls-3" d="M567.55,807a2.5,2.5,0,0,1-2.39-1.75l-20-63.68-4.85-11.41-37.29-53.52a2.5,2.5,0,0,1,4.1-2.86l37.59,54L549.92,740l20,63.79a2.51,2.51,0,0,1-1.63,3.14A2.78,2.78,0,0,1,567.55,807Z"/><path class="cls-8" d="M284,382.55,250,388.21a1.17,1.17,0,0,0-.82,1.74l10.34,18.16a1.17,1.17,0,0,1-1.6,1.6l-18.13-10.32a1.17,1.17,0,0,0-1.74.84L232.32,439a1.17,1.17,0,0,1-2.32,0l-5.69-38.74a1.17,1.17,0,0,0-1.74-.84l-18.13,10.32a1.17,1.17,0,0,1-1.6-1.6L213.18,390a1.17,1.17,0,0,0-.84-1.73l-36.1-5.68a1.17,1.17,0,0,1,0-2.32l36.1-5.67a1.18,1.18,0,0,0,.84-1.74l-10.34-18.15a1.17,1.17,0,0,1,1.6-1.6l18.13,10.32a1.17,1.17,0,0,0,1.74-.85L230,322.45a1.17,1.17,0,0,1,2.32,0L238,362.54a1.18,1.18,0,0,0,1.75.85l18.12-10.32a1.17,1.17,0,0,1,1.6,1.6l-10.34,18.17a1.16,1.16,0,0,0,.82,1.73L284,380.24A1.17,1.17,0,0,1,284,382.55Z"/><path class="cls-8" d="M852,609.76l-34.05,5.67a1.17,1.17,0,0,0-.83,1.74l10.34,18.16a1.17,1.17,0,0,1-1.6,1.6L807.68,626.6a1.17,1.17,0,0,0-1.74.85l-5.69,38.74a1.17,1.17,0,0,1-2.32,0l-5.68-38.74a1.17,1.17,0,0,0-1.74-.85l-18.14,10.33a1.17,1.17,0,0,1-1.6-1.6l10.34-18.15a1.18,1.18,0,0,0-.84-1.74l-36.09-5.67a1.17,1.17,0,0,1,0-2.32l36.09-5.68a1.17,1.17,0,0,0,.84-1.73l-10.34-18.15a1.17,1.17,0,0,1,1.6-1.6l18.13,10.32a1.17,1.17,0,0,0,1.74-.85l5.69-40.09a1.17,1.17,0,0,1,2.32,0l5.7,40.09a1.17,1.17,0,0,0,1.74.85l18.12-10.32a1.17,1.17,0,0,1,1.6,1.6l-10.34,18.16a1.18,1.18,0,0,0,.83,1.74L852,607.45A1.17,1.17,0,0,1,852,609.76Z"/><path class="cls-7" d="M473.68,149.52c-3.48-2-8.61-.29-11.4,1.21a34.42,34.42,0,0,0-5.39,3.65,3.44,3.44,0,0,1-5.57-3.06,33.72,33.72,0,0,0,.19-6.51c-.23-3.13-1.58-8.33-5.09-10.27s-9.54-.29-15.64,4.65a3.42,3.42,0,0,1-5.55-2.9,39.52,39.52,0,0,0-3-18.36,39.06,39.06,0,0,0-4.69-8.11,3.42,3.42,0,0,1,3-5.46A37.74,37.74,0,0,0,445.9,97a3.42,3.42,0,0,1,5.42,2.73c0,6.57,3.18,12.38,7.67,14.76,4.93,2.61,12.3,1.54,18-3a2.83,2.83,0,0,1,4.64,2.28,32.68,32.68,0,0,0,1.07,9.8c1.23,4.5,2.71,5.53,3.59,5.93,3,1.31,6.14,1.38,10.63-.82a3.42,3.42,0,0,1,4.82,2.08,125.16,125.16,0,0,1,4.19,24.56l0,.33c.93,5,1.76,11.44-.38,12.4s-5.09-4.8-10.26-5.94c-2.63-.58-6.4-.09-11.74,4.2a3.43,3.43,0,0,1-5.59-2.91C478.58,156.56,477,151.37,473.68,149.52Z"/><path class="cls-7" d="M546.69,150.57c3.47-2,8.61-.32,11.41,1.16a35.43,35.43,0,0,1,5.41,3.62,3.42,3.42,0,0,0,5.54-3.08,35.55,35.55,0,0,1-.22-6.51c.22-3.13,1.54-8.34,5-10.29s9.53-.34,15.66,4.56a3.42,3.42,0,0,0,5.54-2.92,38.93,38.93,0,0,1,7.56-26.51,3.42,3.42,0,0,0-3-5.44,37.83,37.83,0,0,1-25.43-7.23,3.42,3.42,0,0,0-5.41,2.76c0,6.57-3.12,12.4-7.6,14.8-4.91,2.63-12.29,1.6-18-2.95a2.83,2.83,0,0,0-4.64,2.3,32.65,32.65,0,0,1-1,9.81c-1.22,4.51-2.69,5.55-3.57,5.95-3,1.32-6.13,1.41-10.63-.77a3.42,3.42,0,0,0-4.81,2.11,124.39,124.39,0,0,0-4.07,24.58l0,.32c-.91,5-1.7,11.46.44,12.4s5.07-4.83,10.23-6c2.63-.59,6.4-.11,11.76,4.14a3.43,3.43,0,0,0,5.58-2.93C541.83,157.64,543.42,152.45,546.69,150.57Z"/><path class="cls-3" d="M542.52,141a2.5,2.5,0,0,1-1.17-4.71L586,112.71a2.51,2.51,0,0,1,2.34,4.43l-44.69,23.59A2.44,2.44,0,0,1,542.52,141Z"/><path class="cls-3" d="M480.81,142.35a2.44,2.44,0,0,1-1.17-.29L435,118.46a2.5,2.5,0,1,1,2.33-4.42L482,137.64a2.5,2.5,0,0,1-1.17,4.71Z"/><circle class="cls-5" cx="495.12" cy="142.86" r="16.55"/><circle class="cls-5" cx="510.17" cy="170.81" r="16.55"/><circle class="cls-5" cx="526.58" cy="142.96" r="16.55"/></svg>