<svg id="Layer_2" data-name="Layer 2" xmlns="http://www.w3.org/2000/svg" viewBox="0 0 1000 1000"><defs><style>.cls-1{fill:#bc4632;}.cls-2{fill:#3a140f;}.cls-3{fill:#ff9191;}.cls-4{fill:#129277;}.cls-5{fill:#edead9;}.cls-6{fill:#ee9334;}.cls-7{fill:#ffaabe;}.cls-8{fill:#fd510c;}</style></defs><circle class="cls-1" cx="342.89" cy="274.16" r="26.91"/><path class="cls-2" d="M84.36,905.51a2.5,2.5,0,0,1-2.48-2.18L79.15,882a2.49,2.49,0,1,1,4.95-.63l2.74,21.35a2.5,2.5,0,0,1-2.16,2.8Z"/><path class="cls-2" d="M219,880.27a2.49,2.49,0,0,1-2.46-2.12l-2.33-15.31a2.5,2.5,0,0,1,4.94-.75l2.33,15.3a2.5,2.5,0,0,1-2.1,2.85A2.34,2.34,0,0,1,219,880.27Z"/><path class="cls-2" d="M484,774.66a2.5,2.5,0,0,1-1.77-.74l-10.9-11a2.5,2.5,0,0,1,3.55-3.53l10.9,11a2.51,2.51,0,0,1-1.78,4.27Z"/><path class="cls-2" d="M386,868.71a2.48,2.48,0,0,1-1.86-.83l-10.06-11.15a2.5,2.5,0,0,1,3.72-3.35l10.05,11.16a2.49,2.49,0,0,1-1.85,4.17Z"/><polygon class="cls-3" points="144.3 776.71 146.78 794.72 212.97 786.56 210.96 771.32 144.3 776.71"/><polygon class="cls-3" points="425.86 703.53 414.2 690.17 362.8 732.85 377.45 747.2 425.86 703.53"/><ellipse class="cls-1" cx="210.11" cy="207.8" rx="37.55" ry="40.11"/><path class="cls-2" d="M866.72,795.26a2.49,2.49,0,0,1-2.08-1.11l-9-13.42a2.5,2.5,0,0,1,4.15-2.79l9,13.42a2.51,2.51,0,0,1-2.07,3.9Z"/><path class="cls-2" d="M755.53,875.83a2.52,2.52,0,0,1-2.11-1.15l-8.14-12.61a2.5,2.5,0,1,1,4.2-2.72L757.63,872a2.51,2.51,0,0,1-2.1,3.86Z"/><path class="cls-2" d="M501.76,896.26a2.5,2.5,0,0,1-2.45-2L496,877.74a2.5,2.5,0,1,1,4.9-1l3.3,16.52a2.5,2.5,0,0,1-2,2.94A2,2,0,0,1,501.76,896.26Z"/><path class="cls-2" d="M627,867.53a2.51,2.51,0,0,1-2.44-2l-3.26-15.13a2.5,2.5,0,0,1,4.89-1l3.26,15.13a2.5,2.5,0,0,1-1.92,3A3.07,3.07,0,0,1,627,867.53Z"/><path class="cls-4" d="M568.73,860.87,496,877.81A14.51,14.51,0,0,1,478.6,867h0a14.52,14.52,0,0,1,7.5-16.27l73.8-37.92Z"/><polygon class="cls-1" points="612.04 755.31 546.71 769.01 550.15 787.67 615.36 773.4 612.04 755.31"/><path class="cls-4" d="M593.42,834.12a26.49,26.49,0,0,1,28.82-23.32l-6.88-37.4L549.82,786l13.94,75.8,36.52-6.72A26.42,26.42,0,0,1,593.42,834.12Z"/><path class="cls-5" d="M627.51,839.51l-5.27-28.71a26.47,26.47,0,0,0-22,44.32l18.86-3.47A10.42,10.42,0,0,0,627.51,839.51Z"/><path class="cls-2" d="M555.43,806.72a2.5,2.5,0,0,1-.47-5l22-4.23a2.5,2.5,0,1,1,1,4.91l-22,4.23A2.59,2.59,0,0,1,555.43,806.72Z"/><path class="cls-2" d="M567.84,833.37a2.5,2.5,0,0,1-1.31-.37l-19-11.62a2.5,2.5,0,1,1,2.6-4.26l19,11.62a2.5,2.5,0,0,1-1.3,4.63Z"/><path class="cls-2" d="M550.32,847.32a2.49,2.49,0,0,1-1.44-.46l-20.6-14.46a2.5,2.5,0,1,1,2.87-4.09l20.6,14.46a2.5,2.5,0,0,1-1.43,4.55Z"/><rect class="cls-2" x="478.14" y="878.74" width="170.35" height="11.62" rx="5.81" transform="translate(-172.05 136.9) rotate(-12.03)"/><path class="cls-4" d="M811.88,812.94l-59.29,45.35a14.51,14.51,0,0,1-20.31-2.66h0a14.51,14.51,0,0,1,.13-17.91l51.67-64.92Z"/><path class="cls-4" d="M823.39,778.4a26.49,26.49,0,0,1,16.66-33.11L818.4,714l-54.54,38.48,43.89,63.36,30.53-21.15A26.39,26.39,0,0,1,823.39,778.4Z"/><path class="cls-5" d="M856.68,769.28l-16.63-24a26.47,26.47,0,0,0-1.77,49.43L854,783.8A10.43,10.43,0,0,0,856.68,769.28Z"/><path class="cls-2" d="M775.42,767.45a2.5,2.5,0,0,1-1.44-4.54L792.32,750a2.5,2.5,0,0,1,2.88,4.09L776.86,767A2.49,2.49,0,0,1,775.42,767.45Z"/><path class="cls-2" d="M797.13,790.52l-.33,0-22.09-2.85a2.5,2.5,0,1,1,.64-5l22.09,2.85a2.5,2.5,0,0,1-.31,5Z"/><path class="cls-2" d="M786.9,810.4a2.5,2.5,0,0,1-.47,0l-24.72-4.7a2.5,2.5,0,1,1,.93-4.91l24.72,4.7a2.5,2.5,0,0,1-.46,5Z"/><rect class="cls-2" x="731.52" y="830.94" width="170.35" height="11.62" rx="5.81" transform="translate(-336.96 646.46) rotate(-36.33)"/><polygon class="cls-1" points="756.03 741.49 763.86 752.51 818.4 714.03 810.2 701.46 756.03 741.49"/><path class="cls-6" d="M578.1,594c-19.08,21.4-50.31,25.52-72.21,11-18.45-12.2-27.52-35.79-22.29-58.83q1-2.56,2-5.27c.79-1.92,1.68-4,2.69-6.2,0,0,2.36-5.12,5.17-10.26,4.24-7.72,44.5-58.16,101.94-125.59l117.23,29.31Z"/><path class="cls-6" d="M737,578.93c2.72,31.84-20.87,59.74-51.08,62.57-28.11,2.62-54.94-17.14-60.91-46.19L627.24,411H734.68a338.35,338.35,0,0,1,9.93,53.52A343.35,343.35,0,0,1,737,578.93Z"/><path class="cls-6" d="M812.48,699.77l-68.7,50.78a11,11,0,0,1-15.39-2.31L634.2,620.82a47.58,47.58,0,0,1,10-66.55h0a59.84,59.84,0,0,1,83.7,12.55l86.9,117.56A11,11,0,0,1,812.48,699.77Z"/><path class="cls-2" d="M638.67,454.15a2.5,2.5,0,0,1-2.5-2.5V411a2.5,2.5,0,1,1,5,0v40.69A2.49,2.49,0,0,1,638.67,454.15Z"/><circle class="cls-2" cx="654.05" cy="427.68" r="5.59"/><path class="cls-2" d="M726.75,412.47h-112a29.81,29.81,0,0,1-29.81-29.81V247.13a34.89,34.89,0,0,1,34.89-34.88H721.68a34.88,34.88,0,0,1,34.88,34.88V382.66A29.81,29.81,0,0,1,726.75,412.47Z"/><path class="cls-1" d="M342.17,232.35c-4.32,23-27.28,41-50.7,41.79-32.63,1.14-57.76-31.23-58.62-60.82-.7-24.38,14.9-53,37.19-56.61,15.16-2.45,28,7.56,38.37,15.7C320.15,181.6,347.66,203.12,342.17,232.35Z"/><path class="cls-2" d="M321.38,260.49a2.63,2.63,0,0,1-1.17-.29,2.5,2.5,0,0,1-1-3.38c5.14-9.69,16-11.07,16.43-11.13a2.5,2.5,0,0,1,.6,5c-.12,0-8.73,1.18-12.62,8.5A2.49,2.49,0,0,1,321.38,260.49Z"/><path class="cls-7" d="M116.17,194.34h-.07l-57.44-1a4,4,0,0,1-3.93-4.07,4,4,0,0,1,4.06-3.93l57.44,1a4,4,0,0,1-.06,8Z"/><path class="cls-7" d="M86.82,231.8h-.07a4,4,0,0,1-3.93-4.07l1.26-75.88a4,4,0,0,1,4-3.93h.07A4,4,0,0,1,92.08,152l-1.27,75.89A4,4,0,0,1,86.82,231.8Z"/><path class="cls-7" d="M70.28,209.75a4,4,0,0,1-2.78-6.88l34.36-33.23a4,4,0,0,1,5.56,5.75L73.06,208.62A4,4,0,0,1,70.28,209.75Z"/><path class="cls-7" d="M104.06,211.34a4,4,0,0,1-2.88-1.21L68,175.77a4,4,0,0,1,5.75-5.57l33.23,34.36a4,4,0,0,1-2.87,6.78Z"/><path class="cls-7" d="M949.33,379h-.07l-57.44-.95a4,4,0,1,1,.14-8l57.44,1a4,4,0,0,1-.07,8Z"/><path class="cls-7" d="M920,416.47h-.07A4,4,0,0,1,916,412.4l1.26-75.88a4,4,0,0,1,4-3.94h.07a4,4,0,0,1,3.93,4.06L924,412.53A4,4,0,0,1,920,416.47Z"/><path class="cls-7" d="M903.44,394.41a4,4,0,0,1-2.78-6.87L935,354.31a4,4,0,1,1,5.56,5.75l-34.36,33.23A4,4,0,0,1,903.44,394.41Z"/><path class="cls-7" d="M937.22,396a4,4,0,0,1-2.87-1.22l-33.24-34.36a4,4,0,0,1,5.75-5.56l33.24,34.36a4,4,0,0,1-2.88,6.78Z"/><polygon class="cls-1" points="692.82 210.68 692.82 181.38 648.67 191 648.67 210.68 692.82 210.68"/><path class="cls-2" d="M648.67,197.51h30a.73.73,0,0,1,.2,1.43l-30.22,10.39Z"/><polygon class="cls-1" points="692.82 177.26 648.67 177.26 648.67 191 692.82 181.38 692.82 177.26"/><path class="cls-7" d="M734.68,220.73s123.41-33.87,171.52,22.76L888.94,294.3s-43.66-40.23-114-23.82Z"/><path class="cls-5" d="M654.32,413.46a2.5,2.5,0,0,1-2.5-2.5V357.18a2.5,2.5,0,1,1,5,0V411A2.5,2.5,0,0,1,654.32,413.46Z"/><path class="cls-6" d="M619.72,755.09,532.34,773a9.12,9.12,0,0,1-10.77-7.1l-39.83-194a47.59,47.59,0,0,1,37-56.18h0a59.84,59.84,0,0,1,70.66,46.59l37.36,182A9.1,9.1,0,0,1,619.72,755.09Z"/><path class="cls-2" d="M883.53,422.72,849.91,364.5c-2.53,5.4-6.66,9.44-12,11.09-12.26,3.76-26.29-6.52-31.34-23s.8-32.83,13.06-36.59a18.16,18.16,0,0,1,2-.49L775,234.7a36.41,36.41,0,0,0-49.73-13.33h0a36.41,36.41,0,0,0-13.33,49.74l108.55,188a19.79,19.79,0,0,0,2.57,3.46L885,426A19.48,19.48,0,0,0,883.53,422.72Z"/><path class="cls-5" d="M806.56,352.62c5.05,16.45,19.08,26.73,31.34,23,5.35-1.65,9.48-5.69,12-11.09l-28.26-49a18.16,18.16,0,0,0-2,.49C807.36,319.79,801.51,336.17,806.56,352.62Z"/><path class="cls-2" d="M645.26,271.54a36.41,36.41,0,0,0-5.45-51.2h0a36.41,36.41,0,0,0-51.2,5.44l-61,75.51a18,18,0,0,1,5.76,2.09c11.11,6.42,13.14,23.69,4.54,38.59s-24.58,21.78-35.69,15.37c-4.78-2.76-7.87-7.54-9.17-13.26l-38.89,48.15a17.47,17.47,0,0,0-1.25,1.75l56.93,45.09c.33-.35.66-.7,1-1.08Z"/><path class="cls-5" d="M502.22,357.34c11.11,6.41,27.09-.47,35.69-15.37s6.57-32.17-4.54-38.59a18,18,0,0,0-5.76-2.09l-34.56,42.79C494.35,349.8,497.44,354.58,502.22,357.34Z"/><path class="cls-5" d="M531.05,753.55a2.5,2.5,0,0,1-.52-4.95l80-16.94a2.5,2.5,0,1,1,1,4.89l-80,16.94A2.31,2.31,0,0,1,531.05,753.55Z"/><path class="cls-7" d="M620.78,233.74s-43.49,102.91,59.56,134.49l39.32-45.46s-72.68-19.36-44.38-84.3Z"/><path class="cls-5" d="M731.63,732.47a2.5,2.5,0,0,1-1.47-4.52l65.56-47.89a2.5,2.5,0,1,1,2.94,4L733.11,732A2.47,2.47,0,0,1,731.63,732.47Z"/><path class="cls-1" d="M838.9,466.1c9.57,19.1,19.16,38.19,28.61,57.35a18.69,18.69,0,0,0,2.89,4.65,7.17,7.17,0,0,0,4.43,2.22,7.44,7.44,0,0,0,6.88-4.32c1.6-4-2.5-8.15-5.2-19.13-.19-.78-.43-1.83-.16-2,.59-.28,3.24,3.84,10.81,16.39,6.32,10.49,7.94,13.36,11.41,14.16,3.69.84,7.28-1.16,9.58-2.82a6.74,6.74,0,0,0,11.58-6,12.5,12.5,0,0,0,3.54-4.23c2.89-5.68.18-11.59-.25-12.48a13.32,13.32,0,0,0,1.37-2.39,15.6,15.6,0,0,0,.7-9.07c-.52-3-2.18-10.31-12.11-24.71-1.6-2.31-3-4.15-3.76-5.24L886,440.25Z"/><path class="cls-2" d="M906.8,534a2.5,2.5,0,0,1-2.15-1.21L888,505a2.5,2.5,0,0,1,4.28-2.58l16.71,27.75a2.5,2.5,0,0,1-.85,3.43A2.54,2.54,0,0,1,906.8,534Z"/><path class="cls-2" d="M919.31,526.78a2.5,2.5,0,0,1-2.12-1.18l-17-27.46a2.5,2.5,0,0,1,4.25-2.64l17,27.46a2.5,2.5,0,0,1-2.13,3.82Z"/><path class="cls-2" d="M922.71,511.52a2.49,2.49,0,0,1-2.13-1.19l-12.35-20a2.5,2.5,0,0,1,4.26-2.63l12.34,20a2.5,2.5,0,0,1-.81,3.44A2.53,2.53,0,0,1,922.71,511.52Z"/><path class="cls-7" d="M730.14,209.91,726,190.76a16.23,16.23,0,0,0-19.3-12.4l-13.84,3v29.3H648.67V191L629,195.29a16.23,16.23,0,0,0-12.4,19.3l4.18,19.15a16.22,16.22,0,0,0,19.3,12.4l77.66-16.92A16.22,16.22,0,0,0,730.14,209.91Z"/><path class="cls-7" d="M899,302.37a2.49,2.49,0,0,1-1.62-.59l-10.07-8.56a2.5,2.5,0,0,1,3.24-3.81L900.63,298a2.49,2.49,0,0,1,.28,3.52A2.44,2.44,0,0,1,899,302.37Z"/><path class="cls-7" d="M907.1,278.68a2.47,2.47,0,0,1-1.62-.59l-10.07-8.56a2.5,2.5,0,0,1,3.24-3.81l10.07,8.56a2.5,2.5,0,0,1-1.62,4.4Z"/><path class="cls-7" d="M912.86,255a2.5,2.5,0,0,1-1.62-.6l-10.06-8.56a2.5,2.5,0,1,1,3.24-3.81l10.06,8.57a2.5,2.5,0,0,1-1.62,4.4Z"/><path class="cls-7" d="M693.25,373.44a2.5,2.5,0,0,1-1-.19l-12.91-5.44a2.5,2.5,0,1,1,1.94-4.61l12.91,5.44a2.5,2.5,0,0,1-1,4.8Z"/><path class="cls-7" d="M711.49,351.6a2.5,2.5,0,0,1-1-.2L697.61,346a2.5,2.5,0,0,1,1.94-4.6l12.91,5.43a2.5,2.5,0,0,1-1,4.81Z"/><path class="cls-7" d="M725.72,329a2.59,2.59,0,0,1-.47,0l-13.76-2.63a2.5,2.5,0,0,1,.94-4.91l13.76,2.63a2.5,2.5,0,0,1-.47,5Z"/><path class="cls-1" d="M497.17,437.82c-6.76,20.27-19.37,45.66-26,66a18.72,18.72,0,0,1-2.2,5,7.23,7.23,0,0,1-4.07,2.83,7.45,7.45,0,0,1-7.43-3.3c-2.16-3.76,1.32-8.42,2.43-19.67.08-.8.17-1.88-.13-2-.62-.19-2.66,4.26-8.36,17.77-4.76,11.28-6,14.36-9.28,15.64-3.53,1.36-7.37-.11-9.88-1.43A6.74,6.74,0,0,1,420,514.39a12.46,12.46,0,0,1-4.11-3.68c-3.67-5.21-1.83-11.45-1.53-12.39a12.42,12.42,0,0,1-1.69-2.17,15.4,15.4,0,0,1-2-8.88c.08-3.06.68-10.51,8.46-26.18,1.25-2.52,2.33-4.52,3-5.72,6.33-10.43,22.13-35.72,28.46-46.16a217.32,217.32,0,0,0,46.64,28.61Z"/><path class="cls-2" d="M433.43,519.8a2.41,2.41,0,0,1-1-.2,2.49,2.49,0,0,1-1.33-3.27l12.58-29.84a2.5,2.5,0,1,1,4.61,1.94l-12.58,29.84A2.5,2.5,0,0,1,433.43,519.8Z"/><path class="cls-2" d="M420,514.49a2.56,2.56,0,0,1-1-.21,2.51,2.51,0,0,1-1.29-3.29l12.95-29.61a2.5,2.5,0,1,1,4.58,2L422.31,513A2.5,2.5,0,0,1,420,514.49Z"/><path class="cls-2" d="M414.49,499.87a2.56,2.56,0,0,1-1-.21,2.51,2.51,0,0,1-1.29-3.29l9.36-21.56a2.5,2.5,0,0,1,4.59,2l-9.37,21.56A2.51,2.51,0,0,1,414.49,499.87Z"/><path class="cls-3" d="M408,456.29q20.13,24.94,40.17,49.95a18.64,18.64,0,0,0,3.81,3.92,7.18,7.18,0,0,0,4.8,1.23,7.42,7.42,0,0,0,5.8-5.69c.71-4.28-4.18-7.43-9.15-17.58-.36-.72-.82-1.69-.58-1.88.52-.4,4,3.06,14.06,13.71,8.41,8.9,10.6,11.37,14.16,11.4,3.78,0,6.87-2.68,8.76-4.79a6.74,6.74,0,0,0,10-8.32,12.63,12.63,0,0,0,2.56-4.88c1.61-6.17-2.3-11.37-2.91-12.15a12.31,12.31,0,0,0,.83-2.62,15.38,15.38,0,0,0-1.25-9C497.91,466.74,494.74,460,482,448c-2.05-1.92-3.76-3.42-4.79-4.31L448.44,421Z"/><path class="cls-8" d="M488.21,508.19a2.53,2.53,0,0,1-1.82-.79l-22.22-23.55a2.5,2.5,0,0,1,3.63-3.43L490,504a2.51,2.51,0,0,1-1.82,4.22Z"/><path class="cls-8" d="M498.92,498.52a2.47,2.47,0,0,1-1.8-.76l-22.49-23.2a2.5,2.5,0,1,1,3.59-3.48l22.49,23.2a2.5,2.5,0,0,1-1.79,4.24Z"/><path class="cls-8" d="M499,482.88a2.47,2.47,0,0,1-1.8-.76L480.86,465.2a2.5,2.5,0,0,1,3.6-3.47l16.32,16.92a2.49,2.49,0,0,1-1.8,4.23Z"/><rect class="cls-3" x="224.45" y="207.8" width="43.1" height="29.63"/><path class="cls-8" d="M224.45,215.83H252.7a1.2,1.2,0,0,1,.44,2.31l-28.69,11.52Z"/><path class="cls-3" d="M268.91,166c-.46,0-.91,0-1.36.07v-23H194.77v56.54A16.24,16.24,0,0,0,211,215.83h56.53v-23a12.26,12.26,0,0,0,1.36.07,13.46,13.46,0,0,0,0-26.92Z"/><path class="cls-5" d="M457,419.27l26.74,21.59a19.21,19.21,0,0,0,26.07-1.79L452.91,394A19.23,19.23,0,0,0,457,419.27Z"/><path class="cls-8" d="M267,185.86a5.2,5.2,0,1,1,3.67-8.88h0a5.2,5.2,0,0,1-3.66,8.88Zm0-7.4a2.2,2.2,0,0,0-1.56.65,2.22,2.22,0,0,0-.64,1.56,2.16,2.16,0,0,0,.65,1.55,2.2,2.2,0,0,0,3.1-3.12h0A2.22,2.22,0,0,0,267,178.46Z"/><path class="cls-8" d="M263.39,183.12a1.51,1.51,0,0,1-1.47-1.22,7.4,7.4,0,0,1,11.14-7.61,1.49,1.49,0,0,1,.47,2.07,1.5,1.5,0,0,1-2.07.47,4.4,4.4,0,0,0-6.59,4.51,1.5,1.5,0,0,1-1.19,1.75A1.43,1.43,0,0,1,263.39,183.12Z"/><path class="cls-1" d="M281.13,166.48H270a20.6,20.6,0,0,1-20.61-20.6v-2.83h31.71Z"/><path class="cls-8" d="M220.11,202.47l-.62,0a13.81,13.81,0,0,1-9-4.49,2.5,2.5,0,0,1,3.8-3.26,8.79,8.79,0,0,0,5.52,2.76c2.13.09,4.29-.89,6.46-2.94a2.5,2.5,0,0,1,3.44,3.63C226.67,201,223.45,202.47,220.11,202.47Z"/><path class="cls-6" d="M237.63,99.23h0a43.8,43.8,0,0,0-43.8,43.8v0h87.6v0A43.8,43.8,0,0,0,237.63,99.23Z"/><circle class="cls-5" cx="246.46" cy="92.58" r="14.82"/><rect class="cls-5" x="214.91" y="229.66" width="61.04" height="18.25" rx="9.13"/><path class="cls-5" d="M460.7,415l-142-160a36.41,36.41,0,0,0-51.4-3.06h0a36.41,36.41,0,0,0-3.06,51.4l142,160a19.81,19.81,0,0,0,1.52,1.52L461.6,416.1C461.31,415.72,461,415.33,460.7,415Z"/><path class="cls-6" d="M407.75,464.82a19.22,19.22,0,0,0,25.63.1l25.7-22.81a19.2,19.2,0,0,0,2.52-26Z"/><path class="cls-3" d="M124.67,486.46c-3.2,21.12-11.29,48.29-14.35,69.43a18.52,18.52,0,0,1-1.31,5.32,7.22,7.22,0,0,1-3.53,3.48,7.45,7.45,0,0,1-7.87-2c-2.78-3.35-.14-8.53-1-19.8-.06-.8-.15-1.88-.45-1.92-.65-.08-1.9,4.65-5.21,18.94-2.77,11.92-3.42,15.16-6.48,17-3.24,1.94-7.28,1.15-10,.28a6.74,6.74,0,0,1-12.86-2.11A12.63,12.63,0,0,1,57,572.16c-4.51-4.51-3.76-11-3.63-11.95a12.9,12.9,0,0,1-2-1.85A15.51,15.51,0,0,1,47.84,550c-.44-3-1.12-10.48,3.87-27.24.81-2.69,1.52-4.85,2-6.14,4.46-11.37,15.71-39,20.16-50.34a217.69,217.69,0,0,0,50.84,20.23Z"/><path class="cls-8" d="M75.44,578.15a2.22,2.22,0,0,1-.57-.07,2.5,2.5,0,0,1-1.87-3l7.3-31.55a2.5,2.5,0,0,1,4.87,1.13l-7.3,31.55A2.5,2.5,0,0,1,75.44,578.15Z"/><path class="cls-8" d="M61.32,575.21a2.53,2.53,0,0,1-2.43-3.1l7.7-31.38a2.5,2.5,0,0,1,4.86,1.19L63.74,573.3A2.5,2.5,0,0,1,61.32,575.21Z"/><path class="cls-8" d="M53.37,561.74a3.06,3.06,0,0,1-.59-.07,2.5,2.5,0,0,1-1.84-3l5.55-22.84A2.5,2.5,0,0,1,61.35,537L55.8,559.83A2.51,2.51,0,0,1,53.37,561.74Z"/><path class="cls-5" d="M217.37,297A36.4,36.4,0,0,0,198,249.3h0a36.41,36.41,0,0,0-47.72,19.35L67,465.73a19.49,19.49,0,0,0-.72,2l67.16,27.64c.22-.43.44-.85.63-1.31Z"/><path class="cls-4" d="M335.26,589.37c.21,21.56-12.44,40.79-31.13,48-22.48,8.63-49.85-1.67-62.29-25.2q-24-105.09-48-210.2L291,396.49a242.24,242.24,0,0,1,19.21,43.44c9.39,28.56,9.43,46.79,16.95,98.92C328.93,551.21,331.58,568.55,335.26,589.37Z"/><path class="cls-4" d="M141.26,614.28h0a49.16,49.16,0,0,1-26.13-64.42L186.49,381.1l92.89,39.28L209,586.79A51.71,51.71,0,0,1,141.26,614.28Z"/><path class="cls-4" d="M221.58,751.9,201.2,570.63a46,46,0,0,0-91.72,3.45,18.93,18.93,0,0,1,9.84-3.34c13.64-.58,25.35,14.32,26.15,33.27s-9.59,34.8-23.23,35.38a18.12,18.12,0,0,1-6-.76l13.89,123.56a25.49,25.49,0,0,0,28.17,22.47l40.82-4.59A25.48,25.48,0,0,0,221.58,751.9Z"/><path class="cls-6" d="M145.47,604c-.8-19-12.51-33.85-26.15-33.27a18.93,18.93,0,0,0-9.84,3.34,46.34,46.34,0,0,0,.26,6.84l6.49,57.71a18.12,18.12,0,0,0,6,.76C135.88,638.81,146.28,623,145.47,604Z"/><path class="cls-4" d="M410.88,674.55,333,586.84a59.14,59.14,0,0,0-83.5-5h0a28.76,28.76,0,0,0-6.25,7.88c.41-.21.83-.4,1.25-.58,12.62-5.2,28.72,4.81,36,22.35,6.8,16.51,3.33,33.82-7.63,40.13L345,733a17.59,17.59,0,0,0,24.82,1.48l39.54-35.1A17.57,17.57,0,0,0,410.88,674.55Z"/><path class="cls-6" d="M280.49,611.51c-7.23-17.54-23.33-27.55-36-22.35a3.47,3.47,0,0,0-1.81,1.67,28.89,28.89,0,0,0,4.38,31.8l25.75,29C283.82,645.33,287.29,628,280.49,611.51Z"/><path class="cls-8" d="M161.06,870.05,87.46,882.5a14.53,14.53,0,0,1-16.73-11.83h0a14.53,14.53,0,0,1,8.48-15.79l76-33.31Z"/><path class="cls-8" d="M187.35,844.85a26.48,26.48,0,0,1,30.19-21.5L213,785.6l-66.19,8.59L156,870.7l36.87-4.46A26.4,26.4,0,0,1,187.35,844.85Z"/><path class="cls-7" d="M221.05,852.32l-3.51-29a26.47,26.47,0,0,0-24.63,42.89l19-2.3A10.45,10.45,0,0,0,221.05,852.32Z"/><path class="cls-5" d="M151.23,815a2.5,2.5,0,0,1-.31-5l22.24-2.87a2.5,2.5,0,0,1,.64,5L151.56,815A1.83,1.83,0,0,1,151.23,815Z"/><path class="cls-5" d="M157.16,844a2.48,2.48,0,0,1-1.5-.5l-17.82-13.37a2.5,2.5,0,0,1,3-4l17.82,13.37a2.5,2.5,0,0,1-1.5,4.5Z"/><path class="cls-5" d="M139,856.56a2.53,2.53,0,0,1-1.56-.54l-19.67-15.7a2.5,2.5,0,1,1,3.11-3.91l19.68,15.7a2.5,2.5,0,0,1-1.56,4.45Z"/><rect class="cls-2" x="69.04" y="887.54" width="170.35" height="11.62" rx="5.81" transform="translate(-130.66 32.71) rotate(-8.52)"/><path class="cls-8" d="M432.69,800.05l-52.13,53.43a14.51,14.51,0,0,1-20.48.3h0A14.52,14.52,0,0,1,357.62,836l41.76-71.69Z"/><path class="cls-8" d="M439.08,764.2A26.49,26.49,0,0,1,450.8,729l-25.94-27.8-48.41,45.95L429,803.54l27.15-25.34A26.41,26.41,0,0,1,439.08,764.2Z"/><path class="cls-7" d="M470.71,750.38,450.8,729a26.47,26.47,0,0,0,5.37,49.17l14-13.08A10.43,10.43,0,0,0,470.71,750.38Z"/><path class="cls-5" d="M390.39,761.26a2.5,2.5,0,0,1-1.72-4.31L405,741.52a2.5,2.5,0,1,1,3.44,3.63l-16.28,15.43A2.47,2.47,0,0,1,390.39,761.26Z"/><path class="cls-5" d="M416.58,781h-.15l-22.24-1.27a2.5,2.5,0,0,1,.29-5L416.72,776a2.5,2.5,0,0,1-.14,5Z"/><path class="cls-5" d="M408.49,800.65h-.11l-25.14-1.09a2.5,2.5,0,0,1-2.39-2.6,2.55,2.55,0,0,1,2.6-2.4l25.15,1.09a2.5,2.5,0,0,1-.11,5Z"/><rect class="cls-2" x="355.71" y="817.1" width="170.35" height="11.62" rx="5.81" transform="translate(-450.98 546.99) rotate(-44.63)"/><path class="cls-5" d="M823,462.59a19.24,19.24,0,0,0,23.7,3.58L876.49,449A19.21,19.21,0,0,0,885,426Z"/><path class="cls-8" d="M636.92,248a17,17,0,0,1-10.9-3.58c-6-4.81-6.94-12.69-7-13a2.5,2.5,0,0,1,5-.55h0c0,.07.75,6.2,5.15,9.69,2.56,2,6,2.8,10.08,2.32L675,238.64a2.5,2.5,0,0,1,.58,5l-35.77,4.22A24.59,24.59,0,0,1,636.92,248Z"/><path class="cls-8" d="M813.71,266.94a2.51,2.51,0,0,1-2.49-2.34l-3.38-50.32a2.5,2.5,0,0,1,5-.34l3.38,50.33a2.5,2.5,0,0,1-2.33,2.66Z"/><path class="cls-8" d="M860.58,277h-.12a2.5,2.5,0,0,1-2.38-2.62l2.68-54.76a2.5,2.5,0,0,1,5,.24l-2.68,54.77A2.5,2.5,0,0,1,860.58,277Z"/><path class="cls-8" d="M614.49,299.66a2.5,2.5,0,0,1-.87-4.84L666,275.48a2.5,2.5,0,1,1,1.73,4.69l-52.4,19.34A2.6,2.6,0,0,1,614.49,299.66Z"/><path class="cls-8" d="M642.33,348.45a2.5,2.5,0,0,1-1.57-4.44l45.58-36.75a2.5,2.5,0,1,1,3.14,3.9L643.9,347.9A2.5,2.5,0,0,1,642.33,348.45Z"/><path class="cls-1" d="M692.82,197.51H629.08a16.93,16.93,0,0,1-16.93-16.93V115.37h80.67Z"/><path class="cls-2" d="M657.46,197.51H629.09a6.72,6.72,0,0,1-6.72-6.73V178a10.13,10.13,0,0,1,10.12-10.13h14.85A10.13,10.13,0,0,1,657.46,178Z"/><path class="cls-2" d="M612.15,115.37s-9.06,3.56-10.76,12a13.72,13.72,0,0,0,8,15.13c9.75,4.2,29.56,7.22,43.91-27.13a155.48,155.48,0,0,0-41.19,0Z"/><path class="cls-2" d="M680.34,125.55S671.7,148,684,153h19V125.55Z"/><path class="cls-8" d="M638.25,185.74l-.62,0a13.81,13.81,0,0,1-9-4.49,2.5,2.5,0,0,1,3.8-3.26,8.77,8.77,0,0,0,5.52,2.76c2.13.1,4.29-.89,6.46-2.94a2.5,2.5,0,0,1,3.44,3.63C644.81,184.29,641.59,185.74,638.25,185.74Z"/><path class="cls-4" d="M716.45,152.5,628.73,98.39C638.1,89.07,646.31,86,652.23,85c10-1.7,15.37,2.09,27.24-1.38,8.4-2.45,8.66-5.21,14.48-6.61,13.28-3.22,31.34,6.46,38.14,22.43C739.28,116.31,733.19,138.62,716.45,152.5Z"/><path class="cls-4" d="M612.15,115.37a19.58,19.58,0,0,1,2.57-11.8c.18-.3.36-.6.55-.88a17.4,17.4,0,0,1,12.79-7.49,94.44,94.44,0,0,1,44.76,6.07c27.84,11.1,42.37,32.66,48.14,43.05a6,6,0,0,1-1,7.2l-16.2,16.38S698.75,109.4,612.15,115.37Z"/><path class="cls-2" d="M630.11,115.2a2.53,2.53,0,0,1-1.24-.33,2.49,2.49,0,0,1-.93-3.41l10.29-18a2.5,2.5,0,1,1,4.34,2.48l-10.29,18A2.5,2.5,0,0,1,630.11,115.2Z"/><path class="cls-2" d="M653.94,118.08a2.44,2.44,0,0,1-1.27-.35,2.5,2.5,0,0,1-.89-3.42L661,98.66a2.5,2.5,0,0,1,4.31,2.54l-9.22,15.65A2.49,2.49,0,0,1,653.94,118.08Z"/><path class="cls-2" d="M678.76,129.08a2.5,2.5,0,0,1-2.13-3.81l9.58-15.57a2.5,2.5,0,1,1,4.26,2.62l-9.58,15.57A2.49,2.49,0,0,1,678.76,129.08Z"/><path class="cls-2" d="M695.13,148.09a2.48,2.48,0,0,1-1.5-.5,2.51,2.51,0,0,1-.5-3.5l12.53-16.68a2.5,2.5,0,0,1,4,3l-12.53,16.68A2.48,2.48,0,0,1,695.13,148.09Z"/><path class="cls-2" d="M721,146.82a2.48,2.48,0,0,1-2.28-1.48A82,82,0,0,0,635.56,97.2a2.5,2.5,0,0,1-.51-5,87,87,0,0,1,88.19,51.07,2.5,2.5,0,0,1-1.26,3.3A2.47,2.47,0,0,1,721,146.82Z"/><path class="cls-2" d="M625.71,537.83a2.15,2.15,0,0,1-.43,0,2.49,2.49,0,0,1-2-2.88l7.1-41.42a2.5,2.5,0,0,1,4.93.84l-7.1,41.42A2.5,2.5,0,0,1,625.71,537.83Z"/><path class="cls-6" d="M77.19,490.92l31.66,13.39a19.21,19.21,0,0,0,24.56-8.92L66.25,467.75A19.23,19.23,0,0,0,77.19,490.92Z"/><path class="cls-7" d="M281.27,244.85c-3.37,30.92-13.92,48.15-24.76,57.75-19.83,17.57-51,5.76-54.74-20.48-1.83-12.86,0-26.67,1.9-36.15l-4,.08A11.82,11.82,0,0,0,189,253.4c-7.23,17.76-12.37,33.08-16,44.86-7.42,24.32-8.28,33.54-8.43,40.35-.27,12.34,4,25.65,9.5,42.46a30.23,30.23,0,0,0,28.75,20.87h72.76A24.35,24.35,0,0,0,300,377.6V267.66A23.27,23.27,0,0,0,281.27,244.85Z"/><path class="cls-5" d="M201.77,282.12c3.74,26.24,34.91,38.05,54.74,20.48,10.84-9.6,21.39-26.83,24.76-57.75a23.28,23.28,0,0,0-4.53-.44L203.67,246C201.76,255.45,199.94,269.26,201.77,282.12Z"/><path class="cls-8" d="M229.71,404.45a2.5,2.5,0,0,1-2.32-1.58c-5.74-14.38-7.25-34.39-4.49-59.47a262.24,262.24,0,0,1,5.84-33.3,2.5,2.5,0,0,1,4.84,1.25c-.15.57-14.56,57.07-1.54,89.67a2.51,2.51,0,0,1-2.33,3.43Z"/><circle class="cls-5" cx="202.58" cy="343.55" r="4.55"/><circle class="cls-5" cx="202.58" cy="371.57" r="4.55"/><path class="cls-8" d="M231.16,245.19a2.5,2.5,0,0,1-2.5-2.5V231.6a2.5,2.5,0,0,1,5,0v11.09A2.5,2.5,0,0,1,231.16,245.19Z"/><path class="cls-8" d="M248.21,245.19a2.5,2.5,0,0,1-2.5-2.5V231.6a2.5,2.5,0,0,1,5,0v11.09A2.5,2.5,0,0,1,248.21,245.19Z"/><path class="cls-2" d="M226.57,547.78a2.5,2.5,0,0,1-2.5-2.5V475.81a2.5,2.5,0,0,1,5,0v69.47A2.5,2.5,0,0,1,226.57,547.78Z"/><path class="cls-2" d="M322.13,602.5a2.5,2.5,0,0,1-1.58-4.44l13.14-10.63a2.5,2.5,0,0,1,3.14,3.88L323.7,601.94A2.46,2.46,0,0,1,322.13,602.5Z"/><path class="cls-2" d="M204,598.34H190.34a2.5,2.5,0,0,1,0-5H204a2.5,2.5,0,0,1,0,5Z"/><path class="cls-1" d="M212.24,143.07a2.5,2.5,0,0,1-2.5-2.5v-9.45a2.5,2.5,0,0,1,5,0v9.45A2.5,2.5,0,0,1,212.24,143.07Z"/><path class="cls-1" d="M234.77,143.07a2.49,2.49,0,0,1-2.5-2.5v-9.45a2.5,2.5,0,0,1,5,0v9.45A2.5,2.5,0,0,1,234.77,143.07Z"/><path class="cls-1" d="M257.29,143.07a2.5,2.5,0,0,1-2.5-2.5v-9.45a2.5,2.5,0,0,1,5,0v9.45A2.5,2.5,0,0,1,257.29,143.07Z"/><path class="cls-1" d="M275.94,131h-78a2.5,2.5,0,0,1,0-5h78a2.5,2.5,0,0,1,0,5Z"/><circle class="cls-1" cx="692.82" cy="161.91" r="12.48"/><path class="cls-2" d="M690.89,167.14a5.22,5.22,0,1,1,.94-.09A5,5,0,0,1,690.89,167.14Zm0-7.4a1.81,1.81,0,0,0-.4,0,2.18,2.18,0,1,0,.4,0Z"/><path class="cls-2" d="M698.13,162.26a1.51,1.51,0,0,1-1.38-.92,4.29,4.29,0,0,0-4-2.58h0a4.28,4.28,0,0,0-4,2.52,1.5,1.5,0,0,1-2.74-1.22,7.22,7.22,0,0,1,6.72-4.3h.06a7.23,7.23,0,0,1,6.71,4.41,1.5,1.5,0,0,1-1.38,2.09Z"/></svg>