<svg id="Layer_2" data-name="Layer 2" xmlns="http://www.w3.org/2000/svg" viewBox="0 0 1000 1000"><defs><style>.cls-1{fill:#3a140f;}.cls-2{fill:#fd510c;}.cls-3{fill:#ff968e;}.cls-4{fill:#ee9334;}.cls-5{fill:#edead9;}.cls-6{fill:#ffaabe;}.cls-7{fill:#129277;}.cls-8{fill:#bc4632;}</style></defs><path class="cls-1" d="M760.48,506.45a21.83,21.83,0,0,0-21.83-21.83H258.13a21.82,21.82,0,0,0-21.82,21.83V860.37H760.48Z"/><path class="cls-2" d="M423.08,640.76c-14.36,16.69-52.51,71.11-11.13,140.58h169.6s50.94-57.71-1.16-139.43a5.89,5.89,0,0,0-9.49-.58l-27.55,33.31a7.32,7.32,0,0,1-11.89-.84l-26-42.58a5.88,5.88,0,0,0-9.93-.16l-27.35,41.78a7.32,7.32,0,0,1-12,.36l-23.92-32.1A5.87,5.87,0,0,0,423.08,640.76Z"/><path class="cls-3" d="M451.45,691.86c-9,10.41-32.78,44.38-6.95,87.74H550.35s31.79-36-.72-87a3.67,3.67,0,0,0-5.92-.37L526.51,713a4.57,4.57,0,0,1-7.42-.53l-16.25-26.57a3.66,3.66,0,0,0-6.19-.1l-17.08,26.07a4.56,4.56,0,0,1-7.48.23l-14.93-20A3.66,3.66,0,0,0,451.45,691.86Z"/><rect class="cls-4" x="42.25" y="344.44" width="915.5" height="44.55" rx="6.74"/><path class="cls-5" d="M906.7,389H93.3V860.37H204V480.62a21.83,21.83,0,0,1,21.82-21.83H771a21.83,21.83,0,0,1,21.83,21.83V860.37H906.7Z"/><path class="cls-6" d="M771,458.79H225.78A21.83,21.83,0,0,0,204,480.62V860.37h32.35V506.45a21.82,21.82,0,0,1,21.82-21.83H738.65a21.83,21.83,0,0,1,21.83,21.83V860.37h32.35V480.62A21.83,21.83,0,0,0,771,458.79Z"/><path class="cls-4" d="M156.59,725.57H93.3V651.78h63.29a10.5,10.5,0,0,1,10.5,10.49v52.81A10.5,10.5,0,0,1,156.59,725.57Z"/><path class="cls-4" d="M906.7,560H836.26a7.89,7.89,0,0,1-7.89-7.89V504.24a7.88,7.88,0,0,1,7.89-7.88H906.7Z"/><rect class="cls-4" x="792.83" y="799.55" width="113.87" height="60.82"/><path class="cls-4" d="M906.7,799.55H835.22V749a7.09,7.09,0,0,1,7.09-7.09H906.7Z"/><path class="cls-2" d="M456.75,214.76c-47.78,0-86.52,34.66-86.52,77.42h173C543.28,249.42,504.54,214.76,456.75,214.76Z"/><path class="cls-5" d="M497.28,358H416.22a46,46,0,0,1-46-46V292.18h173V312A46,46,0,0,1,497.28,358Z"/><path class="cls-3" d="M462.53,183.47c-4.6-2.39-6.36-7-6.87-8.56a14.43,14.43,0,0,1-20.55,5.84c0,.15,0,.3,0,.45l-.39,36.64,41,.43.37-35.12C471.49,185.36,466.49,185.53,462.53,183.47Z"/><polygon class="cls-2" points="456.51 142.61 444.14 166.19 468.42 166.4 456.51 142.61"/><circle class="cls-5" cx="456.51" cy="142.76" r="5.63"/><path class="cls-5" d="M511.18,225.7a21.79,21.79,0,0,0-36.13-16.63,21.79,21.79,0,0,0-39.39-.67,21.79,21.79,0,1,0-19.31,36.36c-.05.57-.09,1.15-.1,1.74A21.79,21.79,0,0,0,455.32,260a21.79,21.79,0,0,0,39.34-12.69c0-.23,0-.46,0-.69A21.83,21.83,0,0,0,511.18,225.7Z"/><path class="cls-5" d="M455.8,160.92h0a20.51,20.51,0,0,0-20.69,19.83,14.43,14.43,0,0,0,20.55-5.84c.51,1.53,2.27,6.17,6.87,8.56,4,2.06,9,1.89,13.53-.32l0-1.52A20.49,20.49,0,0,0,455.8,160.92Z"/><path class="cls-1" d="M455.52,231.2q-.67,0-1.35-.06c-7.36-.68-11.16-6.45-11.84-7.6a2.5,2.5,0,1,1,4.29-2.56,11.11,11.11,0,0,0,8,5.18,10.72,10.72,0,0,0,10.09-5.4,2.5,2.5,0,1,1,4.31,2.52A15.79,15.79,0,0,1,455.52,231.2Z"/><path class="cls-4" d="M476,358.11a2.47,2.47,0,0,1-1.28-.35l-94.17-56.12a2.5,2.5,0,1,1,2.56-4.29l94.17,56.11a2.5,2.5,0,0,1-1.28,4.65Z"/><path class="cls-4" d="M526.72,347.28a2.44,2.44,0,0,1-1.25-.33l-80.6-46.46a2.5,2.5,0,0,1,2.5-4.34L528,342.62a2.5,2.5,0,0,1-1.25,4.66Z"/><path class="cls-4" d="M438.29,358.11a2.5,2.5,0,0,1-1.51-4.49l75.42-57.29a2.5,2.5,0,0,1,3,4L439.8,357.6A2.5,2.5,0,0,1,438.29,358.11Z"/><path class="cls-4" d="M385.94,345.73a2.5,2.5,0,0,1-1.5-4.5l60.19-44.91a2.5,2.5,0,1,1,3,4l-60.19,44.92A2.51,2.51,0,0,1,385.94,345.73Z"/><rect class="cls-4" x="361.34" y="292.18" width="190.83" height="12.28" rx="2.01"/><path class="cls-7" d="M335.53,344.44H108.84v-41a25.59,25.59,0,0,1,25.59-25.58H309.94a25.59,25.59,0,0,1,25.59,25.58Z"/><circle class="cls-4" cx="204.06" cy="267.46" r="10.34"/><circle class="cls-4" cx="221.73" cy="267.46" r="10.34"/><circle class="cls-4" cx="240.31" cy="267.46" r="10.34"/><rect class="cls-5" x="108.84" y="307.21" width="226.68" height="10.27"/><path class="cls-4" d="M352.59,793.26c-11,0-20.14-6.13-21.87-14.14H315.94c1.93,13.21,17.63,23.54,36.65,23.54s34.72-10.33,36.66-23.54H374.46C372.74,787.13,363.59,793.26,352.59,793.26Z"/><path class="cls-4" d="M352.59,807.66c-21.84,0-39.82-12.57-41.68-28.54H293.69c2,22.17,27.63,39.77,58.9,39.77s56.93-17.6,58.9-39.77H394.28C392.41,795.09,374.43,807.66,352.59,807.66Z"/><path class="cls-4" d="M352.59,788.26c8.1,0,14.89-3.9,16.69-9.14H335.9C337.7,784.36,344.49,788.26,352.59,788.26Z"/><path class="cls-4" d="M663.27,797.13c-17.69-10.8-27.43-25.27-27.43-40.78,0-.56,0-1.11,0-1.67H450.22a17.58,17.58,0,0,0-17.58,17.57V842.8a17.58,17.58,0,0,0,17.58,17.57H760.48V809.84a144.16,144.16,0,0,1-32.57,3.66C703.53,813.5,680.58,807.68,663.27,797.13Z"/><path class="cls-4" d="M727.91,777.84c13.71,0,25.75-4.21,32.57-10.54V754.68h-71c0,.22,0,.45,0,.67C689.45,767.75,706.7,777.84,727.91,777.84Z"/><path class="cls-4" d="M727.91,808.5a138.76,138.76,0,0,0,32.57-3.79V773.53c-8,5.71-19.61,9.31-32.57,9.31-24,0-43.46-12.33-43.46-27.49,0-.22,0-.45,0-.67H640.89c0,.56,0,1.11,0,1.67C640.84,785.11,679.9,808.5,727.91,808.5Z"/><path class="cls-8" d="M727.91,808.5c-48,0-87.07-23.39-87.07-52.15,0-.56,0-1.11,0-1.67h-5c0,.56,0,1.11,0,1.67,0,15.51,9.74,30,27.43,40.78,17.31,10.55,40.26,16.37,64.64,16.37a144.16,144.16,0,0,0,32.57-3.66v-5.13A138.76,138.76,0,0,1,727.91,808.5Z"/><path class="cls-8" d="M727.91,777.84c-21.21,0-38.46-10.09-38.46-22.49,0-.22,0-.45,0-.67h-5c0,.22,0,.45,0,.67,0,15.16,19.49,27.49,43.46,27.49,13,0,24.6-3.6,32.57-9.31V767.3C753.66,773.63,741.62,777.84,727.91,777.84Z"/><path class="cls-8" d="M699.1,836.48H532.8a2.5,2.5,0,0,1,0-5H699.1a2.5,2.5,0,0,1,0,5Z"/><path class="cls-4" d="M490.64,779.12H416.51c-1.92,24.93-29.85,44.77-63.92,44.77s-62-19.84-63.92-44.77H236.31v81.25H490.64a17.58,17.58,0,0,0,17.58-17.57V796.7A17.58,17.58,0,0,0,490.64,779.12Z"/><path class="cls-8" d="M352.59,823.89c34.07,0,62-19.84,63.92-44.77h-5c-2,22.17-27.63,39.77-58.9,39.77s-56.93-17.6-58.9-39.77h-5C290.59,804.05,318.52,823.89,352.59,823.89Z"/><path class="cls-8" d="M352.59,807.66c21.84,0,39.82-12.57,41.69-28.54h-5c-1.94,13.21-17.64,23.54-36.66,23.54s-34.72-10.33-36.65-23.54h-5C312.77,795.09,330.75,807.66,352.59,807.66Z"/><path class="cls-8" d="M352.59,793.26c11,0,20.15-6.13,21.87-14.14h-5.18c-1.8,5.24-8.59,9.14-16.69,9.14s-14.89-3.9-16.69-9.14h-5.18C332.45,787.13,341.6,793.26,352.59,793.26Z"/><path class="cls-8" d="M490.64,862.87a2.5,2.5,0,0,1-.13-5c6.17-.33,10.6-2.86,13.19-7.53a15.83,15.83,0,0,0,1.9-7.7l.11-44.68a16.19,16.19,0,0,0-13.35-16.13,13.22,13.22,0,0,0-1.77-.21H433.38a2.5,2.5,0,0,1,0-5h57.26a17.81,17.81,0,0,1,2.57.28A21.18,21.18,0,0,1,510.71,798l-.11,44.68a20.8,20.8,0,0,1-2.53,10.11c-2.39,4.31-7.33,9.56-17.29,10.1Z"/><rect class="cls-5" x="609.23" y="217.76" width="72.62" height="124.29"/><rect class="cls-5" x="681.65" y="277.89" width="51.81" height="64.16"/><ellipse class="cls-4" cx="707.56" cy="277.89" rx="25.91" ry="9.08"/><ellipse class="cls-4" cx="645.54" cy="217.76" rx="36.31" ry="12.1"/><path class="cls-8" d="M645.54,218.48A2.5,2.5,0,0,1,643,216V193.35a2.5,2.5,0,0,1,5,0V216A2.5,2.5,0,0,1,645.54,218.48Z"/><path class="cls-8" d="M707.56,278a2.5,2.5,0,0,1-2.5-2.5V258.28a2.5,2.5,0,0,1,5,0V275.5A2.5,2.5,0,0,1,707.56,278Z"/><path class="cls-6" d="M681.3,330.76h0a2.5,2.5,0,0,1-2.48-2.52l.35-44.76a2.5,2.5,0,0,1,2.5-2.48h0a2.5,2.5,0,0,1,2.48,2.52l-.35,44.76A2.5,2.5,0,0,1,681.3,330.76Z"/><path class="cls-7" d="M645,332.19c-2.6-1.05-3.91-4.58-4.31-6.76a24.58,24.58,0,0,1-.36-4.54,2.39,2.39,0,0,0-4.09-1.71,23.75,23.75,0,0,1-3.48,2.94c-1.81,1.24-5.24,2.77-7.83,1.7s-4.32-5.09-4.29-10.57a2.39,2.39,0,0,0-4-1.78,27.52,27.52,0,0,1-11.34,6.37,27,27,0,0,1-6.48,1,2.39,2.39,0,0,0-1.69,4,26.4,26.4,0,0,1,7.06,17.08,2.39,2.39,0,0,0,3.85,1.78c3.61-2.85,8.16-3.67,11.42-2.25,3.57,1.56,6.2,6.05,6.17,11.14a2,2,0,0,0,3.27,1.54,23,23,0,0,1,5.82-3.69c3-1.29,4.21-.93,4.81-.62,2,1,3.44,2.75,4.19,6.16a2.39,2.39,0,0,0,3.24,1.73,87.59,87.59,0,0,0,15.25-8.42l.2-.12c3.11-1.66,7-4,6.61-5.62s-4.85-.69-7.72-3c-1.46-1.18-2.84-3.46-2.83-8.25a2.4,2.4,0,0,0-4-1.78C650.94,331.79,647.4,333.17,645,332.19Z"/><path class="cls-7" d="M695.84,332.19c2.6-1.05,3.91-4.58,4.31-6.76a23.75,23.75,0,0,0,.36-4.54,2.4,2.4,0,0,1,4.1-1.71,23.7,23.7,0,0,0,3.47,2.94c1.82,1.24,5.24,2.77,7.84,1.7s4.31-5.09,4.28-10.57a2.39,2.39,0,0,1,4-1.78,27.5,27.5,0,0,0,11.35,6.37,27,27,0,0,0,6.48,1,2.39,2.39,0,0,1,1.69,4,26.4,26.4,0,0,0-7.06,17.08,2.4,2.4,0,0,1-3.86,1.78c-3.61-2.85-8.15-3.67-11.42-2.25-3.57,1.56-6.2,6.05-6.17,11.14a2,2,0,0,1-3.27,1.54,22.81,22.81,0,0,0-5.82-3.69c-3-1.29-4.21-.93-4.81-.62-2,1-3.43,2.75-4.19,6.16a2.38,2.38,0,0,1-3.24,1.73,88.32,88.32,0,0,1-15.25-8.42l-.2-.12c-3.11-1.66-7-4-6.6-5.62s4.84-.69,7.72-3c1.46-1.18,2.83-3.46,2.82-8.25a2.4,2.4,0,0,1,4-1.78C689.86,331.79,693.4,333.17,695.84,332.19Z"/><path class="cls-1" d="M682.4,347.79a2.5,2.5,0,0,1-.75-4.79l46.59-19.58a2.5,2.5,0,1,1,1.93,4.61l-46.59,19.58A2.44,2.44,0,0,1,682.4,347.79Z"/><path class="cls-1" d="M656.13,348a2.5,2.5,0,0,0,.79-4.79l-46.42-20a2.5,2.5,0,1,0-2,4.59l46.41,20A2.48,2.48,0,0,0,656.13,348Z"/><circle class="cls-2" cx="682.17" cy="350.9" r="11.57"/><circle class="cls-2" cx="670.38" cy="332.09" r="11.57"/><circle class="cls-2" cx="660.22" cy="352.29" r="11.57"/><path class="cls-6" d="M172.36,423a5.13,5.13,0,0,0-1.88,7l30.22,52.34a5.13,5.13,0,0,0,7,1.88L239.34,466,202.7,405.49Z"/><path class="cls-6" d="M254.77,451.13l-30.21-52.34a5.13,5.13,0,0,0-7-1.87l-14.85,8.57L239.34,466l13.56-7.83A5.12,5.12,0,0,0,254.77,451.13Z"/><path class="cls-2" d="M260.13,517.27l6-50.4L142.53,453.75l-11,92.83a45.69,45.69,0,0,0,40,50.76l37.57,4.45,36.35,4.8a45.29,45.29,0,0,0,50.82-39h0A45.29,45.29,0,0,0,260.13,517.27Z"/><path class="cls-6" d="M234.12,526.92h-.19L161,523.51a4,4,0,0,1,.37-8l72.91,3.41a4,4,0,0,1-.18,8Z"/><path class="cls-6" d="M195.41,573.38h-.19a4,4,0,0,1-3.81-4.18l4.51-96.31a4,4,0,0,1,8,.37l-4.5,96.31A4,4,0,0,1,195.41,573.38Z"/><path class="cls-6" d="M175.26,544.74a4,4,0,0,1-2.7-7l44.9-40.89a4,4,0,0,1,5.39,5.92L178,543.7A4,4,0,0,1,175.26,544.74Z"/><path class="cls-6" d="M218.09,548.06a4,4,0,0,1-3-1.31l-40.89-44.9a4,4,0,1,1,5.91-5.38L221,541.37a4,4,0,0,1-2.95,6.69Z"/><polygon class="cls-2" points="168.12 429.85 157.05 429.85 153.58 388.99 170.67 388.99 168.12 429.85"/><path class="cls-7" d="M235,463.66a2.51,2.51,0,0,1-2.17-1.25l-31.72-54.69a2.5,2.5,0,0,1,4.33-2.51l31.72,54.7a2.5,2.5,0,0,1-2.16,3.75Z"/><path class="cls-4" d="M259,437l-102.3-12.14a10.62,10.62,0,0,0-11.8,9.3l-2.33,19.62L266.1,466.87l2.15-18.11A10.62,10.62,0,0,0,259,437Z"/><rect class="cls-6" x="447.75" y="404.48" width="54.69" height="48.84" rx="4.91" transform="translate(112.69 -98.67) rotate(13.44)"/><rect class="cls-2" x="449.49" y="422.2" width="48.57" height="13.19" transform="matrix(0.26, -0.97, 0.97, 0.26, -62.92, 775.61)"/><path class="cls-6" d="M486.65,495.05l-7.57,21.83L493.94,522l.6-1.72C490.18,513.34,487.87,503.33,486.65,495.05Z"/><path class="cls-2" d="M499.58,457.73l-12.13,35-.8,2.32c1.22,8.28,3.53,18.29,7.89,25.26l7.66-22.09q2.64-7.64,5.26-15.26C503.11,476,500.81,466,499.58,457.73Z"/><path class="cls-6" d="M552.75,426.53l.14,0a6.58,6.58,0,0,0,8.22-4c1.08-3,2.44-6.83,3.75-10.71a87.35,87.35,0,0,0-16.29,10.61A6.58,6.58,0,0,0,552.75,426.53Z"/><path class="cls-2" d="M523.67,389.27c-.45,1-.86,2-1.26,3-4.51,11.59-8.5,23.44-12.48,35.27.78,7.8,2.6,19.45,6.81,28.21q2.49-7.27,5-14.54l2.08-6c3.55-10.23,5.72-16.51,7-20.19C526.77,407.5,524.71,397.27,523.67,389.27Z"/><path class="cls-2" d="M569.36,395.28a21,21,0,0,0-.73-7.49c-4-14-20.35-20.43-32.43-13.86a64.64,64.64,0,0,0,5.72,17.16,7,7,0,0,1,4.07-2.28,9.11,9.11,0,0,1,8.56,4.14c1.49,2.49,1,5.39-2.46,15.47-.92,2.65-2.06,5.84-3.46,9.48a6.6,6.6,0,0,0-.06,4.55,87.35,87.35,0,0,1,16.29-10.61l.51-1.53C567,405.29,569,400.38,569.36,395.28Z"/><path class="cls-6" d="M536.2,373.93a21.77,21.77,0,0,0-4.63,3.4,36.9,36.9,0,0,0-7.9,11.94c1,8,3.1,18.23,7.18,25.74.39-1.09.71-1.95,1-2.61,4.21-10.95,6.9-17.95,10.11-21.31A64.64,64.64,0,0,1,536.2,373.93Z"/><path class="cls-6" d="M509.93,427.57c-1.76,5.23-3.52,10.47-5.32,15.68l-5,14.48c1.23,8.26,3.53,18.26,7.88,25.23q4.65-13.59,9.28-27.18C512.53,447,510.71,435.37,509.93,427.57Z"/><path class="cls-2" d="M532.28,517.45l6.06-51.07L414.58,454.84l-10.9,91.92c-.11.84-.18,1.69-.23,2.53a47.74,47.74,0,0,1,48.23,23.12l-3.32,25.22,9.78,1.29c0,.1,0,.2,0,.31l23.1,2.74,36.35,4.79a45.27,45.27,0,0,0,50.82-39h0A45.27,45.27,0,0,0,532.28,517.45Z"/><polygon class="cls-2" points="440.27 430.02 429.2 430.02 425.73 389.16 442.82 389.16 440.27 430.02"/><path class="cls-6" d="M548.09,562.78h0l-23.78,0a2.5,2.5,0,0,1,0-5h0l23.78,0a2.5,2.5,0,0,1,0,5Z"/><path class="cls-6" d="M536.18,578.47h0a2.5,2.5,0,0,1-2.5-2.51l.05-31.41a2.5,2.5,0,0,1,2.5-2.5h0a2.51,2.51,0,0,1,2.5,2.51L538.68,576A2.5,2.5,0,0,1,536.18,578.47Z"/><path class="cls-6" d="M529.2,569.44a2.5,2.5,0,0,1-1.77-4.27l14-14a2.5,2.5,0,1,1,3.53,3.54l-14,14A2.47,2.47,0,0,1,529.2,569.44Z"/><path class="cls-6" d="M543.19,569.89a2.49,2.49,0,0,1-1.77-.73l-14-14a2.5,2.5,0,1,1,3.54-3.53l14,14a2.5,2.5,0,0,1,0,3.53A2.45,2.45,0,0,1,543.19,569.89Z"/><path class="cls-6" d="M477.61,488.14h0l-23.78,0a2.5,2.5,0,0,1,0-5h0l23.78,0a2.5,2.5,0,0,1,0,5Z"/><path class="cls-6" d="M465.7,503.83h0a2.49,2.49,0,0,1-2.49-2.5l0-31.42a2.5,2.5,0,0,1,2.5-2.5h0a2.51,2.51,0,0,1,2.49,2.51l0,31.41A2.5,2.5,0,0,1,465.7,503.83Z"/><path class="cls-6" d="M458.72,494.81a2.5,2.5,0,0,1-1.77-4.28l14-14a2.5,2.5,0,1,1,3.53,3.55l-14,14A2.53,2.53,0,0,1,458.72,494.81Z"/><path class="cls-6" d="M472.71,495.25a2.5,2.5,0,0,1-1.78-.73l-14-14a2.5,2.5,0,0,1,3.55-3.53l14,14a2.5,2.5,0,0,1-1.77,4.26Z"/><path class="cls-7" d="M533.08,437.37l-106.24-12.6a8.64,8.64,0,0,0-9.59,7.56l-2.67,22.51,123.76,11.54,2.3-19.41A8.64,8.64,0,0,0,533.08,437.37Z"/><circle class="cls-5" cx="464.97" cy="550.55" r="25.86"/><path class="cls-1" d="M466.8,565.57h0c-17.73-.3-17.81-17.85-17.81-18a2.5,2.5,0,0,1,2.5-2.48h0a2.49,2.49,0,0,1,2.48,2.51h0c0,1.31.37,12.79,12.89,13a2.5,2.5,0,0,1,0,5Z"/><path class="cls-1" d="M417,551.64a2.54,2.54,0,0,1-.8-.14,2.49,2.49,0,0,1-1.56-3.16l16-47.28a2.5,2.5,0,1,1,4.74,1.6l-16,47.28A2.5,2.5,0,0,1,417,551.64Z"/><path class="cls-1" d="M427.4,518.45l-6.62-14.19a2.5,2.5,0,1,1,4.53-2.11l4.4,9.43,10.34-5.43a2.5,2.5,0,1,1,2.33,4.42Z"/><path class="cls-1" d="M459.61,600a2.5,2.5,0,0,1-.62-4.92l48.33-12.43a2.5,2.5,0,0,1,1.24,4.84l-48.32,12.43A2.27,2.27,0,0,1,459.61,600Z"/><path class="cls-1" d="M507,598a2.53,2.53,0,0,1-1.22-.32L491,589.44l8.28-13.29a2.5,2.5,0,0,1,4.25,2.64L498,587.63l10.2,5.69A2.51,2.51,0,0,1,507,598Z"/><path class="cls-4" d="M463.2,553.75a2.5,2.5,0,0,1-1.76-4.28l6.14-6.07a2.5,2.5,0,1,1,3.51,3.55L465,553A2.52,2.52,0,0,1,463.2,553.75Z"/><path class="cls-5" d="M451.82,572.64a47.73,47.73,0,0,0-48.37-23.35,45.69,45.69,0,0,0,40.22,48.22l14.46,1.72A47.53,47.53,0,0,0,451.82,572.64Z"/><path class="cls-8" d="M904.59,802.05H837.22a2.5,2.5,0,0,1,0-5h67.37a2.5,2.5,0,0,1,0,5Z"/><circle class="cls-2" cx="336.47" cy="632.66" r="5.75"/><circle class="cls-2" cx="609.23" cy="549.14" r="5.75"/><circle class="cls-2" cx="658.81" cy="633.7" r="5.75"/><path class="cls-8" d="M770,398.36c-.31-.21.48.4.28.21s-.16-.32.2.27c-.27-.44.07.58,0,.08a3.46,3.46,0,0,0-.14-.62c-.12-.56,0,.42,0,0l-.09-.82q-.33-3.21-.6-6.44c-.37-4.31-.7-8.62-1.38-12.9-1.3-8.15-4.49-18.44-13-21.74-4.28-1.66-8.43.32-10.87,4a17.27,17.27,0,0,0-2.19,12.68c.93,5.18,3.64,9.93,6.73,14.13,1.59,2.16,3.29,4.24,5,6.29a56.15,56.15,0,0,0,5.2,5.7c1.94,1.73,4.34,3.47,6.95,4a5.33,5.33,0,0,0,6.43-4,30.94,30.94,0,0,0,.45-4.41l.06-.57c0-.13.1-.79,0-.31s0-.24.05-.36c0-.28.08-.56.13-.83a104.62,104.62,0,0,1,3.88-16.08c.5-1.53,1-3.06,1.64-4.56l.36-.89a2.36,2.36,0,0,1,.12-.28c.06-.15.12-.29.19-.44.31-.71.64-1.41,1-2.11a40.24,40.24,0,0,1,2.1-3.74c.36-.55.73-1.08,1.12-1.6-.34.45.17-.21.28-.34s.45-.53.69-.79a15.47,15.47,0,0,1,1.17-1.12l.34-.28c.28-.24-.5.34,0,0,.23-.16.45-.32.69-.46s.48-.26.71-.39c.6-.34-.38.08.28-.12.2,0,.39-.13.59-.18s1.19-.12.4-.1h1.42c.42,0-.11,0-.18,0l.49.1c.28.07.55.16.83.24.66.2-.22-.15.42.17.26.13.52.26.77.41s.54.33.79.5l.45.32c.14.1.12.09-.06-.05a2.69,2.69,0,0,1,.32.27c3.38,3.14.94,9.15-.81,12.53-2.22,4.27-5.28,8-8.26,11.74-1.87,2.33-3.76,4.64-5.82,6.81a44.6,44.6,0,0,1-4,3.8,17,17,0,0,1-1.69,1.24c-.3.2-.61.38-.92.56l-.51.26c-.11.06-.71.3-.19.1-.29.11-.57.19-.86.28a3.94,3.94,0,0,1-.47.1c.59-.1.26,0,.12,0h-.43c-.26,0,.46.26.07,0-.57-.38.28.22-.34-.14-2.77-1.64-5.29,2.68-2.52,4.31,3,1.75,6.4.38,9-1.4a45.34,45.34,0,0,0,8.13-7.59c2-2.25,3.84-4.61,5.7-7,3.36-4.21,6.6-8.52,8.66-13.53,2-4.77,2.92-10.94-.82-15.11a12.41,12.41,0,0,0-8-3.92c-5.49-.37-9.6,4.21-12.21,8.47-3.24,5.29-5.28,11.36-6.91,17.31a92.66,92.66,0,0,0-2.92,14.65c-.12,1.14.18,2.93-.45,3.76.06-.08.14-.12.1-.1a2.23,2.23,0,0,1-1.33-.25,11.44,11.44,0,0,1-3-1.83,42.15,42.15,0,0,1-5.3-5.63c-1.64-1.92-3.27-3.84-4.77-5.88-2.93-4-5.6-8.45-6.31-13.44-.49-3.41.41-7.55,3-9.68a3.52,3.52,0,0,1,1.53-.72c.51-.11.23,0,.12,0a5,5,0,0,1,.67,0c.49,0-.56-.14.32,0a5.46,5.46,0,0,1,.88.24,11.1,11.1,0,0,1,4.32,3.38c2.53,2.94,3.89,6.94,4.78,10.73a85.15,85.15,0,0,1,1.75,12.52c.18,2,.35,4.05.54,6.08a60.32,60.32,0,0,0,.65,6,4.31,4.31,0,0,0,1.9,2.89C770.17,404.45,772.68,400.12,770,398.36Z"/><rect class="cls-2" x="737.36" y="399.09" width="66.48" height="122.94" rx="12.38"/><rect class="cls-8" x="760.41" y="399.09" width="18.43" height="121.23"/><polygon class="cls-7" points="716.91 429.71 705.84 429.71 702.37 388.85 719.46 388.85 716.91 429.71"/><path class="cls-7" d="M808.92,517.13l5.18-43.72c-7.22,3.89-15.35,4.66-22.2,1.86-9.81-4-13.53-13.93-14.26-16-.35.56-8.36,12.79-22.84,12.35a26.28,26.28,0,0,1-23.36-16.49c-1.24,1.78-7.29,10.05-18.19,11.79a27.9,27.9,0,0,1-22.68-7l-10.26,86.51a45.69,45.69,0,0,0,40,50.76l37.57,4.45,36.35,4.8a45.28,45.28,0,0,0,50.82-39h0A45.29,45.29,0,0,0,808.92,517.13Z"/><path class="cls-6" d="M693.82,432.5l-3.25,27.43a27.9,27.9,0,0,0,22.68,7c10.9-1.74,17-10,18.19-11.79A26.28,26.28,0,0,0,754.8,471.6c14.48.44,22.49-11.79,22.84-12.35.73,2.09,4.45,12,14.26,16,6.85,2.8,15,2,22.2-1.86l3.12-26.28a9.13,9.13,0,0,0-8-10.13L704,424.52A9.12,9.12,0,0,0,693.82,432.5Z"/><path class="cls-4" d="M760.63,511.17a8.78,8.78,0,0,1,6.62-10.51,8.63,8.63,0,0,1,3.35-.1c-.08-.56-.17-1.12-.3-1.68a20.44,20.44,0,0,0-40.37,4.21l.48-.13a8.78,8.78,0,0,1,6.66,16,20.43,20.43,0,0,0,28.4-1.76A8.75,8.75,0,0,1,760.63,511.17Z"/><path class="cls-6" d="M770.6,500.56a8.63,8.63,0,0,0-3.35.1,8.78,8.78,0,0,0-1.78,16.51A20.42,20.42,0,0,0,770.6,500.56Z"/><path class="cls-6" d="M740.92,509.58A8.78,8.78,0,0,0,730.41,503l-.48.13a20,20,0,0,0,.5,4.83,20.34,20.34,0,0,0,6.64,11A8.78,8.78,0,0,0,740.92,509.58Z"/><circle class="cls-2" cx="750.23" cy="504.19" r="2.38"/><path class="cls-8" d="M750.74,515a8.31,8.31,0,0,1-6.49-3.39,1.5,1.5,0,1,1,2.45-1.73,5.18,5.18,0,0,0,4.19,2.11,5.26,5.26,0,0,0,4.15-2.5,1.5,1.5,0,0,1,2.61,1.49,8.29,8.29,0,0,1-6.67,4Z"/><path class="cls-4" d="M725.09,519.18c5.17-.44,10.39-.49,15.58-.74l26.28-1.3,10.92-.54c3.86-.18,5.77,1.48,6.59,3.09a4.52,4.52,0,0,1,.43,2.36c-.29,2.64-3.32,5-7.52,5.88l-10.87,3.45q1.21,13.67,2.42,27.33L732.78,561l.33-27.09-6.68-2.22c-2.56-.85-5.46-1.33-7.59-3-2.41-1.92-3-5.12-.46-7.34a10,10,0,0,1,5.7-2.06Z"/><path class="cls-5" d="M736.45,518.38a7.15,7.15,0,0,0,7.19,10.42,9.16,9.16,0,0,0,14.6-1,7,7,0,0,0,7.23-10.67S752,531.32,736.45,518.38Z"/><circle class="cls-7" cx="750.29" cy="539.44" r="2.53"/><circle class="cls-7" cx="751.22" cy="551.17" r="2.53"/><path class="cls-4" d="M732.79,560.55q.21,8.24.41,16.47a8.76,8.76,0,0,0,2.5,6.05,8.54,8.54,0,0,0,5.79,2.48,8.71,8.71,0,0,0,8.56-6.66,6.54,6.54,0,0,0,.17-1.32l1.09-18.3c1.55,6.14,1.87,12.37,3.41,18.52.62,5,6.64,7.93,10.67,6.84,3.54-1,6.08-5,5.16-9.28l-1.68-17.13-21.46-3.59Z"/><path class="cls-4" d="M721.2,491.68l-7.36,1.55a.25.25,0,0,0-.16.39l2.41,3.87a.26.26,0,0,1-.33.37l-4-2.1a.26.26,0,0,0-.37.2l-.89,8.53a.25.25,0,0,1-.5,0l-1.59-8.42a.26.26,0,0,0-.39-.17l-3.85,2.42a.25.25,0,0,1-.36-.33l2.08-4.07a.26.26,0,0,0-.2-.37l-7.91-.91a.26.26,0,0,1,0-.51l7.81-1.57a.25.25,0,0,0,.16-.38l-2.41-3.88a.25.25,0,0,1,.33-.36l4,2.09a.25.25,0,0,0,.37-.2l.88-8.82a.25.25,0,0,1,.5,0l1.61,8.71a.25.25,0,0,0,.38.17l3.86-2.42a.26.26,0,0,1,.36.34l-2.09,4.06a.27.27,0,0,0,.2.38l7.46.93A.25.25,0,0,1,721.2,491.68Z"/><path class="cls-4" d="M809.57,554.55l-7.36,1.55a.26.26,0,0,0-.17.39l2.42,3.87a.26.26,0,0,1-.33.37l-4-2.09a.25.25,0,0,0-.37.2l-.89,8.52a.25.25,0,0,1-.5,0l-1.6-8.42a.25.25,0,0,0-.38-.17l-3.86,2.42a.25.25,0,0,1-.36-.33l2.09-4.06a.26.26,0,0,0-.2-.38l-7.91-.91a.26.26,0,0,1,0-.51l7.8-1.56a.26.26,0,0,0,.17-.39l-2.41-3.88a.25.25,0,0,1,.33-.36l4,2.09a.25.25,0,0,0,.37-.2l.87-8.82a.26.26,0,0,1,.51,0l1.6,8.72a.27.27,0,0,0,.39.17l3.85-2.42a.25.25,0,0,1,.36.33l-2.08,4.07a.26.26,0,0,0,.19.37l7.47.93A.25.25,0,0,1,809.57,554.55Z"/><path class="cls-4" d="M892.4,261.61a12.87,12.87,0,0,0-9.54-9.5,12.72,12.72,0,0,0-12.41-15.77,12.69,12.69,0,0,0-3.17.41,12.77,12.77,0,0,0-24.78,1.47,12.74,12.74,0,0,0-14.17,12.69c0,.16,0,.32,0,.47s-2.34,1.07-2.52,1.16a12,12,0,0,0-5.14,4.76A12.88,12.88,0,0,0,822.08,272a16.93,16.93,0,0,0,13.85,7.19h39.93a16.81,16.81,0,0,0,10-3.29,23.88,23.88,0,0,0,3.27-2.4,12.73,12.73,0,0,0,2.41-3.4A12.48,12.48,0,0,0,892.4,261.61Z"/><rect class="cls-2" x="805.09" y="296.34" width="101.61" height="22.75"/><rect class="cls-6" x="805.09" y="319.09" width="101.61" height="25.49"/><path class="cls-6" d="M906.7,280.8a10,10,0,0,0-10-9.95H815a10,10,0,0,0-9.94,9.95v15.54H906.7Z"/><path class="cls-8" d="M863.6,265.29a9.38,9.38,0,0,1-6-2.49,11.18,11.18,0,0,1-11.12-3.32,11.3,11.3,0,0,1-.42-14.31,2.5,2.5,0,1,1,4,3,6.12,6.12,0,0,0,7.27,9.45l1.73-.72,1.18,1.45s1.85,2.13,3.66,1.9a4,4,0,0,0,3.34-2.82,2.5,2.5,0,0,1,4.8,1.4,9,9,0,0,1-7.53,6.39A7,7,0,0,1,863.6,265.29Z"/></svg>